<svg id="Layer_1" xmlns:rdf="http://www.w3.org/1999/02/22-rdf-syntax-ns#" xmlns="http://www.w3.org/2000/svg" xml:space="preserve" viewBox="0 0 228 25.6" height="25.6" width="228" version="1.1" y="0px" x="0px" xmlns:cc="http://creativecommons.org/ns#" xmlns:dc="http://purl.org/dc/elements/1.1/"><style id="style3" type="text/css">
	.st0{fill:#FFFFFF;}
</style><g id="XMLID_3_" fill="#fff" transform="translate(-85.9,-1.6)"><path id="XMLID_4_" d="m139 1.9v1h-4.1v2.9h3.5v1h-3.5v3.7h-1.2v-8.6h5.3z" class="st0"/><path id="XMLID_6_" d="m142.3 4.4c0.4 0 0.9 0.1 1.2 0.2 0.4 0.1 0.7 0.4 0.9 0.6s0.4 0.6 0.6 1c0.1 0.4 0.2 0.8 0.2 1.3s-0.1 0.9-0.2 1.3-0.3 0.7-0.6 1-0.6 0.5-0.9 0.6c-0.4 0.1-0.8 0.2-1.2 0.2s-0.9-0.1-1.2-0.2c-0.4-0.1-0.7-0.4-0.9-0.6-0.3-0.3-0.4-0.6-0.6-1-0.1-0.4-0.2-0.8-0.2-1.3s0.1-0.9 0.2-1.3 0.3-0.7 0.6-1 0.6-0.5 0.9-0.6c0.4-0.2 0.8-0.2 1.2-0.2zm0 5.3c0.6 0 1-0.2 1.3-0.6s0.4-0.9 0.4-1.7c0-0.7-0.1-1.3-0.4-1.7s-0.7-0.6-1.3-0.6-1 0.2-1.3 0.6-0.4 0.9-0.4 1.7c0 0.7 0.1 1.3 0.4 1.7s0.7 0.6 1.3 0.6z" class="st0"/><path id="XMLID_9_" d="m150.8 5.6l-0.1 0.1h-0.1c-0.1 0-0.1 0-0.2-0.1s-0.2-0.1-0.3-0.2-0.2-0.1-0.4-0.2c-0.2 0-0.3-0.1-0.6-0.1s-0.6 0.1-0.8 0.2-0.4 0.3-0.6 0.4c-0.1 0.2-0.3 0.4-0.3 0.7-0.1 0.3-0.1 0.6-0.1 0.9 0 0.4 0 0.7 0.1 1s0.2 0.5 0.3 0.7 0.3 0.3 0.5 0.4 0.5 0.2 0.7 0.2c0.3 0 0.5 0 0.6-0.1 0.2-0.1 0.3-0.1 0.4-0.2s0.2-0.1 0.3-0.2 0.1-0.1 0.2-0.1 0.2 0 0.2 0.1l0.3 0.4c-0.1 0.2-0.3 0.3-0.5 0.4l-0.6 0.3c-0.2 0.1-0.4 0.1-0.6 0.2-0.2 0-0.4 0.1-0.6 0.1-0.4 0-0.7-0.1-1.1-0.2s-0.6-0.3-0.9-0.6-0.4-0.6-0.6-1c-0.1-0.4-0.2-0.8-0.2-1.3s0.1-0.9 0.2-1.3 0.3-0.7 0.6-1c0.2-0.3 0.5-0.5 0.9-0.7s0.8-0.2 1.2-0.2 0.8 0.1 1.1 0.2 0.6 0.3 0.9 0.6l0.1 0.6z" class="st0"/><path id="XMLID_11_" d="m153.4 4.5v3.9c0 0.4 0.1 0.8 0.3 1s0.5 0.4 0.9 0.4c0.3 0 0.6-0.1 0.9-0.2s0.5-0.3 0.7-0.6v-4.5h1.1v6.1h-0.7c-0.2 0-0.3-0.1-0.3-0.2l-0.1-0.6c-0.3 0.3-0.6 0.5-0.9 0.7s-0.7 0.3-1.1 0.3c-0.3 0-0.6-0.1-0.9-0.2s-0.5-0.3-0.6-0.5-0.3-0.4-0.4-0.7-0.1-0.6-0.1-0.9v-4h1.2z" class="st0"/><path id="XMLID_13_" d="m162.5 5.5c-0.1 0.1-0.1 0.1-0.2 0.1s-0.1 0-0.2-0.1-0.2-0.1-0.3-0.1c-0.1-0.1-0.2-0.1-0.4-0.1s-0.3-0.1-0.5-0.1-0.3 0-0.5 0.1-0.3 0.1-0.4 0.2-0.2 0.2-0.2 0.3-0.1 0.2-0.1 0.3c0 0.2 0 0.3 0.1 0.4s0.2 0.2 0.4 0.3c0.1 0.1 0.3 0.1 0.5 0.2s0.4 0.1 0.6 0.2 0.4 0.1 0.6 0.2 0.4 0.2 0.5 0.3l0.4 0.4c0.1 0.2 0.1 0.4 0.1 0.6 0 0.3-0.1 0.5-0.2 0.8-0.1 0.2-0.3 0.4-0.4 0.6-0.2 0.2-0.4 0.3-0.7 0.4s-0.6 0.2-1 0.2-0.8-0.1-1.2-0.2c-0.3-0.1-0.6-0.3-0.9-0.5l0.3-0.4c0-0.1 0.1-0.1 0.1-0.1h0.2c0.1 0 0.2 0 0.2 0.1s0.2 0.1 0.3 0.2 0.3 0.1 0.4 0.2c0.2 0.1 0.4 0.1 0.6 0.1s0.4 0 0.5-0.1c0.2-0.1 0.3-0.1 0.4-0.2s0.2-0.2 0.2-0.3 0.1-0.2 0.1-0.4 0-0.3-0.1-0.4-0.2-0.2-0.4-0.3-0.3-0.4-0.5-0.4c-0.2-0.1-0.4-0.1-0.6-0.2s-0.4-0.1-0.6-0.2-0.4-0.2-0.5-0.3-0.3-0.3-0.4-0.5-0.1-0.4-0.1-0.7c0-0.2 0-0.5 0.1-0.7s0.2-0.4 0.4-0.6 0.4-0.3 0.7-0.4 0.6-0.1 0.9-0.1c0.4 0 0.8 0.1 1.1 0.2s0.6 0.3 0.8 0.5l-0.1 0.5z" class="st0"/><path id="XMLID_15_" d="m169.8 4.4c0.4 0 0.9 0.1 1.2 0.2s0.7 0.4 0.9 0.6 0.4 0.6 0.6 1c0.1 0.4 0.2 0.8 0.2 1.3s-0.1 0.9-0.2 1.3-0.3 0.7-0.6 1-0.6 0.5-0.9 0.6c-0.4 0.1-0.8 0.2-1.2 0.2s-0.9-0.1-1.2-0.2c-0.4-0.1-0.7-0.4-0.9-0.6-0.3-0.3-0.4-0.6-0.6-1-0.1-0.4-0.2-0.8-0.2-1.3s0.1-0.9 0.2-1.3 0.3-0.7 0.6-1 0.6-0.5 0.9-0.6 0.8-0.2 1.2-0.2zm0 5.3c0.6 0 1-0.2 1.3-0.6s0.4-0.9 0.4-1.7c0-0.7-0.1-1.3-0.4-1.7s-0.7-0.6-1.3-0.6-1 0.2-1.3 0.6-0.5 1.1-0.5 1.8 0.1 1.3 0.4 1.7 0.8 0.5 1.4 0.5z" class="st0"/><path id="XMLID_18_" d="m174 10.5v-6h0.7c0.2 0 0.3 0.1 0.3 0.2l0.1 0.6c0.3-0.3 0.6-0.5 0.9-0.7s0.7-0.3 1.1-0.3c0.3 0 0.6 0.1 0.9 0.2s0.5 0.3 0.6 0.5 0.3 0.4 0.4 0.7 0.1 0.6 0.1 0.9v3.9h-1.1v-3.8c0-0.4-0.1-0.8-0.3-1s-0.5-0.4-0.9-0.4c-0.3 0-0.6 0.1-0.9 0.2s-0.5 0.3-0.7 0.6v4.5h-1.2z" class="st0"/><path id="XMLID_20_" d="m185.7 10.6c-0.5 0-0.9-0.1-1.1-0.4-0.3-0.3-0.4-0.7-0.4-1.2v-3.6h-0.7c-0.1 0-0.1 0-0.2-0.1s-0.1-0.1-0.1-0.2v-0.4l1-0.1 0.3-1.8c0-0.1 0-0.1 0.1-0.2 0 0 0.1-0.1 0.2-0.1h0.6v2.1h1.7v0.8h-1.7v3.6c0 0.2 0.1 0.4 0.2 0.5s0.3 0.2 0.5 0.2h0.3c0.1 0 0.1-0.1 0.2-0.1s0.1-0.1 0.1-0.1h0.1 0.1l0.1 0.1 0.3 0.5c-0.2 0.2-0.4 0.3-0.7 0.4-0.4 0.1-0.6 0.1-0.9 0.1z" class="st0"/><path id="XMLID_22_" d="m188.1 10.5v-8.8h1.1v3.5c0.3-0.3 0.5-0.5 0.9-0.6 0.3-0.2 0.7-0.2 1.1-0.2 0.3 0 0.6 0.1 0.9 0.2s0.5 0.3 0.6 0.5 0.3 0.4 0.4 0.7 0.1 0.6 0.1 0.9v3.9h-1.1v-3.9c0-0.4-0.1-0.8-0.3-1s-0.5-0.4-0.9-0.4c-0.3 0-0.6 0.1-0.9 0.2s-0.5 0.3-0.7 0.6v4.5h-1.2z" class="st0"/><path id="XMLID_24_" d="m197.3 4.4c0.4 0 0.7 0.1 1 0.2s0.6 0.3 0.8 0.5 0.4 0.5 0.5 0.9c0.1 0.3 0.2 0.7 0.2 1.2 0 0.2 0 0.3-0.1 0.4s-0.1 0.1-0.2 0.1h-4c0 0.4 0.1 0.7 0.2 1s0.2 0.5 0.4 0.7 0.4 0.3 0.6 0.4 0.5 0.1 0.8 0.1 0.5 0 0.7-0.1 0.4-0.1 0.5-0.2 0.3-0.1 0.4-0.2 0.2-0.1 0.3-0.1 0.2 0 0.2 0.1l0.3 0.4c-0.1 0.2-0.3 0.3-0.5 0.4l-0.6 0.3c-0.2 0.1-0.4 0.1-0.7 0.2-0.2 0-0.4 0.1-0.7 0.1-0.4 0-0.8-0.1-1.2-0.2s-0.7-0.4-0.9-0.6c-0.3-0.3-0.5-0.6-0.6-1s-0.2-0.9-0.2-1.4c0-0.4 0.1-0.8 0.2-1.2s0.3-0.7 0.6-1 0.5-0.5 0.9-0.6c0.3-0.4 0.7-0.4 1.1-0.4zm0.1 0.8c-0.5 0-0.9 0.1-1.2 0.4s-0.5 0.7-0.5 1.2h3.2c0-0.2 0-0.5-0.1-0.7s-0.2-0.4-0.3-0.5-0.3-0.3-0.5-0.3-0.4-0.1-0.6-0.1z" class="st0"/><path id="XMLID_27_" d="m208.5 5.6l-0.1 0.1h-0.1c-0.1 0-0.1 0-0.2-0.1s-0.2-0.1-0.3-0.2-0.2-0.1-0.4-0.2c-0.2 0-0.3-0.1-0.6-0.1s-0.6 0.1-0.8 0.2-0.4 0.3-0.6 0.4c-0.1 0.2-0.3 0.4-0.3 0.7-0.1 0.3-0.1 0.6-0.1 0.9 0 0.4 0 0.7 0.1 1s0.2 0.5 0.3 0.7c0.2 0.2 0.3 0.3 0.5 0.4s0.5 0.2 0.7 0.2c0.3 0 0.5 0 0.6-0.1s0.3-0.1 0.4-0.2 0.2-0.1 0.3-0.2 0.1-0.1 0.2-0.1 0.2 0 0.2 0.1l0.3 0.4c-0.1 0.2-0.3 0.3-0.5 0.4l-0.6 0.3c-0.2 0.1-0.4 0.1-0.6 0.2-0.2 0-0.4 0.1-0.6 0.1-0.4 0-0.7-0.1-1.1-0.2s-0.6-0.3-0.9-0.6-0.4-0.6-0.6-1c-0.1-0.4-0.2-0.8-0.2-1.3s0.1-0.9 0.2-1.3 0.3-0.7 0.6-1c0.2-0.3 0.5-0.5 0.9-0.7s0.8-0.2 1.2-0.2 0.8 0.1 1.1 0.2 0.6 0.3 0.9 0.6l0.1 0.6z" class="st0"/><path id="XMLID_29_" d="m212.4 4.4c0.4 0 0.9 0.1 1.2 0.2s0.7 0.4 0.9 0.6 0.4 0.6 0.6 1c0.1 0.4 0.2 0.8 0.2 1.3s-0.1 0.9-0.2 1.3-0.3 0.7-0.6 1-0.6 0.5-0.9 0.6c-0.4 0.1-0.8 0.2-1.2 0.2s-0.9-0.1-1.2-0.2c-0.4-0.1-0.7-0.4-0.9-0.6-0.3-0.3-0.4-0.6-0.6-1-0.1-0.4-0.2-0.8-0.2-1.3s0.1-0.9 0.2-1.3 0.3-0.7 0.6-1 0.6-0.5 0.9-0.6c0.4-0.2 0.8-0.2 1.2-0.2zm0 5.3c0.6 0 1-0.2 1.3-0.6s0.4-0.9 0.4-1.7c0-0.7-0.1-1.3-0.4-1.7s-0.7-0.6-1.3-0.6-1 0.2-1.3 0.6-0.4 0.9-0.4 1.7c0 0.7 0.1 1.3 0.4 1.7s0.7 0.6 1.3 0.6z" class="st0"/><path id="XMLID_32_" d="m216.7 10.5v-6h0.7c0.2 0 0.3 0.1 0.3 0.2l0.1 0.6c0.3-0.3 0.6-0.5 0.9-0.7s0.7-0.3 1.1-0.3c0.3 0 0.6 0.1 0.9 0.2s0.5 0.3 0.6 0.5 0.3 0.4 0.4 0.7 0.1 0.6 0.1 0.9v3.9h-1.1v-3.8c0-0.4-0.1-0.8-0.3-1s-0.5-0.4-0.9-0.4c-0.3 0-0.6 0.1-0.9 0.2s-0.5 0.3-0.7 0.6v4.5h-1.2z" class="st0"/><path id="XMLID_34_" d="m223.4 10.5v-6h0.7c0.2 0 0.3 0.1 0.3 0.2l0.1 0.6c0.3-0.3 0.6-0.5 0.9-0.7s0.7-0.3 1.1-0.3c0.3 0 0.6 0.1 0.9 0.2s0.5 0.3 0.6 0.5 0.3 0.4 0.4 0.7 0.1 0.6 0.1 0.9v3.9h-1.1v-3.8c0-0.4-0.1-0.8-0.3-1s-0.5-0.4-0.9-0.4c-0.3 0-0.6 0.1-0.9 0.2s-0.5 0.3-0.7 0.6v4.5h-1.2z" class="st0"/><path id="XMLID_36_" d="m232.6 4.4c0.4 0 0.7 0.1 1 0.2s0.6 0.3 0.8 0.5 0.4 0.5 0.5 0.9c0.1 0.3 0.2 0.7 0.2 1.2 0 0.2 0 0.3-0.1 0.4s-0.1 0.1-0.2 0.1h-4c0 0.4 0.1 0.7 0.2 1s0.2 0.5 0.4 0.7 0.4 0.3 0.6 0.4 0.5 0.1 0.8 0.1 0.5 0 0.7-0.1 0.4-0.1 0.5-0.2 0.3-0.1 0.4-0.2 0.2-0.1 0.3-0.1 0.2 0 0.2 0.1l0.3 0.4c-0.1 0.2-0.3 0.3-0.5 0.4l-0.6 0.3c-0.2 0.1-0.4 0.1-0.7 0.2-0.2 0-0.4 0.1-0.7 0.1-0.4 0-0.8-0.1-1.2-0.2s-0.7-0.4-0.9-0.6c-0.3-0.3-0.5-0.6-0.6-1s-0.2-0.9-0.2-1.4c0-0.4 0.1-0.8 0.2-1.2s0.3-0.7 0.6-1 0.5-0.5 0.9-0.6c0.2-0.4 0.6-0.4 1.1-0.4zm0 0.8c-0.5 0-0.9 0.1-1.2 0.4s-0.5 0.7-0.5 1.2h3.2c0-0.2 0-0.5-0.1-0.7s-0.2-0.4-0.3-0.5-0.3-0.3-0.5-0.3-0.4-0.1-0.6-0.1z" class="st0"/><path id="XMLID_39_" d="m240.7 5.6l-0.1 0.1h-0.1c-0.1 0-0.1 0-0.2-0.1s-0.2-0.1-0.3-0.2-0.2-0.1-0.4-0.2c-0.2 0-0.3-0.1-0.6-0.1s-0.6 0.1-0.8 0.2-0.4 0.3-0.6 0.4c-0.1 0.2-0.3 0.4-0.3 0.7-0.1 0.3-0.1 0.6-0.1 0.9 0 0.4 0 0.7 0.1 1s0.2 0.5 0.3 0.7c0.2 0.2 0.3 0.3 0.5 0.4s0.5 0.2 0.7 0.2c0.3 0 0.5 0 0.6-0.1s0.3-0.1 0.4-0.2 0.2-0.1 0.3-0.2 0.1-0.1 0.2-0.1 0.2 0 0.2 0.1l0.3 0.4c-0.1 0.2-0.3 0.3-0.5 0.4l-0.6 0.3c-0.2 0.1-0.4 0.1-0.6 0.2-0.2 0-0.4 0.1-0.6 0.1-0.4 0-0.7-0.1-1.1-0.2s-0.6-0.3-0.9-0.6-0.4-0.6-0.6-1c-0.1-0.4-0.2-0.8-0.2-1.3s0.1-0.9 0.2-1.3 0.3-0.7 0.6-1c0.2-0.3 0.5-0.5 0.9-0.7s0.8-0.2 1.2-0.2 0.8 0.1 1.1 0.2 0.6 0.3 0.9 0.6l0.1 0.6z" class="st0"/><path id="XMLID_41_" d="m247.9 4.6v6h-1.1v-5.2h-3.1v3.6c0 0.2 0.1 0.4 0.2 0.5s0.3 0.2 0.5 0.2h0.3c0.1 0 0.1-0.1 0.2-0.1s0.1-0.1 0.1-0.1h0.1 0.1l0.1 0.1 0.3 0.5c-0.2 0.2-0.4 0.3-0.7 0.4s-0.5 0.1-0.8 0.1c-0.5 0-0.9-0.1-1.1-0.4-0.3-0.3-0.4-0.7-0.4-1.2v-3.6h-0.7c-0.1 0-0.1 0-0.2-0.1s-0.1-0.1-0.1-0.2v-0.4l1-0.1 0.3-1.8c0-0.1 0-0.1 0.1-0.2 0 0 0.1-0.1 0.2-0.1h0.6v2.1h4.1zm0.3-2.1c0 0.1 0 0.2-0.1 0.3 0 0.1-0.1 0.2-0.2 0.2-0.1 0.1-0.2 0.1-0.3 0.2s-0.2 0.1-0.3 0.1-0.2 0-0.3-0.1-0.2-0.1-0.2-0.2c-0.1-0.1-0.1-0.2-0.2-0.2 0-0.1-0.1-0.2-0.1-0.3s0-0.2 0.1-0.3 0.1-0.2 0.2-0.3 0.2-0.1 0.2-0.2 0.2-0.1 0.3-0.1 0.2 0 0.3 0.1 0.2 0.1 0.3 0.2 0.1 0.2 0.2 0.3 0.1 0.2 0.1 0.3z" class="st0"/><path id="XMLID_44_" d="m252.2 4.4c0.4 0 0.9 0.1 1.2 0.2s0.7 0.4 0.9 0.6 0.4 0.6 0.6 1c0.1 0.4 0.2 0.8 0.2 1.3s-0.1 0.9-0.2 1.3-0.3 0.7-0.6 1-0.6 0.5-0.9 0.6c-0.4 0.1-0.8 0.2-1.2 0.2s-0.9-0.1-1.2-0.2c-0.4-0.1-0.7-0.4-0.9-0.6-0.3-0.3-0.4-0.6-0.6-1-0.1-0.4-0.2-0.8-0.2-1.3s0.1-0.9 0.2-1.3 0.3-0.7 0.6-1 0.6-0.5 0.9-0.6c0.3-0.2 0.7-0.2 1.2-0.2zm0 5.3c0.6 0 1-0.2 1.3-0.6s0.4-0.9 0.4-1.7c0-0.7-0.1-1.3-0.4-1.7s-0.7-0.6-1.3-0.6-1 0.2-1.3 0.6-0.4 0.9-0.4 1.7c0 0.7 0.1 1.3 0.4 1.7s0.7 0.6 1.3 0.6z" class="st0"/><path id="XMLID_47_" d="m256.4 10.5v-6h0.7c0.2 0 0.3 0.1 0.3 0.2l0.1 0.6c0.3-0.3 0.6-0.5 0.9-0.7s0.7-0.3 1.1-0.3c0.3 0 0.6 0.1 0.9 0.2s0.5 0.3 0.6 0.5 0.3 0.4 0.4 0.7 0.1 0.6 0.1 0.9v3.9h-1.1v-3.8c0-0.4-0.1-0.8-0.3-1s-0.5-0.4-0.9-0.4c-0.3 0-0.6 0.1-0.9 0.2s-0.5 0.3-0.7 0.6v4.5h-1.2z" class="st0"/><path id="XMLID_49_" d="m266.7 5.5c-0.1 0.1-0.1 0.1-0.2 0.1s-0.1 0-0.2-0.1-0.2-0.1-0.3-0.1c-0.1-0.1-0.2-0.1-0.4-0.1s-0.3-0.1-0.5-0.1-0.3 0-0.5 0.1-0.3 0.1-0.4 0.2-0.2 0.2-0.2 0.3-0.1 0.2-0.1 0.3c0 0.2 0 0.3 0.1 0.4s0.2 0.2 0.4 0.3c0.1 0.1 0.3 0.1 0.5 0.2s0.4 0.1 0.6 0.2 0.4 0.1 0.6 0.2 0.4 0.2 0.5 0.3l0.4 0.4c0.1 0.2 0.1 0.4 0.1 0.6 0 0.3-0.1 0.5-0.2 0.8-0.1 0.2-0.3 0.4-0.5 0.6s-0.4 0.3-0.7 0.4-0.6 0.2-1 0.2-0.8-0.1-1.2-0.2c-0.3-0.1-0.6-0.3-0.9-0.5l0.3-0.4c0-0.1 0.1-0.1 0.1-0.1h0.2c0.1 0 0.2 0 0.2 0.1s0.2 0.1 0.3 0.2 0.3 0.1 0.4 0.2c0.2 0.1 0.4 0.1 0.6 0.1s0.4 0 0.5-0.1 0.3-0.1 0.4-0.2 0.2-0.2 0.2-0.3 0.1-0.2 0.1-0.4 0-0.3-0.1-0.4-0.2-0.2-0.4-0.3c0-0.3-0.2-0.4-0.4-0.4-0.2-0.1-0.4-0.1-0.6-0.2s-0.4-0.1-0.6-0.2-0.4-0.2-0.5-0.3-0.3-0.3-0.4-0.5-0.1-0.4-0.1-0.7c0-0.2 0-0.5 0.1-0.7s0.2-0.4 0.4-0.6 0.4-0.3 0.7-0.4 0.6-0.1 0.9-0.1c0.4 0 0.8 0.1 1.1 0.2s0.6 0.3 0.8 0.5l-0.1 0.5z" class="st0"/><path id="XMLID_51_" d="m268.1 9.8c0-0.2 0.1-0.4 0.2-0.5s0.3-0.2 0.5-0.2c0.1 0 0.2 0 0.3 0.1 0.1 0 0.2 0.1 0.2 0.2 0.1 0.1 0.1 0.2 0.1 0.3v0.3c0 0.2 0 0.4-0.1 0.6s-0.1 0.4-0.2 0.6-0.2 0.4-0.4 0.6c-0.1 0.2-0.3 0.4-0.5 0.5l-0.2-0.2-0.1-0.1v-0.1c0-0.1 0-0.1 0.1-0.2l0.2-0.2c0.1-0.1 0.1-0.2 0.2-0.3s0.1-0.2 0.2-0.3 0.1-0.2 0.1-0.4h-0.1c-0.1 0-0.2 0-0.3-0.1-0.1 0-0.2-0.1-0.2-0.2-0.1-0.1-0.1-0.2-0.1-0.2 0.1 0 0.1-0.1 0.1-0.2z" class="st0"/><path id="XMLID_53_" d="m87.6 17c0 0.1 0 0.2-0.1 0.3 0 0.1-0.1 0.2-0.2 0.2-0.1 0.1-0.2 0.1-0.3 0.2s-0.2 0.1-0.3 0.1-0.2 0-0.3-0.1c-0.1 0-0.2-0.1-0.2-0.2-0.1-0.1-0.1-0.2-0.2-0.2 0-0.1-0.1-0.2-0.1-0.3s0-0.2 0.1-0.3c0-0.1 0.1-0.2 0.2-0.3s0.2-0.1 0.2-0.2c0.1 0 0.2-0.1 0.3-0.1s0.2 0 0.3 0.1 0.2 0.1 0.3 0.2 0.1 0.2 0.2 0.3c0 0.1 0.1 0.2 0.1 0.3zm-0.3 1.9v6.1h-1.1v-6.1h1.1z" class="st0"/><path id="XMLID_56_" d="m89 24.9v-6.1h0.7c0.2 0 0.3 0.1 0.3 0.2l0.1 0.6c0.3-0.3 0.6-0.5 0.9-0.7s0.7-0.3 1.1-0.3c0.3 0 0.6 0.1 0.9 0.2s0.5 0.3 0.6 0.5 0.3 0.4 0.4 0.7 0.1 0.6 0.1 0.9v3.9h-1.1v-3.9c0-0.4-0.1-0.8-0.3-1s-0.5-0.4-0.9-0.4c-0.3 0-0.6 0.1-0.9 0.2s-0.5 0.3-0.7 0.6v4.5h-1.2z" class="st0"/><path id="XMLID_58_" d="m99.3 19.9c0 0.1-0.1 0.1-0.2 0.1h-0.2c-0.1 0-0.2-0.1-0.3-0.1-0.1-0.1-0.2-0.1-0.4-0.1s-0.3-0.1-0.5-0.1-0.3 0-0.5 0.1c-0.1 0-0.3 0.1-0.4 0.2s-0.2 0.2-0.2 0.3c-0.1 0.1-0.1 0.2-0.1 0.3 0 0.2 0 0.3 0.1 0.4s0.2 0.2 0.4 0.3c0.1 0.1 0.3 0.1 0.5 0.2s0.4 0.1 0.6 0.2 0.4 0.1 0.6 0.2 0.4 0.2 0.5 0.3l0.4 0.4c0.1 0.2 0.1 0.4 0.1 0.6 0 0.3-0.1 0.5-0.2 0.8-0.1 0.2-0.3 0.4-0.5 0.6s-0.4 0.3-0.7 0.4-0.6 0.2-1 0.2-0.8-0.1-1.2-0.2-0.6-0.3-0.9-0.5l0.3-0.4c0-0.1 0.1-0.1 0.1-0.1h0.2c0.1 0 0.2 0 0.2 0.1 0.1 0.1 0.2 0.1 0.3 0.2s0.3 0.1 0.4 0.2c0.2 0.1 0.4 0.1 0.6 0.1s0.4 0 0.5-0.1 0.3-0.1 0.4-0.2 0.2-0.2 0.2-0.3 0.1-0.2 0.1-0.4 0-0.3-0.1-0.4-0.2-0.2-0.4-0.3c-0.1-0.1-0.3-0.1-0.5-0.2s-0.4-0.1-0.6-0.2-0.4-0.1-0.6-0.2-0.4-0.2-0.5-0.3-0.3-0.3-0.4-0.5-0.1-0.4-0.1-0.7c0-0.2 0-0.5 0.1-0.7s0.2-0.4 0.4-0.6 0.4-0.3 0.7-0.4 0.6-0.1 0.9-0.1c0.4 0 0.8 0.1 1.1 0.2s0.6 0.3 0.8 0.5v0.2z" class="st0"/><path id="XMLID_60_" d="m102.9 25c-0.5 0-0.9-0.1-1.1-0.4-0.3-0.3-0.4-0.7-0.4-1.2v-3.7h-0.7c-0.1 0-0.1 0-0.2-0.1s-0.1-0.1-0.1-0.2v-0.5l1-0.1 0.3-1.8c0-0.1 0-0.1 0.1-0.2 0 0 0.1-0.1 0.2-0.1h0.6v2.3h1.7v0.8h-1.7v3.6c0 0.2 0.1 0.4 0.2 0.5s0.3 0.2 0.5 0.2h0.3c0.1 0 0.1-0.1 0.2-0.1s0.1-0.1 0.1-0.1h0.1 0.1l0.1 0.1 0.3 0.5c-0.2 0.2-0.4 0.3-0.7 0.4-0.4 0.1-0.7 0.1-0.9 0.1z" class="st0"/><path id="XMLID_62_" d="m107.8 18.8c0.4 0 0.7 0.1 1 0.2s0.6 0.3 0.8 0.5 0.4 0.5 0.5 0.9c0.1 0.3 0.2 0.7 0.2 1.2 0 0.2 0 0.3-0.1 0.4 0 0.1-0.1 0.1-0.2 0.1h-4c0 0.4 0.1 0.7 0.2 1s0.2 0.5 0.4 0.7 0.4 0.3 0.6 0.4 0.5 0.1 0.8 0.1 0.5 0 0.7-0.1 0.4-0.1 0.5-0.2 0.3-0.1 0.4-0.2 0.2-0.1 0.3-0.1 0.2 0 0.2 0.1l0.3 0.4c-0.1 0.2-0.3 0.3-0.5 0.4l-0.6 0.3c-0.2 0.1-0.4 0.1-0.7 0.2-0.2 0-0.4 0.1-0.7 0.1-0.4 0-0.8-0.1-1.2-0.2s-0.7-0.4-0.9-0.6c-0.3-0.3-0.5-0.6-0.6-1s-0.2-0.9-0.2-1.4c0-0.4 0.1-0.8 0.2-1.2s0.3-0.7 0.6-1 0.5-0.5 0.9-0.6c0.3-0.4 0.7-0.4 1.1-0.4zm0 0.8c-0.5 0-0.9 0.1-1.2 0.4s-0.5 0.7-0.5 1.2h3.2c0-0.2 0-0.5-0.1-0.7s-0.2-0.4-0.3-0.5-0.3-0.3-0.5-0.3-0.3-0.1-0.6-0.1z" class="st0"/><path id="XMLID_65_" d="m115.5 24.9c-0.1 0-0.2 0-0.3-0.1-0.1 0-0.1-0.1-0.1-0.2l-0.1-0.5c-0.2 0.1-0.3 0.3-0.5 0.4s-0.3 0.2-0.5 0.3-0.3 0.1-0.5 0.2c-0.2 0-0.4 0.1-0.6 0.1s-0.5 0-0.7-0.1-0.4-0.2-0.5-0.3c-0.2-0.1-0.3-0.3-0.4-0.5s-0.1-0.4-0.1-0.7c0-0.2 0.1-0.5 0.2-0.7s0.3-0.4 0.6-0.6 0.7-0.3 1.2-0.4 1.1-0.2 1.7-0.2v-0.5c0-0.5-0.1-0.8-0.3-1s-0.5-0.4-0.9-0.4c-0.3 0-0.5 0-0.7 0.1s-0.3 0.1-0.5 0.2c-0.1 0.1-0.2 0.1-0.3 0.2s-0.2 0.1-0.3 0.1-0.1 0-0.2-0.1c-0.1 0-0.1-0.1-0.1-0.1l-0.2-0.4c0.3-0.3 0.7-0.6 1.1-0.7 0.4-0.2 0.8-0.2 1.3-0.2 0.3 0 0.7 0.1 0.9 0.2 0.3 0.1 0.5 0.3 0.7 0.5s0.3 0.4 0.4 0.7 0.1 0.6 0.1 0.9v3.9h-0.4zm-2.3-0.7c0.2 0 0.3 0 0.5-0.1 0.2 0 0.3-0.1 0.4-0.2s0.3-0.2 0.4-0.2 0.2-0.2 0.4-0.3v-1.2c-0.5 0-0.9 0.1-1.2 0.1-0.3 0.1-0.6 0.1-0.8 0.2s-0.4 0.2-0.5 0.3-0.1 0.3-0.1 0.4c0 0.2 0 0.3 0.1 0.4 0 0.1 0.1 0.2 0.2 0.3s0.2 0.1 0.3 0.2 0.2 0.1 0.3 0.1z" class="st0"/><path id="XMLID_68_" d="m122 24.9c-0.2 0-0.3-0.1-0.3-0.2l-0.1-0.7c-0.1 0.2-0.3 0.3-0.4 0.4s-0.3 0.2-0.5 0.3-0.3 0.2-0.5 0.2-0.4 0.1-0.6 0.1c-0.3 0-0.7-0.1-0.9-0.2s-0.5-0.3-0.7-0.6-0.4-0.6-0.5-1-0.2-0.8-0.2-1.3 0.1-0.9 0.2-1.3 0.3-0.7 0.5-1 0.5-0.5 0.8-0.7 0.7-0.2 1.1-0.2 0.7 0.1 0.9 0.2 0.5 0.3 0.7 0.5v-3.3h1.1v8.9h-0.6zm-2-0.8c0.3 0 0.6-0.1 0.9-0.2 0.3-0.2 0.5-0.4 0.7-0.7v-2.9c-0.2-0.3-0.4-0.4-0.6-0.5s-0.5-0.2-0.8-0.2c-0.5 0-1 0.2-1.3 0.6s-0.4 1-0.4 1.7c0 0.4 0 0.7 0.1 1s0.2 0.5 0.3 0.7 0.3 0.3 0.5 0.4c0.1 0.1 0.3 0.1 0.6 0.1z" class="st0"/><path id="XMLID_71_" d="m130 18.8c0.4 0 0.9 0.1 1.2 0.2s0.7 0.4 0.9 0.6 0.4 0.6 0.6 1c0.1 0.4 0.2 0.8 0.2 1.3s-0.1 0.9-0.2 1.3-0.3 0.7-0.6 1-0.6 0.5-0.9 0.6c-0.4 0.1-0.8 0.2-1.2 0.2s-0.9-0.1-1.2-0.2c-0.4-0.1-0.7-0.4-0.9-0.6-0.3-0.3-0.4-0.6-0.6-1-0.1-0.4-0.2-0.8-0.2-1.3s0.1-0.9 0.2-1.3 0.3-0.7 0.6-1 0.6-0.5 0.9-0.6c0.3-0.2 0.7-0.2 1.2-0.2zm0 5.3c0.6 0 1-0.2 1.3-0.6s0.4-0.9 0.4-1.7c0-0.7-0.1-1.3-0.4-1.7s-0.7-0.6-1.3-0.6-1 0.2-1.3 0.6-0.4 0.9-0.4 1.7c0 0.7 0.1 1.3 0.4 1.7s0.7 0.6 1.3 0.6z" class="st0"/><path id="XMLID_74_" d="m134.5 24.9v-5.1l-0.6-0.1c-0.1 0-0.2 0-0.2-0.1s-0.1-0.1-0.1-0.2v-0.4h1v-0.6c0-0.3 0-0.7 0.2-0.9 0.1-0.3 0.2-0.5 0.4-0.7s0.4-0.3 0.7-0.4 0.6-0.1 0.9-0.1h0.4c0.1 0 0.2 0 0.4 0.1v0.6 0.1s-0.1 0-0.1 0.1h-0.2-0.2c-0.2 0-0.4 0-0.5 0.1-0.1 0-0.3 0.1-0.4 0.2s-0.2 0.2-0.2 0.4c-0.1 0.2-0.1 0.4-0.1 0.6v0.5h1.7v0.8h-1.7v5.2h-1.4z" class="st0"/><path id="XMLID_76_" d="m145 24.9c-0.1 0-0.2 0-0.3-0.1-0.1 0-0.1-0.1-0.1-0.2l-0.1-0.5c-0.2 0.1-0.3 0.3-0.5 0.4s-0.3 0.2-0.5 0.3-0.3 0.1-0.5 0.2c-0.2 0-0.4 0.1-0.6 0.1s-0.5 0-0.7-0.1-0.4-0.2-0.5-0.3c-0.2-0.1-0.3-0.3-0.4-0.5s-0.1-0.4-0.1-0.7c0-0.2 0.1-0.5 0.2-0.7s0.3-0.4 0.6-0.6 0.7-0.3 1.2-0.4 1.1-0.2 1.8-0.2v-0.5c0-0.5-0.1-0.8-0.3-1s-0.5-0.4-0.9-0.4c-0.3 0-0.5 0-0.7 0.1s-0.3 0.1-0.5 0.2c-0.1 0.1-0.2 0.1-0.3 0.2s-0.2 0.1-0.3 0.1-0.1 0-0.2-0.1c-0.1 0-0.1-0.1-0.1-0.1l-0.2-0.4c0.3-0.3 0.7-0.6 1.1-0.7 0.4-0.2 0.8-0.2 1.3-0.2 0.3 0 0.6 0.1 0.9 0.2s0.5 0.3 0.7 0.5 0.3 0.4 0.4 0.7 0.1 0.6 0.1 0.9v3.9h-0.5zm-2.3-0.7c0.2 0 0.3 0 0.5-0.1 0.2 0 0.3-0.1 0.4-0.2s0.3-0.2 0.4-0.2 0.2-0.2 0.4-0.3v-1.2c-0.5 0-0.9 0.1-1.2 0.1-0.3 0.1-0.6 0.1-0.8 0.2s-0.4 0.2-0.5 0.3-0.1 0.3-0.1 0.4c0 0.2 0 0.3 0.1 0.4 0 0.1 0.1 0.2 0.2 0.3s0.2 0.1 0.3 0.2 0.2 0.1 0.3 0.1z" class="st0"/><path id="XMLID_79_" d="m151.5 24.9c-0.2 0-0.3-0.1-0.3-0.2l-0.1-0.7c-0.1 0.2-0.3 0.3-0.4 0.4s-0.3 0.2-0.5 0.3-0.3 0.2-0.5 0.2-0.4 0.1-0.6 0.1c-0.3 0-0.7-0.1-0.9-0.2-0.3-0.1-0.5-0.3-0.7-0.6s-0.4-0.6-0.5-1-0.2-0.8-0.2-1.3 0.1-0.9 0.2-1.3 0.3-0.7 0.5-1 0.5-0.5 0.8-0.7 0.7-0.2 1.1-0.2 0.7 0.1 0.9 0.2 0.5 0.3 0.7 0.5v-3.3h1.1v8.9h-0.6zm-2-0.8c0.3 0 0.6-0.1 0.9-0.2 0.3-0.2 0.5-0.4 0.7-0.7v-2.9c-0.2-0.3-0.4-0.4-0.6-0.5s-0.5-0.2-0.8-0.2c-0.5 0-1 0.2-1.3 0.6s-0.4 1-0.4 1.7c0 0.4 0 0.7 0.1 1s0.2 0.5 0.3 0.7 0.3 0.3 0.5 0.4 0.3 0.1 0.6 0.1z" class="st0"/><path id="XMLID_82_" d="m158.2 24.9c-0.2 0-0.3-0.1-0.3-0.2l-0.1-0.7c-0.1 0.2-0.3 0.3-0.4 0.4s-0.3 0.2-0.5 0.3-0.3 0.2-0.5 0.2-0.4 0.1-0.6 0.1c-0.3 0-0.7-0.1-0.9-0.2-0.3-0.1-0.5-0.3-0.7-0.6s-0.4-0.6-0.5-1-0.2-0.8-0.2-1.3 0.1-0.9 0.2-1.3 0.3-0.7 0.5-1 0.5-0.5 0.8-0.7 0.7-0.2 1.1-0.2 0.7 0.1 0.9 0.2c0.3 0.1 0.5 0.3 0.7 0.5v-3.3h1.1v8.9h-0.6zm-2-0.8c0.3 0 0.6-0.1 0.9-0.2 0.3-0.2 0.5-0.4 0.7-0.7v-2.9c-0.2-0.3-0.4-0.4-0.6-0.5s-0.5-0.2-0.8-0.2c-0.5 0-1 0.2-1.3 0.6s-0.4 1-0.4 1.7c0 0.4 0 0.7 0.1 1s0.2 0.5 0.3 0.7 0.3 0.3 0.5 0.4 0.4 0.1 0.6 0.1z" class="st0"/><path id="XMLID_85_" d="m162 17c0 0.1 0 0.2-0.1 0.3 0 0.1-0.1 0.2-0.2 0.2-0.1 0.1-0.2 0.1-0.3 0.2s-0.2 0.1-0.3 0.1-0.2 0-0.3-0.1-0.2-0.1-0.2-0.2c-0.1-0.1-0.1-0.2-0.2-0.2 0-0.1-0.1-0.2-0.1-0.3s0-0.2 0.1-0.3c0-0.1 0.1-0.2 0.2-0.3s0.2-0.1 0.2-0.2 0.2-0.1 0.3-0.1 0.2 0 0.3 0.1 0.2 0.1 0.3 0.2 0.1 0.2 0.2 0.3 0.1 0.2 0.1 0.3zm-0.2 1.9v6.1h-1.1v-6.1h1.1z" class="st0"/><path id="XMLID_88_" d="m163.5 24.9v-6.1h0.7c0.2 0 0.3 0.1 0.3 0.2l0.1 0.6c0.3-0.3 0.6-0.5 0.9-0.7s0.7-0.3 1.1-0.3c0.3 0 0.6 0.1 0.9 0.2s0.5 0.3 0.6 0.5 0.3 0.4 0.4 0.7 0.1 0.6 0.1 0.9v3.9h-1.1v-3.9c0-0.4-0.1-0.8-0.3-1s-0.5-0.4-0.9-0.4c-0.3 0-0.6 0.1-0.9 0.2s-0.5 0.3-0.7 0.6v4.5h-1.2z" class="st0"/><path id="XMLID_90_" d="m172.3 18.8c0.3 0 0.5 0 0.7 0.1s0.4 0.1 0.6 0.2h1.7v0.4c0 0.1-0.1 0.2-0.3 0.3l-0.7 0.1c0.1 0.3 0.2 0.5 0.2 0.8s-0.1 0.6-0.2 0.8-0.3 0.4-0.5 0.6-0.4 0.3-0.7 0.4-0.6 0.1-0.9 0.1-0.5 0-0.8-0.1c-0.3 0.2-0.4 0.3-0.4 0.5 0 0.1 0.1 0.2 0.2 0.3s0.3 0.1 0.5 0.2c0.2 0 0.4 0.1 0.7 0.1h0.8c0.3 0 0.5 0 0.8 0.1s0.5 0.1 0.7 0.2 0.3 0.2 0.5 0.4c0.1 0.2 0.2 0.4 0.2 0.7s-0.1 0.5-0.2 0.8c-0.1 0.2-0.3 0.5-0.6 0.7-0.2 0.2-0.5 0.3-0.9 0.5-0.4 0.1-0.8 0.2-1.2 0.2s-0.8 0-1.2-0.1-0.6-0.2-0.8-0.4c-0.2-0.1-0.4-0.3-0.5-0.5s-0.2-0.4-0.2-0.6c0-0.3 0.1-0.6 0.3-0.8s0.4-0.4 0.8-0.5c-0.2-0.1-0.3-0.2-0.4-0.3s-0.2-0.3-0.2-0.5v-0.3c0-0.1 0.1-0.2 0.1-0.3 0.1-0.1 0.1-0.2 0.2-0.3s0.2-0.2 0.3-0.2c-0.3-0.2-0.5-0.4-0.7-0.7s-0.3-0.6-0.3-1c0-0.3 0.1-0.6 0.2-0.8s0.3-0.4 0.5-0.6 0.5-0.3 0.7-0.4c0.4-0.1 0.7-0.1 1-0.1zm1.9 6.5c0-0.1 0-0.3-0.1-0.3s-0.2-0.2-0.3-0.2c-0.1-0.1-0.3-0.1-0.5-0.1h-0.6-0.6c-0.2 0-0.4 0-0.6-0.1-0.2 0.1-0.4 0.2-0.5 0.4s-0.2 0.3-0.2 0.5c0 0.1 0 0.3 0.1 0.4l0.3 0.3c0.1 0.1 0.3 0.1 0.5 0.2 0.2 0 0.5 0.1 0.8 0.1s0.5 0 0.8-0.1c0.2-0.1 0.4-0.1 0.6-0.2s0.3-0.2 0.3-0.3v-0.6zm-1.9-3.4c0.2 0 0.4 0 0.6-0.1s0.3-0.1 0.4-0.2 0.2-0.2 0.2-0.4c0.1-0.1 0.1-0.3 0.1-0.5 0-0.4-0.1-0.6-0.3-0.9s-0.5-0.3-1-0.3-0.7 0.1-1 0.3-0.3 0.5-0.3 0.9c0 0.2 0 0.3 0.1 0.5 0.1 0.1 0.1 0.3 0.2 0.4s0.2 0.2 0.4 0.2c0.2 0.1 0.4 0.1 0.6 0.1z" class="st0"/><path id="XMLID_94_" d="m179.5 24.9v-6.1h0.7c0.2 0 0.3 0.1 0.3 0.2l0.1 0.6c0.2-0.3 0.5-0.5 0.8-0.7s0.6-0.3 1-0.3 0.7 0.1 1 0.3 0.4 0.5 0.5 0.9l0.3-0.6c0.1-0.2 0.3-0.3 0.5-0.4s0.4-0.2 0.5-0.2c0.2 0 0.4-0.1 0.6-0.1 0.7 0 1.2 0.2 1.5 0.6 0.4 0.4 0.5 1 0.5 1.7v3.9h-1.1v-3.9c0-0.5-0.1-0.8-0.3-1s-0.5-0.4-0.9-0.4c-0.2 0-0.3 0-0.5 0.1s-0.3 0.1-0.4 0.3c-0.1 0.1-0.2 0.3-0.3 0.4-0.1 0.2-0.1 0.4-0.1 0.6v3.9h-1.1v-3.9c0-0.5-0.1-0.8-0.3-1.1-0.2-0.2-0.5-0.3-0.8-0.3s-0.5 0.1-0.7 0.2-0.4 0.3-0.6 0.6v4.5h-1.2z" class="st0"/><path id="XMLID_96_" d="m192 18.8c0.4 0 0.9 0.1 1.2 0.2s0.7 0.4 0.9 0.6 0.4 0.6 0.6 1c0.1 0.4 0.2 0.8 0.2 1.3s-0.1 0.9-0.2 1.3-0.3 0.7-0.6 1-0.6 0.5-0.9 0.6c-0.4 0.1-0.8 0.2-1.2 0.2s-0.9-0.1-1.2-0.2c-0.4-0.1-0.7-0.4-0.9-0.6-0.3-0.3-0.4-0.6-0.6-1-0.1-0.4-0.2-0.8-0.2-1.3s0.1-0.9 0.2-1.3 0.3-0.7 0.6-1 0.6-0.5 0.9-0.6c0.3-0.2 0.7-0.2 1.2-0.2zm0 5.3c0.6 0 1-0.2 1.3-0.6s0.4-0.9 0.4-1.7c0-0.7-0.1-1.3-0.4-1.7s-0.7-0.6-1.3-0.6-1 0.2-1.3 0.6-0.4 0.9-0.4 1.7c0 0.7 0.1 1.3 0.4 1.7s0.7 0.6 1.3 0.6z" class="st0"/><path id="XMLID_99_" d="m196.2 24.9v-6.1h0.7c0.1 0 0.2 0 0.3 0.1s0.1 0.1 0.1 0.2l0.1 0.9c0.2-0.4 0.4-0.7 0.7-1 0.3-0.2 0.6-0.3 1-0.3h0.4c0.1 0 0.2 0.1 0.3 0.1l-0.1 0.9c0 0.1-0.1 0.2-0.2 0.2h-0.2-0.4c-0.2 0-0.4 0-0.5 0.1s-0.3 0.1-0.4 0.2-0.2 0.2-0.3 0.4-0.2 0.3-0.2 0.5v3.8h-1.3z" class="st0"/><path id="XMLID_101_" d="m202.9 18.8c0.4 0 0.7 0.1 1 0.2s0.6 0.3 0.8 0.5 0.4 0.5 0.5 0.9c0.1 0.3 0.2 0.7 0.2 1.2 0 0.2 0 0.3-0.1 0.4 0 0.1-0.1 0.1-0.2 0.1h-4c0 0.4 0.1 0.7 0.2 1s0.2 0.5 0.4 0.7 0.4 0.3 0.6 0.4 0.5 0.1 0.8 0.1 0.5 0 0.7-0.1 0.4-0.1 0.5-0.2 0.3-0.1 0.4-0.2 0.2-0.1 0.3-0.1 0.2 0 0.2 0.1l0.3 0.4c-0.1 0.2-0.3 0.3-0.5 0.4l-0.6 0.3c-0.2 0.1-0.4 0.1-0.7 0.2-0.2 0-0.4 0.1-0.7 0.1-0.4 0-0.8-0.1-1.2-0.2s-0.7-0.4-0.9-0.6c-0.3-0.3-0.5-0.6-0.6-1s-0.2-0.9-0.2-1.4c0-0.4 0.1-0.8 0.2-1.2s0.3-0.7 0.6-1 0.5-0.5 0.9-0.6c0.2-0.4 0.6-0.4 1.1-0.4zm0 0.8c-0.5 0-0.9 0.1-1.2 0.4s-0.5 0.7-0.5 1.2h3.2c0-0.2 0-0.5-0.1-0.7s-0.2-0.4-0.3-0.5-0.3-0.3-0.5-0.3-0.4-0.1-0.6-0.1z" class="st0"/><path id="XMLID_104_" d="m209.7 27v-8.1h0.7c0.2 0 0.3 0.1 0.3 0.2l0.1 0.7c0.3-0.3 0.6-0.6 0.9-0.7s0.7-0.3 1.1-0.3c0.3 0 0.7 0.1 0.9 0.2 0.3 0.1 0.5 0.3 0.7 0.6s0.4 0.6 0.5 1 0.2 0.8 0.2 1.3-0.1 0.9-0.2 1.3-0.3 0.7-0.5 1-0.5 0.5-0.8 0.7-0.7 0.2-1.1 0.2-0.7-0.1-0.9-0.2c-0.3-0.1-0.5-0.3-0.7-0.5v2.6h-1.2zm2.8-7.3c-0.3 0-0.6 0.1-0.9 0.2-0.3 0.2-0.5 0.4-0.7 0.7v2.9c0.2 0.3 0.4 0.4 0.6 0.5s0.5 0.2 0.8 0.2c0.5 0 1-0.2 1.3-0.6s0.4-1 0.4-1.7c0-0.4 0-0.7-0.1-1s-0.2-0.5-0.3-0.7-0.3-0.3-0.5-0.4-0.4-0.1-0.6-0.1z" class="st0"/><path id="XMLID_107_" d="m219.1 18.8c0.4 0 0.9 0.1 1.2 0.2s0.7 0.4 0.9 0.6 0.4 0.6 0.6 1c0.1 0.4 0.2 0.8 0.2 1.3s-0.1 0.9-0.2 1.3-0.3 0.7-0.6 1-0.6 0.5-0.9 0.6c-0.4 0.1-0.8 0.2-1.2 0.2s-0.9-0.1-1.2-0.2c-0.4-0.1-0.7-0.4-0.9-0.6-0.3-0.3-0.4-0.6-0.6-1-0.1-0.4-0.2-0.8-0.2-1.3s0.1-0.9 0.2-1.3 0.3-0.7 0.6-1 0.6-0.5 0.9-0.6c0.3-0.2 0.7-0.2 1.2-0.2zm0 5.3c0.6 0 1-0.2 1.3-0.6s0.4-0.9 0.4-1.7c0-0.7-0.1-1.3-0.4-1.7s-0.7-0.6-1.3-0.6-1 0.2-1.3 0.6-0.4 0.9-0.4 1.7c0 0.7 0.1 1.3 0.4 1.7 0.2 0.4 0.7 0.6 1.3 0.6z" class="st0"/><path id="XMLID_110_" d="m224.7 17c0 0.1 0 0.2-0.1 0.3 0 0.1-0.1 0.2-0.2 0.2-0.1 0.1-0.2 0.1-0.3 0.2s-0.2 0.1-0.3 0.1-0.2 0-0.3-0.1c-0.1 0-0.2-0.1-0.2-0.2-0.1-0.1-0.1-0.2-0.2-0.2 0-0.1-0.1-0.2-0.1-0.3s0-0.2 0.1-0.3 0.1-0.2 0.2-0.3 0.2-0.1 0.2-0.2c0.1 0 0.2-0.1 0.3-0.1s0.2 0 0.3 0.1 0.2 0.1 0.3 0.2 0.1 0.2 0.2 0.3 0.1 0.2 0.1 0.3zm-0.2 1.9v6.1h-1.1v-6.1h1.1z" class="st0"/><path id="XMLID_113_" d="m226.2 24.9v-6.1h0.7c0.2 0 0.3 0.1 0.3 0.2l0.1 0.6c0.3-0.3 0.6-0.5 0.9-0.7s0.7-0.3 1.1-0.3c0.3 0 0.6 0.1 0.9 0.2s0.5 0.3 0.6 0.5 0.3 0.4 0.4 0.7 0.1 0.6 0.1 0.9v3.9h-1.1v-3.9c0-0.4-0.1-0.8-0.3-1s-0.5-0.4-0.9-0.4c-0.3 0-0.6 0.1-0.9 0.2s-0.5 0.3-0.7 0.6v4.5h-1.2z" class="st0"/><path id="XMLID_115_" d="m234.7 25c-0.5 0-0.9-0.1-1.1-0.4-0.3-0.3-0.4-0.7-0.4-1.2v-3.7h-0.7c-0.1 0-0.1 0-0.2-0.1s-0.1-0.1-0.1-0.2v-0.5l1-0.1 0.3-1.8c0-0.1 0-0.1 0.1-0.2 0 0 0.1-0.1 0.2-0.1h0.6v2.3h1.7v0.8h-1.7v3.6c0 0.2 0.1 0.4 0.2 0.5s0.3 0.2 0.5 0.2h0.3c0.1 0 0.1-0.1 0.2-0.1s0.1-0.1 0.1-0.1h0.1 0.1l0.1 0.1 0.3 0.5c-0.2 0.2-0.4 0.3-0.7 0.4s-0.6 0.1-0.9 0.1z" class="st0"/><path id="XMLID_117_" d="m240.7 19.9c-0.1 0.1-0.1 0.1-0.2 0.1s-0.1 0-0.2-0.1-0.2-0.1-0.3-0.1c-0.1-0.1-0.2-0.1-0.4-0.1s-0.3-0.1-0.5-0.1-0.3 0-0.5 0.1-0.3 0.1-0.4 0.2-0.2 0.2-0.2 0.3-0.1 0.2-0.1 0.3c0 0.2 0 0.3 0.1 0.4s0.2 0.2 0.4 0.3c0.1 0.1 0.3 0.1 0.5 0.2s0.4 0.1 0.6 0.2 0.4 0.1 0.6 0.2 0.4 0.2 0.5 0.3l0.4 0.4c0.1 0.2 0.1 0.4 0.1 0.6 0 0.3-0.1 0.5-0.2 0.8-0.1 0.2-0.3 0.4-0.5 0.6s-0.4 0.3-0.7 0.4-0.6 0.2-1 0.2-0.8-0.1-1.2-0.2c-0.3-0.1-0.6-0.3-0.9-0.5l0.3-0.4c0-0.1 0.1-0.1 0.1-0.1h0.2c0.1 0 0.2 0 0.2 0.1 0.1 0.1 0.2 0.1 0.3 0.2s0.3 0.1 0.4 0.2c0.2 0.1 0.4 0.1 0.6 0.1s0.4 0 0.5-0.1 0.3-0.1 0.4-0.2 0.2-0.2 0.2-0.3 0.1-0.2 0.1-0.4 0-0.3-0.1-0.4-0.2-0.2-0.4-0.3c-0.1-0.1-0.3-0.1-0.5-0.2s-0.4-0.1-0.6-0.2-0.4-0.1-0.6-0.2-0.4-0.2-0.5-0.3-0.3-0.3-0.4-0.5-0.1-0.4-0.1-0.7c0-0.2 0-0.5 0.1-0.7s0.2-0.4 0.4-0.6 0.4-0.3 0.7-0.4 0.6-0.1 0.9-0.1c0.4 0 0.8 0.1 1.1 0.2s0.6 0.3 0.8 0.5v0.3z" class="st0"/><path id="XMLID_119_" d="m247.3 25c-0.5 0-0.9-0.1-1.1-0.4-0.3-0.3-0.4-0.7-0.4-1.2v-3.7h-0.7c-0.1 0-0.1 0-0.2-0.1s-0.1-0.1-0.1-0.2v-0.5l1-0.1 0.3-1.8c0-0.1 0-0.1 0.1-0.2 0 0 0.1-0.1 0.2-0.1h0.6v2.3h1.7v0.8h-1.7v3.6c0 0.2 0.1 0.4 0.2 0.5s0.3 0.2 0.5 0.2h0.3c0.1 0 0.1-0.1 0.2-0.1s0.1-0.1 0.1-0.1h0.1 0.1l0.1 0.1 0.3 0.5c-0.2 0.2-0.4 0.3-0.7 0.4s-0.6 0.1-0.9 0.1z" class="st0"/><path id="XMLID_121_" d="m252.3 18.8c0.4 0 0.9 0.1 1.2 0.2s0.7 0.4 0.9 0.6 0.4 0.6 0.6 1c0.1 0.4 0.2 0.8 0.2 1.3s-0.1 0.9-0.2 1.3-0.3 0.7-0.6 1-0.6 0.5-0.9 0.6c-0.4 0.1-0.8 0.2-1.2 0.2s-0.9-0.1-1.2-0.2c-0.4-0.1-0.7-0.4-0.9-0.6-0.3-0.3-0.4-0.6-0.6-1-0.1-0.4-0.2-0.8-0.2-1.3s0.1-0.9 0.2-1.3 0.3-0.7 0.6-1 0.6-0.5 0.9-0.6c0.4-0.2 0.8-0.2 1.2-0.2zm0 5.3c0.6 0 1-0.2 1.3-0.6s0.4-0.9 0.4-1.7c0-0.7-0.1-1.3-0.4-1.7s-0.7-0.6-1.3-0.6-1 0.2-1.3 0.6-0.4 0.9-0.4 1.7c0 0.7 0.1 1.3 0.4 1.7s0.7 0.6 1.3 0.6z" class="st0"/><path id="XMLID_124_" d="m261.2 26.7c0 0.1-0.1 0.2-0.1 0.2-0.1 0-0.1 0.1-0.3 0.1h-0.8l1.1-2.4-2.5-5.7h1c0.1 0 0.2 0 0.2 0.1 0.1 0 0.1 0.1 0.1 0.2l1.6 3.7c0.1 0.2 0.1 0.4 0.2 0.5 0-0.1 0.1-0.2 0.1-0.3s0.1-0.2 0.1-0.3l1.5-3.7c0-0.1 0.1-0.1 0.1-0.2 0.1 0 0.1-0.1 0.2-0.1h0.9l-3.4 7.9z" class="st0"/><path id="XMLID_126_" d="m267.9 18.8c0.4 0 0.9 0.1 1.2 0.2s0.7 0.4 0.9 0.6 0.4 0.6 0.6 1c0.1 0.4 0.2 0.8 0.2 1.3s-0.1 0.9-0.2 1.3-0.3 0.7-0.6 1-0.6 0.5-0.9 0.6c-0.4 0.1-0.8 0.2-1.2 0.2s-0.9-0.1-1.2-0.2c-0.4-0.1-0.7-0.4-0.9-0.6-0.3-0.3-0.4-0.6-0.6-1-0.1-0.4-0.2-0.8-0.2-1.3s0.1-0.9 0.2-1.3 0.3-0.7 0.6-1 0.6-0.5 0.9-0.6c0.4-0.2 0.8-0.2 1.2-0.2zm0 5.3c0.6 0 1-0.2 1.3-0.6s0.4-0.9 0.4-1.7c0-0.7-0.1-1.3-0.4-1.7s-0.7-0.6-1.3-0.6-1 0.2-1.3 0.6-0.4 0.9-0.4 1.7c0 0.7 0.1 1.3 0.4 1.7s0.7 0.6 1.3 0.6z" class="st0"/><path id="XMLID_129_" d="m273.2 18.9v3.9c0 0.4 0.1 0.8 0.3 1s0.5 0.4 0.9 0.4c0.3 0 0.6-0.1 0.9-0.2s0.5-0.3 0.7-0.6v-4.5h1.1v6.1h-0.7c-0.2 0-0.3-0.1-0.3-0.2l-0.1-0.6c-0.3 0.3-0.6 0.5-0.9 0.7s-0.7 0.3-1.1 0.3c-0.3 0-0.6-0.1-0.9-0.2s-0.5-0.3-0.6-0.5-0.3-0.4-0.4-0.7-0.1-0.6-0.1-0.9v-3.9h1.2z" class="st0"/><path id="XMLID_131_" d="m278.9 24.9v-6.1h0.7c0.1 0 0.2 0 0.3 0.1s0.1 0.1 0.1 0.2l0.1 0.9c0.2-0.4 0.4-0.7 0.7-1 0.3-0.2 0.6-0.3 1-0.3h0.4c0.1 0 0.2 0.1 0.3 0.1l-0.1 0.9c0 0.1-0.1 0.2-0.2 0.2h-0.2-0.4c-0.2 0-0.4 0-0.5 0.1s-0.3 0.1-0.4 0.2-0.2 0.2-0.3 0.4-0.2 0.3-0.2 0.5v3.8h-1.3z" class="st0"/><path id="XMLID_133_" d="m285.1 18.9h0.9c0.1 0 0.2 0 0.2 0.1 0.1 0 0.1 0.1 0.1 0.2l1.1 3.8c0 0.2 0.1 0.3 0.1 0.4s0.1 0.3 0.1 0.4c0-0.1 0.1-0.3 0.1-0.4s0.1-0.3 0.1-0.4l1.2-3.8c0-0.1 0.1-0.1 0.1-0.2 0.1 0 0.1-0.1 0.2-0.1h0.5c0.1 0 0.2 0 0.2 0.1s0.1 0.1 0.1 0.2l1.2 3.8c0 0.2 0.1 0.3 0.1 0.4s0.1 0.3 0.1 0.4c0-0.1 0.1-0.3 0.1-0.4s0.1-0.3 0.1-0.4l1.1-3.8c0-0.1 0.1-0.1 0.1-0.2s0.1-0.1 0.2-0.1h0.9l-2 6.1h-0.9c-0.1 0-0.2-0.1-0.2-0.2l-1.3-4c0-0.1-0.1-0.2-0.1-0.3s0-0.2-0.1-0.3c0 0.1 0 0.2-0.1 0.3 0 0.1 0 0.2-0.1 0.3l-1.3 4c0 0.1-0.1 0.2-0.3 0.2h-0.9l-1.6-6.1z" class="st0"/><path id="XMLID_135_" d="m297.7 18.8c0.4 0 0.9 0.1 1.2 0.2s0.7 0.4 0.9 0.6 0.4 0.6 0.6 1c0.1 0.4 0.2 0.8 0.2 1.3s-0.1 0.9-0.2 1.3-0.3 0.7-0.6 1-0.6 0.5-0.9 0.6c-0.4 0.1-0.8 0.2-1.2 0.2s-0.9-0.1-1.2-0.2c-0.4-0.1-0.7-0.4-0.9-0.6-0.3-0.3-0.4-0.6-0.6-1-0.1-0.4-0.2-0.8-0.2-1.3s0.1-0.9 0.2-1.3 0.3-0.7 0.6-1 0.6-0.5 0.9-0.6c0.4-0.2 0.8-0.2 1.2-0.2zm0 5.3c0.6 0 1-0.2 1.3-0.6s0.4-0.9 0.4-1.7c0-0.7-0.1-1.3-0.4-1.7s-0.7-0.6-1.3-0.6-1 0.2-1.3 0.6-0.4 0.9-0.4 1.7c0 0.7 0.1 1.3 0.4 1.7s0.8 0.6 1.3 0.6z" class="st0"/><path id="XMLID_138_" d="m302 24.9v-6.1h0.7c0.1 0 0.2 0 0.3 0.1s0.1 0.1 0.1 0.2l-0.1 0.9c0.2-0.4 0.4-0.7 0.7-1 0.3-0.2 0.6-0.3 1-0.3h0.4c0.1 0 0.2 0.1 0.3 0.1l-0.1 0.9c0 0.1-0.1 0.2-0.2 0.2h-0.2-0.4c-0.2 0-0.4 0-0.5 0.1s-0.3 0.1-0.4 0.2-0.2 0.2-0.3 0.4-0.2 0.3-0.2 0.5v3.8h-1.1z" class="st0"/><path id="XMLID_140_" d="m307.5 16.1v5.2h0.3 0.2c0.1 0 0.1-0.1 0.2-0.1l1.9-2 0.2-0.2c0.1 0 0.2-0.1 0.3-0.1h1l-2.2 2.4c-0.1 0.1-0.2 0.3-0.4 0.3 0.1 0 0.1 0.1 0.2 0.2l0.2 0.2 2.3 3h-1-0.2c-0.1 0-0.1-0.1-0.2-0.2l-1.9-2.5-0.2-0.2h-0.3-0.3v2.9h-1.1v-8.9h1z" class="st0"/><path id="XMLID_142_" d="m312.3 24.3c0-0.1 0-0.2 0.1-0.3s0.1-0.2 0.2-0.2l0.2-0.2c0.1 0 0.2-0.1 0.3-0.1s0.2 0 0.3 0.1 0.2 0.1 0.2 0.2 0.1 0.2 0.2 0.2 0.1 0.2 0.1 0.3 0 0.2-0.1 0.3c0 0.1-0.1 0.2-0.2 0.2-0.1 0.1-0.2 0.1-0.2 0.2-0.1 0-0.2 0.1-0.3 0.1s-0.2 0-0.3-0.1c-0.1 0-0.2-0.1-0.2-0.2-0.1-0.1-0.1-0.2-0.2-0.2-0.1-0.1-0.1-0.2-0.1-0.3z" class="st0"/></g></svg>
