<?xml version="1.0" encoding="UTF-8" standalone="no"?>
<!-- Generator: Adobe Illustrator 19.0.0, SVG Export Plug-In . SVG Version: 6.00 Build 0)  -->

<svg
   xmlns:dc="http://purl.org/dc/elements/1.1/"
   xmlns:cc="http://creativecommons.org/ns#"
   xmlns:rdf="http://www.w3.org/1999/02/22-rdf-syntax-ns#"
   xmlns:svg="http://www.w3.org/2000/svg"
   xmlns="http://www.w3.org/2000/svg"
   xmlns:sodipodi="http://sodipodi.sourceforge.net/DTD/sodipodi-0.dtd"
   xmlns:inkscape="http://www.inkscape.org/namespaces/inkscape"
   version="1.1"
   id="Layer_1"
   x="0px"
   y="0px"
   viewBox="0 0 1190.6 841.9"
   style="enable-background:new 0 0 1190.6 841.9;"
   xml:space="preserve"
   inkscape:version="0.91 r"
   sodipodi:docname="logo.svg"><metadata
     id="metadata24"><rdf:RDF><cc:Work
         rdf:about=""><dc:format>image/svg+xml</dc:format><dc:type
           rdf:resource="http://purl.org/dc/dcmitype/StillImage" /></cc:Work></rdf:RDF></metadata><defs
     id="defs22" /><sodipodi:namedview
     pagecolor="#ffffff"
     bordercolor="#666666"
     borderopacity="1"
     objecttolerance="10"
     gridtolerance="10"
     guidetolerance="10"
     inkscape:pageopacity="0"
     inkscape:pageshadow="2"
     inkscape:window-width="1920"
     inkscape:window-height="1052"
     id="namedview20"
     showgrid="false"
     inkscape:zoom="0.28031832"
     inkscape:cx="595.29999"
     inkscape:cy="420.95001"
     inkscape:window-x="0"
     inkscape:window-y="1"
     inkscape:window-maximized="1"
     inkscape:current-layer="XMLID_22_" /><style
     type="text/css"
     id="style3">
	.st0{fill:#5D5E5E;}
</style><g
     id="XMLID_18_"><g
       id="XMLID_16_"><g
         id="XMLID_22_"><path
           id="XMLID_40_"
           class="st0"
           d="M367.3,475.6l16.3-23.3c7.8,7.5,19.4,13.4,33.4,13.4c5.9,0,11.5-1.6,11.5-5.6     c0-9.9-57.8,0.2-57.8-40.7c0-17.6,14.6-34.3,43-34.3c16.9,0,32.2,4.8,44,14.5l-16.8,22.2c-9-6.8-20.7-10.3-30.5-10.3     c-6.2,0-7.9,2-7.9,4.7c0,9.8,57.7,1.4,57.7,39.9c0,22.8-16.9,36.1-44.8,36.1C393.4,492.1,378.3,485.5,367.3,475.6z"
           style="fill:#ffffff" /><path
           id="XMLID_38_"
           class="st0"
           d="M565.7,490.2v-43.8c0-4.5-2.3-8.4-8.5-8.4c-6.2,0-9.6,3.7-11.5,5.9v46.3h-28v-43.8     c0-4.5-2.2-8.4-8.5-8.4c-6.1,0-9.5,3.7-11.3,5.9v46.3h-28v-75.1h28v8.5c3.3-4.2,12.7-10.4,24.9-10.4c10.6,0,18.2,3.9,21.6,13.2     c4.4-6.5,14.1-13.2,26.3-13.2c13.8,0,23.2,7,23.2,22.5v54.4H565.7z"
           style="fill:#ffffff" /><path
           id="XMLID_35_"
           class="st0"
           d="M652.6,490.2V483c-4.2,5.3-13.4,9-22.7,9c-11.2,0-25.8-7.6-25.8-24.7     c0-18.6,14.6-23.9,25.8-23.9c9.8,0,18.6,3.1,22.7,8.2v-7.8c0-5.3-4.8-9.3-14-9.3c-7,0-14.9,2.8-20.8,7.3l-9.5-17.2     c10.1-8.1,24.1-11.3,35.4-11.3c18.6,0,36.8,6.5,36.8,31.5v45.4H652.6z M652.6,469.8v-4.2c-1.9-2.6-6.7-4-11-4     c-4.7,0-9.8,1.6-9.8,6.2c0,4.7,5.1,6.1,9.8,6.1C645.9,473.9,650.7,472.5,652.6,469.8z"
           style="fill:#ffffff" /><path
           id="XMLID_33_"
           class="st0"
           d="M694.7,490.2v-75.1h28l0,8.9c4.7-5.4,14.5-8.9,23-8.9v24.2c-2.3-0.4-3.7-0.5-6.4-0.5     c-5.9,0-13.5,4.2-16.6,7.9v43.3H694.7z"
           style="fill:#ffffff" /><path
           id="XMLID_31_"
           class="st0"
           d="M767.3,468.4v-29.1h-12.4v-24.2h12.4v-27.5h28v27.5h15.2v24.2h-15.2v21c0,3.9,2.5,7,6.2,7     c2.5,0,5-0.8,5.6-1.4l5,21.1c-3,2.6-9.5,5-19,5C776.5,492.1,767.3,484.1,767.3,468.4z"
           style="fill:#ffffff" /><path
           id="XMLID_28_"
           class="st0"
           d="M871.4,490.2v-7.9c-6.4,7.1-13.5,9.8-21.1,9.8c-18.2,0-33.1-13.7-33.1-39.5     c0-24.9,14.6-39.3,33.1-39.3c7.6,0,15.2,2.6,21.1,9.8v-35.5h28v102.7H871.4z M871.4,462.2v-19.3c-2.6-3.3-7.9-5-11.7-5     c-7.6,0-14,5.3-14,14.6c0,9.3,6.4,14.8,14,14.8C863.5,467.3,868.8,465.5,871.4,462.2z"
           style="fill:#ffffff" /><path
           id="XMLID_26_"
           class="st0"
           d="M953.3,452.6c0-23.8,18.3-39.3,42.1-39.3c17.1,0,27.7,7.8,31.9,14.1l-18,16.9     c-2.3-3.6-6.7-6.4-12.6-6.4c-7.9,0-14.8,5-14.8,14.6c0,9.6,6.8,14.8,14.8,14.8c5.9,0,10.3-3.1,12.6-6.5l18,17.1     c-4.2,6.2-14.8,14.1-31.9,14.1C971.7,492.1,953.3,476.5,953.3,452.6z"
           style="fill:#ffffff" /><path
           id="XMLID_23_"
           class="st0"
           d="M1031.3,452.6c0-21.8,16.6-39.3,40.9-39.3c22.1,0,39,15.9,39,42.3v5.7h-51     c1.6,4.8,7,9.5,16.2,9.5c4.2,0,13.5-2,17.2-5.3l11.5,17.2c-7.5,6.4-20.8,9.3-32,9.3C1049.7,492.1,1031.3,477.3,1031.3,452.6z      M1072.2,434.6c-8.5,0-11.3,5.6-12.3,9h24.7C1083.9,440.3,1081.2,434.6,1072.2,434.6z"
           style="fill:#ffffff" /></g><g
         id="XMLID_17_"
         style="fill:#ffffff"><rect
           id="XMLID_21_"
           x="914.9"
           y="415.1"
           class="st0"
           width="28"
           height="75.1"
           style="fill:#ffffff" /><path
           id="XMLID_19_"
           class="st0"
           d="M915.7,387.6c-1.5,2.4-2.5,4.3-2.5,7.4c0,8.7,7,15.7,15.7,15.7c8.7,0,15.7-7,15.7-15.7     c0-3.1-0.9-5-2.5-7.4H915.7z"
           style="fill:#ffffff" /></g></g><path
       id="XMLID_15_"
       class="st0"
       d="M267.5,382.5L267.5,382.5c-1.9-1.1-4.2-1.1-6.1,0l-82.4,48.2l-16.1-9.1l74.8-43.8   c2.9-1.7,3.8-5.4,2.2-8.3c-0.8-1.4-2.1-2.4-3.7-2.8c-1.6-0.4-3.2-0.2-4.6,0.6l-80.8,47.3l-16.8-9.5l76.5-44.8   c2.9-1.7,3.8-5.4,2.2-8.3c-1.7-2.9-5.4-3.8-8.3-2.2l-82.6,48.4l-16.1-9.1l75-43.9c2.9-1.7,3.8-5.4,2.2-8.3   c-1.7-2.9-5.4-3.8-8.3-2.2l-83.5,48.7c-0.4,0.3-0.8,0.6-1.2,0.9c-0.7,0.5-1.2,1.1-1.6,1.8c-1.6,2.9-0.6,6.6,2.3,8.2l82,46.5v18.7   l-76.1-43.1c-2.9-1.6-6.6-0.6-8.2,2.3c-1.6,2.9-0.6,6.6,2.3,8.2l82,46.5v18.7l-76.1-43.1c-2.9-1.6-6.6-0.6-8.2,2.3   c-1.6,2.9-0.6,6.6,2.3,8.2l82,46.5v18.7l-76.1-43.1c-2.9-1.6-6.6-0.6-8.2,2.3c-1.6,2.9-0.6,6.6,2.3,8.2l84.2,47.7   c0.9,0.5,1.9,0.8,3,0.8c0.3,0,0.6,0,1-0.1c3.3,0,6-2.7,6-6v-93.1l16.7-9.8v87.9c0,3.3,2.7,6,6,6c3.3,0,6-2.7,6-6v-95l17.7-10.4   v89.6c0,3.3,2.7,6,6,6c3.3,0,6-2.7,6-6v-96.7l15.1-8.9l0,90.3c0,3.3,2.7,6,6,6c3.3,0,6-2.7,6-6l0-100.8   C270.6,385.6,269.4,383.6,267.5,382.5z"
       style="fill:#ffffff" /></g></svg>