<?xml version="1.0" encoding="UTF-8" standalone="no"?>
<svg
   xmlns:dc="http://purl.org/dc/elements/1.1/"
   xmlns:cc="http://creativecommons.org/ns#"
   xmlns:rdf="http://www.w3.org/1999/02/22-rdf-syntax-ns#"
   xmlns:svg="http://www.w3.org/2000/svg"
   xmlns="http://www.w3.org/2000/svg"
   xmlns:sodipodi="http://sodipodi.sourceforge.net/DTD/sodipodi-0.dtd"
   xmlns:inkscape="http://www.inkscape.org/namespaces/inkscape"
   id="Layer_1"
   xml:space="preserve"
   viewBox="0 0 1141.0246 384.28627"
   height="384.29"
   width="1141"
   version="1.1"
   y="0px"
   x="0px"
   inkscape:version="0.91 r"
   sodipodi:docname="logo_clicks.svg"><metadata
     id="metadata83"><rdf:RDF><cc:Work
         rdf:about=""><dc:format>image/svg+xml</dc:format><dc:type
           rdf:resource="http://purl.org/dc/dcmitype/StillImage" /></cc:Work></rdf:RDF></metadata><defs
     id="defs81" /><sodipodi:namedview
     pagecolor="#ffffff"
     bordercolor="#666666"
     borderopacity="1"
     objecttolerance="10"
     gridtolerance="10"
     guidetolerance="10"
     inkscape:pageopacity="0"
     inkscape:pageshadow="2"
     inkscape:window-width="1920"
     inkscape:window-height="1052"
     id="namedview79"
     showgrid="false"
     inkscape:zoom="0.33041192"
     inkscape:cx="158.89257"
     inkscape:cy="192.145"
     inkscape:window-x="0"
     inkscape:window-y="1"
     inkscape:window-maximized="1"
     inkscape:current-layer="Layer_1" /><style
     id="style3"
     type="text/css">
	.st0{fill:#5D5E5E;}
</style><g
     id="XMLID_18_"
     fill="#fff"
     transform="translate(-28.858 -333.91)"
     style="fill:#ffffff"><g
       id="XMLID_16_"
       transform="matrix(.78220 0 0 .78220 154.3 128.52)"
       style="fill:#ffffff"><g
         id="XMLID_22_"
         fill="#fff"
         style="fill:#ffffff"><g
           id="XMLID_3_"
           fill="#fff"
           transform="matrix(6.398 0 0 6.398 -709.96 579.85)"
           style="fill:#ffffff"><path
             id="XMLID_4_"
             class="st0"
             d="m139 1.9v1h-4.1v2.9h3.5v1h-3.5v3.7h-1.2v-8.6h5.3z"
             style="fill:#ffffff" /><path
             id="XMLID_6_"
             class="st0"
             d="m142.3 4.4c0.4 0 0.9 0.1 1.2 0.2 0.4 0.1 0.7 0.4 0.9 0.6s0.4 0.6 0.6 1c0.1 0.4 0.2 0.8 0.2 1.3s-0.1 0.9-0.2 1.3-0.3 0.7-0.6 1-0.6 0.5-0.9 0.6c-0.4 0.1-0.8 0.2-1.2 0.2s-0.9-0.1-1.2-0.2c-0.4-0.1-0.7-0.4-0.9-0.6-0.3-0.3-0.4-0.6-0.6-1-0.1-0.4-0.2-0.8-0.2-1.3s0.1-0.9 0.2-1.3 0.3-0.7 0.6-1 0.6-0.5 0.9-0.6c0.4-0.2 0.8-0.2 1.2-0.2zm0 5.3c0.6 0 1-0.2 1.3-0.6s0.4-0.9 0.4-1.7c0-0.7-0.1-1.3-0.4-1.7s-0.7-0.6-1.3-0.6-1 0.2-1.3 0.6-0.4 0.9-0.4 1.7c0 0.7 0.1 1.3 0.4 1.7s0.7 0.6 1.3 0.6z"
             style="fill:#ffffff" /><path
             id="XMLID_9_"
             class="st0"
             d="m150.8 5.6-0.1 0.1h-0.1c-0.1 0-0.1 0-0.2-0.1s-0.2-0.1-0.3-0.2-0.2-0.1-0.4-0.2c-0.2 0-0.3-0.1-0.6-0.1s-0.6 0.1-0.8 0.2-0.4 0.3-0.6 0.4c-0.1 0.2-0.3 0.4-0.3 0.7-0.1 0.3-0.1 0.6-0.1 0.9 0 0.4 0 0.7 0.1 1s0.2 0.5 0.3 0.7 0.3 0.3 0.5 0.4 0.5 0.2 0.7 0.2c0.3 0 0.5 0 0.6-0.1 0.2-0.1 0.3-0.1 0.4-0.2s0.2-0.1 0.3-0.2 0.1-0.1 0.2-0.1 0.2 0 0.2 0.1l0.3 0.4c-0.1 0.2-0.3 0.3-0.5 0.4l-0.6 0.3c-0.2 0.1-0.4 0.1-0.6 0.2-0.2 0-0.4 0.1-0.6 0.1-0.4 0-0.7-0.1-1.1-0.2s-0.6-0.3-0.9-0.6-0.4-0.6-0.6-1c-0.1-0.4-0.2-0.8-0.2-1.3s0.1-0.9 0.2-1.3 0.3-0.7 0.6-1c0.2-0.3 0.5-0.5 0.9-0.7s0.8-0.2 1.2-0.2 0.8 0.1 1.1 0.2 0.6 0.3 0.9 0.6l0.1 0.6z"
             style="fill:#ffffff" /><path
             id="XMLID_11_"
             class="st0"
             d="m153.4 4.5v3.9c0 0.4 0.1 0.8 0.3 1s0.5 0.4 0.9 0.4c0.3 0 0.6-0.1 0.9-0.2s0.5-0.3 0.7-0.6v-4.5h1.1v6.1h-0.7c-0.2 0-0.3-0.1-0.3-0.2l-0.1-0.6c-0.3 0.3-0.6 0.5-0.9 0.7s-0.7 0.3-1.1 0.3c-0.3 0-0.6-0.1-0.9-0.2s-0.5-0.3-0.6-0.5-0.3-0.4-0.4-0.7-0.1-0.6-0.1-0.9v-4h1.2z"
             style="fill:#ffffff" /><path
             id="XMLID_13_"
             class="st0"
             d="m162.5 5.5c-0.1 0.1-0.1 0.1-0.2 0.1s-0.1 0-0.2-0.1-0.2-0.1-0.3-0.1c-0.1-0.1-0.2-0.1-0.4-0.1s-0.3-0.1-0.5-0.1-0.3 0-0.5 0.1-0.3 0.1-0.4 0.2-0.2 0.2-0.2 0.3-0.1 0.2-0.1 0.3c0 0.2 0 0.3 0.1 0.4s0.2 0.2 0.4 0.3c0.1 0.1 0.3 0.1 0.5 0.2s0.4 0.1 0.6 0.2 0.4 0.1 0.6 0.2 0.4 0.2 0.5 0.3l0.4 0.4c0.1 0.2 0.1 0.4 0.1 0.6 0 0.3-0.1 0.5-0.2 0.8-0.1 0.2-0.3 0.4-0.4 0.6-0.2 0.2-0.4 0.3-0.7 0.4s-0.6 0.2-1 0.2-0.8-0.1-1.2-0.2c-0.3-0.1-0.6-0.3-0.9-0.5l0.3-0.4c0-0.1 0.1-0.1 0.1-0.1h0.2c0.1 0 0.2 0 0.2 0.1s0.2 0.1 0.3 0.2 0.3 0.1 0.4 0.2c0.2 0.1 0.4 0.1 0.6 0.1s0.4 0 0.5-0.1c0.2-0.1 0.3-0.1 0.4-0.2s0.2-0.2 0.2-0.3 0.1-0.2 0.1-0.4 0-0.3-0.1-0.4-0.2-0.2-0.4-0.3-0.3-0.4-0.5-0.4c-0.2-0.1-0.4-0.1-0.6-0.2s-0.4-0.1-0.6-0.2-0.4-0.2-0.5-0.3-0.3-0.3-0.4-0.5-0.1-0.4-0.1-0.7c0-0.2 0-0.5 0.1-0.7s0.2-0.4 0.4-0.6 0.4-0.3 0.7-0.4 0.6-0.1 0.9-0.1c0.4 0 0.8 0.1 1.1 0.2s0.6 0.3 0.8 0.5l-0.1 0.5z"
             style="fill:#ffffff" /><path
             id="XMLID_15_-4"
             class="st0"
             d="m169.8 4.4c0.4 0 0.9 0.1 1.2 0.2s0.7 0.4 0.9 0.6 0.4 0.6 0.6 1c0.1 0.4 0.2 0.8 0.2 1.3s-0.1 0.9-0.2 1.3-0.3 0.7-0.6 1-0.6 0.5-0.9 0.6c-0.4 0.1-0.8 0.2-1.2 0.2s-0.9-0.1-1.2-0.2c-0.4-0.1-0.7-0.4-0.9-0.6-0.3-0.3-0.4-0.6-0.6-1-0.1-0.4-0.2-0.8-0.2-1.3s0.1-0.9 0.2-1.3 0.3-0.7 0.6-1 0.6-0.5 0.9-0.6 0.8-0.2 1.2-0.2zm0 5.3c0.6 0 1-0.2 1.3-0.6s0.4-0.9 0.4-1.7c0-0.7-0.1-1.3-0.4-1.7s-0.7-0.6-1.3-0.6-1 0.2-1.3 0.6-0.5 1.1-0.5 1.8 0.1 1.3 0.4 1.7 0.8 0.5 1.4 0.5z"
             style="fill:#ffffff" /><path
             id="XMLID_18_-0"
             class="st0"
             d="m174 10.5v-6h0.7c0.2 0 0.3 0.1 0.3 0.2l0.1 0.6c0.3-0.3 0.6-0.5 0.9-0.7s0.7-0.3 1.1-0.3c0.3 0 0.6 0.1 0.9 0.2s0.5 0.3 0.6 0.5 0.3 0.4 0.4 0.7 0.1 0.6 0.1 0.9v3.9h-1.1v-3.8c0-0.4-0.1-0.8-0.3-1s-0.5-0.4-0.9-0.4c-0.3 0-0.6 0.1-0.9 0.2s-0.5 0.3-0.7 0.6v4.5h-1.2z"
             style="fill:#ffffff" /><path
             id="XMLID_20_"
             class="st0"
             d="m185.7 10.6c-0.5 0-0.9-0.1-1.1-0.4-0.3-0.3-0.4-0.7-0.4-1.2v-3.6h-0.7c-0.1 0-0.1 0-0.2-0.1s-0.1-0.1-0.1-0.2v-0.4l1-0.1 0.3-1.8c0-0.1 0-0.1 0.1-0.2 0 0 0.1-0.1 0.2-0.1h0.6v2.1h1.7v0.8h-1.7v3.6c0 0.2 0.1 0.4 0.2 0.5s0.3 0.2 0.5 0.2h0.3c0.1 0 0.1-0.1 0.2-0.1s0.1-0.1 0.1-0.1h0.1 0.1l0.1 0.1 0.3 0.5c-0.2 0.2-0.4 0.3-0.7 0.4-0.4 0.1-0.6 0.1-0.9 0.1z"
             style="fill:#ffffff" /><path
             id="XMLID_22_-5"
             class="st0"
             d="m188.1 10.5v-8.8h1.1v3.5c0.3-0.3 0.5-0.5 0.9-0.6 0.3-0.2 0.7-0.2 1.1-0.2 0.3 0 0.6 0.1 0.9 0.2s0.5 0.3 0.6 0.5 0.3 0.4 0.4 0.7 0.1 0.6 0.1 0.9v3.9h-1.1v-3.9c0-0.4-0.1-0.8-0.3-1s-0.5-0.4-0.9-0.4c-0.3 0-0.6 0.1-0.9 0.2s-0.5 0.3-0.7 0.6v4.5h-1.2z"
             style="fill:#ffffff" /><path
             id="XMLID_24_"
             class="st0"
             d="m197.3 4.4c0.4 0 0.7 0.1 1 0.2s0.6 0.3 0.8 0.5 0.4 0.5 0.5 0.9c0.1 0.3 0.2 0.7 0.2 1.2 0 0.2 0 0.3-0.1 0.4s-0.1 0.1-0.2 0.1h-4c0 0.4 0.1 0.7 0.2 1s0.2 0.5 0.4 0.7 0.4 0.3 0.6 0.4 0.5 0.1 0.8 0.1 0.5 0 0.7-0.1 0.4-0.1 0.5-0.2 0.3-0.1 0.4-0.2 0.2-0.1 0.3-0.1 0.2 0 0.2 0.1l0.3 0.4c-0.1 0.2-0.3 0.3-0.5 0.4l-0.6 0.3c-0.2 0.1-0.4 0.1-0.7 0.2-0.2 0-0.4 0.1-0.7 0.1-0.4 0-0.8-0.1-1.2-0.2s-0.7-0.4-0.9-0.6c-0.3-0.3-0.5-0.6-0.6-1s-0.2-0.9-0.2-1.4c0-0.4 0.1-0.8 0.2-1.2s0.3-0.7 0.6-1 0.5-0.5 0.9-0.6c0.3-0.4 0.7-0.4 1.1-0.4zm0.1 0.8c-0.5 0-0.9 0.1-1.2 0.4s-0.5 0.7-0.5 1.2h3.2c0-0.2 0-0.5-0.1-0.7s-0.2-0.4-0.3-0.5-0.3-0.3-0.5-0.3-0.4-0.1-0.6-0.1z"
             style="fill:#ffffff" /><path
             id="XMLID_27_"
             class="st0"
             d="m208.5 5.6-0.1 0.1h-0.1c-0.1 0-0.1 0-0.2-0.1s-0.2-0.1-0.3-0.2-0.2-0.1-0.4-0.2c-0.2 0-0.3-0.1-0.6-0.1s-0.6 0.1-0.8 0.2-0.4 0.3-0.6 0.4c-0.1 0.2-0.3 0.4-0.3 0.7-0.1 0.3-0.1 0.6-0.1 0.9 0 0.4 0 0.7 0.1 1s0.2 0.5 0.3 0.7c0.2 0.2 0.3 0.3 0.5 0.4s0.5 0.2 0.7 0.2c0.3 0 0.5 0 0.6-0.1s0.3-0.1 0.4-0.2 0.2-0.1 0.3-0.2 0.1-0.1 0.2-0.1 0.2 0 0.2 0.1l0.3 0.4c-0.1 0.2-0.3 0.3-0.5 0.4l-0.6 0.3c-0.2 0.1-0.4 0.1-0.6 0.2-0.2 0-0.4 0.1-0.6 0.1-0.4 0-0.7-0.1-1.1-0.2s-0.6-0.3-0.9-0.6-0.4-0.6-0.6-1c-0.1-0.4-0.2-0.8-0.2-1.3s0.1-0.9 0.2-1.3 0.3-0.7 0.6-1c0.2-0.3 0.5-0.5 0.9-0.7s0.8-0.2 1.2-0.2 0.8 0.1 1.1 0.2 0.6 0.3 0.9 0.6l0.1 0.6z"
             style="fill:#ffffff" /><path
             id="XMLID_29_"
             class="st0"
             d="m212.4 4.4c0.4 0 0.9 0.1 1.2 0.2s0.7 0.4 0.9 0.6 0.4 0.6 0.6 1c0.1 0.4 0.2 0.8 0.2 1.3s-0.1 0.9-0.2 1.3-0.3 0.7-0.6 1-0.6 0.5-0.9 0.6c-0.4 0.1-0.8 0.2-1.2 0.2s-0.9-0.1-1.2-0.2c-0.4-0.1-0.7-0.4-0.9-0.6-0.3-0.3-0.4-0.6-0.6-1-0.1-0.4-0.2-0.8-0.2-1.3s0.1-0.9 0.2-1.3 0.3-0.7 0.6-1 0.6-0.5 0.9-0.6c0.4-0.2 0.8-0.2 1.2-0.2zm0 5.3c0.6 0 1-0.2 1.3-0.6s0.4-0.9 0.4-1.7c0-0.7-0.1-1.3-0.4-1.7s-0.7-0.6-1.3-0.6-1 0.2-1.3 0.6-0.4 0.9-0.4 1.7c0 0.7 0.1 1.3 0.4 1.7s0.7 0.6 1.3 0.6z"
             style="fill:#ffffff" /><path
             id="XMLID_32_"
             class="st0"
             d="m216.7 10.5v-6h0.7c0.2 0 0.3 0.1 0.3 0.2l0.1 0.6c0.3-0.3 0.6-0.5 0.9-0.7s0.7-0.3 1.1-0.3c0.3 0 0.6 0.1 0.9 0.2s0.5 0.3 0.6 0.5 0.3 0.4 0.4 0.7 0.1 0.6 0.1 0.9v3.9h-1.1v-3.8c0-0.4-0.1-0.8-0.3-1s-0.5-0.4-0.9-0.4c-0.3 0-0.6 0.1-0.9 0.2s-0.5 0.3-0.7 0.6v4.5h-1.2z"
             style="fill:#ffffff" /><path
             id="XMLID_34_"
             class="st0"
             d="m223.4 10.5v-6h0.7c0.2 0 0.3 0.1 0.3 0.2l0.1 0.6c0.3-0.3 0.6-0.5 0.9-0.7s0.7-0.3 1.1-0.3c0.3 0 0.6 0.1 0.9 0.2s0.5 0.3 0.6 0.5 0.3 0.4 0.4 0.7 0.1 0.6 0.1 0.9v3.9h-1.1v-3.8c0-0.4-0.1-0.8-0.3-1s-0.5-0.4-0.9-0.4c-0.3 0-0.6 0.1-0.9 0.2s-0.5 0.3-0.7 0.6v4.5h-1.2z"
             style="fill:#ffffff" /><path
             id="XMLID_36_"
             class="st0"
             d="m232.6 4.4c0.4 0 0.7 0.1 1 0.2s0.6 0.3 0.8 0.5 0.4 0.5 0.5 0.9c0.1 0.3 0.2 0.7 0.2 1.2 0 0.2 0 0.3-0.1 0.4s-0.1 0.1-0.2 0.1h-4c0 0.4 0.1 0.7 0.2 1s0.2 0.5 0.4 0.7 0.4 0.3 0.6 0.4 0.5 0.1 0.8 0.1 0.5 0 0.7-0.1 0.4-0.1 0.5-0.2 0.3-0.1 0.4-0.2 0.2-0.1 0.3-0.1 0.2 0 0.2 0.1l0.3 0.4c-0.1 0.2-0.3 0.3-0.5 0.4l-0.6 0.3c-0.2 0.1-0.4 0.1-0.7 0.2-0.2 0-0.4 0.1-0.7 0.1-0.4 0-0.8-0.1-1.2-0.2s-0.7-0.4-0.9-0.6c-0.3-0.3-0.5-0.6-0.6-1s-0.2-0.9-0.2-1.4c0-0.4 0.1-0.8 0.2-1.2s0.3-0.7 0.6-1 0.5-0.5 0.9-0.6c0.2-0.4 0.6-0.4 1.1-0.4zm0 0.8c-0.5 0-0.9 0.1-1.2 0.4s-0.5 0.7-0.5 1.2h3.2c0-0.2 0-0.5-0.1-0.7s-0.2-0.4-0.3-0.5-0.3-0.3-0.5-0.3-0.4-0.1-0.6-0.1z"
             style="fill:#ffffff" /><path
             id="XMLID_39_"
             class="st0"
             d="m240.7 5.6-0.1 0.1h-0.1c-0.1 0-0.1 0-0.2-0.1s-0.2-0.1-0.3-0.2-0.2-0.1-0.4-0.2c-0.2 0-0.3-0.1-0.6-0.1s-0.6 0.1-0.8 0.2-0.4 0.3-0.6 0.4c-0.1 0.2-0.3 0.4-0.3 0.7-0.1 0.3-0.1 0.6-0.1 0.9 0 0.4 0 0.7 0.1 1s0.2 0.5 0.3 0.7c0.2 0.2 0.3 0.3 0.5 0.4s0.5 0.2 0.7 0.2c0.3 0 0.5 0 0.6-0.1s0.3-0.1 0.4-0.2 0.2-0.1 0.3-0.2 0.1-0.1 0.2-0.1 0.2 0 0.2 0.1l0.3 0.4c-0.1 0.2-0.3 0.3-0.5 0.4l-0.6 0.3c-0.2 0.1-0.4 0.1-0.6 0.2-0.2 0-0.4 0.1-0.6 0.1-0.4 0-0.7-0.1-1.1-0.2s-0.6-0.3-0.9-0.6-0.4-0.6-0.6-1c-0.1-0.4-0.2-0.8-0.2-1.3s0.1-0.9 0.2-1.3 0.3-0.7 0.6-1c0.2-0.3 0.5-0.5 0.9-0.7s0.8-0.2 1.2-0.2 0.8 0.1 1.1 0.2 0.6 0.3 0.9 0.6l0.1 0.6z"
             style="fill:#ffffff" /><path
             id="XMLID_41_"
             class="st0"
             d="m247.9 4.6v6h-1.1v-5.2h-3.1v3.6c0 0.2 0.1 0.4 0.2 0.5s0.3 0.2 0.5 0.2h0.3c0.1 0 0.1-0.1 0.2-0.1s0.1-0.1 0.1-0.1h0.1 0.1l0.1 0.1 0.3 0.5c-0.2 0.2-0.4 0.3-0.7 0.4s-0.5 0.1-0.8 0.1c-0.5 0-0.9-0.1-1.1-0.4-0.3-0.3-0.4-0.7-0.4-1.2v-3.6h-0.7c-0.1 0-0.1 0-0.2-0.1s-0.1-0.1-0.1-0.2v-0.4l1-0.1 0.3-1.8c0-0.1 0-0.1 0.1-0.2 0 0 0.1-0.1 0.2-0.1h0.6v2.1h4.1zm0.3-2.1c0 0.1 0 0.2-0.1 0.3 0 0.1-0.1 0.2-0.2 0.2-0.1 0.1-0.2 0.1-0.3 0.2s-0.2 0.1-0.3 0.1-0.2 0-0.3-0.1-0.2-0.1-0.2-0.2c-0.1-0.1-0.1-0.2-0.2-0.2 0-0.1-0.1-0.2-0.1-0.3s0-0.2 0.1-0.3 0.1-0.2 0.2-0.3 0.2-0.1 0.2-0.2 0.2-0.1 0.3-0.1 0.2 0 0.3 0.1 0.2 0.1 0.3 0.2 0.1 0.2 0.2 0.3 0.1 0.2 0.1 0.3z"
             style="fill:#ffffff" /><path
             id="XMLID_44_"
             class="st0"
             d="m252.2 4.4c0.4 0 0.9 0.1 1.2 0.2s0.7 0.4 0.9 0.6 0.4 0.6 0.6 1c0.1 0.4 0.2 0.8 0.2 1.3s-0.1 0.9-0.2 1.3-0.3 0.7-0.6 1-0.6 0.5-0.9 0.6c-0.4 0.1-0.8 0.2-1.2 0.2s-0.9-0.1-1.2-0.2c-0.4-0.1-0.7-0.4-0.9-0.6-0.3-0.3-0.4-0.6-0.6-1-0.1-0.4-0.2-0.8-0.2-1.3s0.1-0.9 0.2-1.3 0.3-0.7 0.6-1 0.6-0.5 0.9-0.6c0.3-0.2 0.7-0.2 1.2-0.2zm0 5.3c0.6 0 1-0.2 1.3-0.6s0.4-0.9 0.4-1.7c0-0.7-0.1-1.3-0.4-1.7s-0.7-0.6-1.3-0.6-1 0.2-1.3 0.6-0.4 0.9-0.4 1.7c0 0.7 0.1 1.3 0.4 1.7s0.7 0.6 1.3 0.6z"
             style="fill:#ffffff" /><path
             id="XMLID_47_"
             class="st0"
             d="m256.4 10.5v-6h0.7c0.2 0 0.3 0.1 0.3 0.2l0.1 0.6c0.3-0.3 0.6-0.5 0.9-0.7s0.7-0.3 1.1-0.3c0.3 0 0.6 0.1 0.9 0.2s0.5 0.3 0.6 0.5 0.3 0.4 0.4 0.7 0.1 0.6 0.1 0.9v3.9h-1.1v-3.8c0-0.4-0.1-0.8-0.3-1s-0.5-0.4-0.9-0.4c-0.3 0-0.6 0.1-0.9 0.2s-0.5 0.3-0.7 0.6v4.5h-1.2z"
             style="fill:#ffffff" /><path
             id="XMLID_49_"
             class="st0"
             d="m266.7 5.5c-0.1 0.1-0.1 0.1-0.2 0.1s-0.1 0-0.2-0.1-0.2-0.1-0.3-0.1c-0.1-0.1-0.2-0.1-0.4-0.1s-0.3-0.1-0.5-0.1-0.3 0-0.5 0.1-0.3 0.1-0.4 0.2-0.2 0.2-0.2 0.3-0.1 0.2-0.1 0.3c0 0.2 0 0.3 0.1 0.4s0.2 0.2 0.4 0.3c0.1 0.1 0.3 0.1 0.5 0.2s0.4 0.1 0.6 0.2 0.4 0.1 0.6 0.2 0.4 0.2 0.5 0.3l0.4 0.4c0.1 0.2 0.1 0.4 0.1 0.6 0 0.3-0.1 0.5-0.2 0.8-0.1 0.2-0.3 0.4-0.5 0.6s-0.4 0.3-0.7 0.4-0.6 0.2-1 0.2-0.8-0.1-1.2-0.2c-0.3-0.1-0.6-0.3-0.9-0.5l0.3-0.4c0-0.1 0.1-0.1 0.1-0.1h0.2c0.1 0 0.2 0 0.2 0.1s0.2 0.1 0.3 0.2 0.3 0.1 0.4 0.2c0.2 0.1 0.4 0.1 0.6 0.1s0.4 0 0.5-0.1 0.3-0.1 0.4-0.2 0.2-0.2 0.2-0.3 0.1-0.2 0.1-0.4 0-0.3-0.1-0.4-0.2-0.2-0.4-0.3c0-0.3-0.2-0.4-0.4-0.4-0.2-0.1-0.4-0.1-0.6-0.2s-0.4-0.1-0.6-0.2-0.4-0.2-0.5-0.3-0.3-0.3-0.4-0.5-0.1-0.4-0.1-0.7c0-0.2 0-0.5 0.1-0.7s0.2-0.4 0.4-0.6 0.4-0.3 0.7-0.4 0.6-0.1 0.9-0.1c0.4 0 0.8 0.1 1.1 0.2s0.6 0.3 0.8 0.5l-0.1 0.5z"
             style="fill:#ffffff" /><path
             id="XMLID_51_"
             class="st0"
             d="m268.1 9.8c0-0.2 0.1-0.4 0.2-0.5s0.3-0.2 0.5-0.2c0.1 0 0.2 0 0.3 0.1 0.1 0 0.2 0.1 0.2 0.2 0.1 0.1 0.1 0.2 0.1 0.3v0.3c0 0.2 0 0.4-0.1 0.6s-0.1 0.4-0.2 0.6-0.2 0.4-0.4 0.6c-0.1 0.2-0.3 0.4-0.5 0.5l-0.2-0.2-0.1-0.1v-0.1c0-0.1 0-0.1 0.1-0.2l0.2-0.2c0.1-0.1 0.1-0.2 0.2-0.3s0.1-0.2 0.2-0.3 0.1-0.2 0.1-0.4h-0.1c-0.1 0-0.2 0-0.3-0.1-0.1 0-0.2-0.1-0.2-0.2-0.1-0.1-0.1-0.2-0.1-0.2 0.1 0 0.1-0.1 0.1-0.2z"
             style="fill:#ffffff" /><path
             id="XMLID_53_"
             class="st0"
             d="m87.6 17c0 0.1 0 0.2-0.1 0.3 0 0.1-0.1 0.2-0.2 0.2-0.1 0.1-0.2 0.1-0.3 0.2s-0.2 0.1-0.3 0.1-0.2 0-0.3-0.1c-0.1 0-0.2-0.1-0.2-0.2-0.1-0.1-0.1-0.2-0.2-0.2 0-0.1-0.1-0.2-0.1-0.3s0-0.2 0.1-0.3c0-0.1 0.1-0.2 0.2-0.3s0.2-0.1 0.2-0.2c0.1 0 0.2-0.1 0.3-0.1s0.2 0 0.3 0.1 0.2 0.1 0.3 0.2 0.1 0.2 0.2 0.3c0 0.1 0.1 0.2 0.1 0.3zm-0.3 1.9v6.1h-1.1v-6.1h1.1z"
             style="fill:#ffffff" /><path
             id="XMLID_56_"
             class="st0"
             d="m89 24.9v-6.1h0.7c0.2 0 0.3 0.1 0.3 0.2l0.1 0.6c0.3-0.3 0.6-0.5 0.9-0.7s0.7-0.3 1.1-0.3c0.3 0 0.6 0.1 0.9 0.2s0.5 0.3 0.6 0.5 0.3 0.4 0.4 0.7 0.1 0.6 0.1 0.9v3.9h-1.1v-3.9c0-0.4-0.1-0.8-0.3-1s-0.5-0.4-0.9-0.4c-0.3 0-0.6 0.1-0.9 0.2s-0.5 0.3-0.7 0.6v4.5h-1.2z"
             style="fill:#ffffff" /><path
             id="XMLID_58_"
             class="st0"
             d="m99.3 19.9c0 0.1-0.1 0.1-0.2 0.1h-0.2c-0.1 0-0.2-0.1-0.3-0.1-0.1-0.1-0.2-0.1-0.4-0.1s-0.3-0.1-0.5-0.1-0.3 0-0.5 0.1c-0.1 0-0.3 0.1-0.4 0.2s-0.2 0.2-0.2 0.3c-0.1 0.1-0.1 0.2-0.1 0.3 0 0.2 0 0.3 0.1 0.4s0.2 0.2 0.4 0.3c0.1 0.1 0.3 0.1 0.5 0.2s0.4 0.1 0.6 0.2 0.4 0.1 0.6 0.2 0.4 0.2 0.5 0.3l0.4 0.4c0.1 0.2 0.1 0.4 0.1 0.6 0 0.3-0.1 0.5-0.2 0.8-0.1 0.2-0.3 0.4-0.5 0.6s-0.4 0.3-0.7 0.4-0.6 0.2-1 0.2-0.8-0.1-1.2-0.2-0.6-0.3-0.9-0.5l0.3-0.4c0-0.1 0.1-0.1 0.1-0.1h0.2c0.1 0 0.2 0 0.2 0.1 0.1 0.1 0.2 0.1 0.3 0.2s0.3 0.1 0.4 0.2c0.2 0.1 0.4 0.1 0.6 0.1s0.4 0 0.5-0.1 0.3-0.1 0.4-0.2 0.2-0.2 0.2-0.3 0.1-0.2 0.1-0.4 0-0.3-0.1-0.4-0.2-0.2-0.4-0.3c-0.1-0.1-0.3-0.1-0.5-0.2s-0.4-0.1-0.6-0.2-0.4-0.1-0.6-0.2-0.4-0.2-0.5-0.3-0.3-0.3-0.4-0.5-0.1-0.4-0.1-0.7c0-0.2 0-0.5 0.1-0.7s0.2-0.4 0.4-0.6 0.4-0.3 0.7-0.4 0.6-0.1 0.9-0.1c0.4 0 0.8 0.1 1.1 0.2s0.6 0.3 0.8 0.5v0.2z"
             style="fill:#ffffff" /><path
             id="XMLID_60_"
             class="st0"
             d="m102.9 25c-0.5 0-0.9-0.1-1.1-0.4-0.3-0.3-0.4-0.7-0.4-1.2v-3.7h-0.7c-0.1 0-0.1 0-0.2-0.1s-0.1-0.1-0.1-0.2v-0.5l1-0.1 0.3-1.8c0-0.1 0-0.1 0.1-0.2 0 0 0.1-0.1 0.2-0.1h0.6v2.3h1.7v0.8h-1.7v3.6c0 0.2 0.1 0.4 0.2 0.5s0.3 0.2 0.5 0.2h0.3c0.1 0 0.1-0.1 0.2-0.1s0.1-0.1 0.1-0.1h0.1 0.1l0.1 0.1 0.3 0.5c-0.2 0.2-0.4 0.3-0.7 0.4-0.4 0.1-0.7 0.1-0.9 0.1z"
             style="fill:#ffffff" /><path
             id="XMLID_62_"
             class="st0"
             d="m107.8 18.8c0.4 0 0.7 0.1 1 0.2s0.6 0.3 0.8 0.5 0.4 0.5 0.5 0.9c0.1 0.3 0.2 0.7 0.2 1.2 0 0.2 0 0.3-0.1 0.4 0 0.1-0.1 0.1-0.2 0.1h-4c0 0.4 0.1 0.7 0.2 1s0.2 0.5 0.4 0.7 0.4 0.3 0.6 0.4 0.5 0.1 0.8 0.1 0.5 0 0.7-0.1 0.4-0.1 0.5-0.2 0.3-0.1 0.4-0.2 0.2-0.1 0.3-0.1 0.2 0 0.2 0.1l0.3 0.4c-0.1 0.2-0.3 0.3-0.5 0.4l-0.6 0.3c-0.2 0.1-0.4 0.1-0.7 0.2-0.2 0-0.4 0.1-0.7 0.1-0.4 0-0.8-0.1-1.2-0.2s-0.7-0.4-0.9-0.6c-0.3-0.3-0.5-0.6-0.6-1s-0.2-0.9-0.2-1.4c0-0.4 0.1-0.8 0.2-1.2s0.3-0.7 0.6-1 0.5-0.5 0.9-0.6c0.3-0.4 0.7-0.4 1.1-0.4zm0 0.8c-0.5 0-0.9 0.1-1.2 0.4s-0.5 0.7-0.5 1.2h3.2c0-0.2 0-0.5-0.1-0.7s-0.2-0.4-0.3-0.5-0.3-0.3-0.5-0.3-0.3-0.1-0.6-0.1z"
             style="fill:#ffffff" /><path
             id="XMLID_65_"
             class="st0"
             d="m115.5 24.9c-0.1 0-0.2 0-0.3-0.1-0.1 0-0.1-0.1-0.1-0.2l-0.1-0.5c-0.2 0.1-0.3 0.3-0.5 0.4s-0.3 0.2-0.5 0.3-0.3 0.1-0.5 0.2c-0.2 0-0.4 0.1-0.6 0.1s-0.5 0-0.7-0.1-0.4-0.2-0.5-0.3c-0.2-0.1-0.3-0.3-0.4-0.5s-0.1-0.4-0.1-0.7c0-0.2 0.1-0.5 0.2-0.7s0.3-0.4 0.6-0.6 0.7-0.3 1.2-0.4 1.1-0.2 1.7-0.2v-0.5c0-0.5-0.1-0.8-0.3-1s-0.5-0.4-0.9-0.4c-0.3 0-0.5 0-0.7 0.1s-0.3 0.1-0.5 0.2c-0.1 0.1-0.2 0.1-0.3 0.2s-0.2 0.1-0.3 0.1-0.1 0-0.2-0.1c-0.1 0-0.1-0.1-0.1-0.1l-0.2-0.4c0.3-0.3 0.7-0.6 1.1-0.7 0.4-0.2 0.8-0.2 1.3-0.2 0.3 0 0.7 0.1 0.9 0.2 0.3 0.1 0.5 0.3 0.7 0.5s0.3 0.4 0.4 0.7 0.1 0.6 0.1 0.9v3.9h-0.4zm-2.3-0.7c0.2 0 0.3 0 0.5-0.1 0.2 0 0.3-0.1 0.4-0.2s0.3-0.2 0.4-0.2 0.2-0.2 0.4-0.3v-1.2c-0.5 0-0.9 0.1-1.2 0.1-0.3 0.1-0.6 0.1-0.8 0.2s-0.4 0.2-0.5 0.3-0.1 0.3-0.1 0.4c0 0.2 0 0.3 0.1 0.4 0 0.1 0.1 0.2 0.2 0.3s0.2 0.1 0.3 0.2 0.2 0.1 0.3 0.1z"
             style="fill:#ffffff" /><path
             id="XMLID_68_"
             class="st0"
             d="m122 24.9c-0.2 0-0.3-0.1-0.3-0.2l-0.1-0.7c-0.1 0.2-0.3 0.3-0.4 0.4s-0.3 0.2-0.5 0.3-0.3 0.2-0.5 0.2-0.4 0.1-0.6 0.1c-0.3 0-0.7-0.1-0.9-0.2s-0.5-0.3-0.7-0.6-0.4-0.6-0.5-1-0.2-0.8-0.2-1.3 0.1-0.9 0.2-1.3 0.3-0.7 0.5-1 0.5-0.5 0.8-0.7 0.7-0.2 1.1-0.2 0.7 0.1 0.9 0.2 0.5 0.3 0.7 0.5v-3.3h1.1v8.9h-0.6zm-2-0.8c0.3 0 0.6-0.1 0.9-0.2 0.3-0.2 0.5-0.4 0.7-0.7v-2.9c-0.2-0.3-0.4-0.4-0.6-0.5s-0.5-0.2-0.8-0.2c-0.5 0-1 0.2-1.3 0.6s-0.4 1-0.4 1.7c0 0.4 0 0.7 0.1 1s0.2 0.5 0.3 0.7 0.3 0.3 0.5 0.4c0.1 0.1 0.3 0.1 0.6 0.1z"
             style="fill:#ffffff" /><path
             id="XMLID_71_"
             class="st0"
             d="m130 18.8c0.4 0 0.9 0.1 1.2 0.2s0.7 0.4 0.9 0.6 0.4 0.6 0.6 1c0.1 0.4 0.2 0.8 0.2 1.3s-0.1 0.9-0.2 1.3-0.3 0.7-0.6 1-0.6 0.5-0.9 0.6c-0.4 0.1-0.8 0.2-1.2 0.2s-0.9-0.1-1.2-0.2c-0.4-0.1-0.7-0.4-0.9-0.6-0.3-0.3-0.4-0.6-0.6-1-0.1-0.4-0.2-0.8-0.2-1.3s0.1-0.9 0.2-1.3 0.3-0.7 0.6-1 0.6-0.5 0.9-0.6c0.3-0.2 0.7-0.2 1.2-0.2zm0 5.3c0.6 0 1-0.2 1.3-0.6s0.4-0.9 0.4-1.7c0-0.7-0.1-1.3-0.4-1.7s-0.7-0.6-1.3-0.6-1 0.2-1.3 0.6-0.4 0.9-0.4 1.7c0 0.7 0.1 1.3 0.4 1.7s0.7 0.6 1.3 0.6z"
             style="fill:#ffffff" /><path
             id="XMLID_74_"
             class="st0"
             d="m134.5 24.9v-5.1l-0.6-0.1c-0.1 0-0.2 0-0.2-0.1s-0.1-0.1-0.1-0.2v-0.4h1v-0.6c0-0.3 0-0.7 0.2-0.9 0.1-0.3 0.2-0.5 0.4-0.7s0.4-0.3 0.7-0.4 0.6-0.1 0.9-0.1h0.4c0.1 0 0.2 0 0.4 0.1v0.6 0.1s-0.1 0-0.1 0.1h-0.2-0.2c-0.2 0-0.4 0-0.5 0.1-0.1 0-0.3 0.1-0.4 0.2s-0.2 0.2-0.2 0.4c-0.1 0.2-0.1 0.4-0.1 0.6v0.5h1.7v0.8h-1.7v5.2h-1.4z"
             style="fill:#ffffff" /><path
             id="XMLID_76_"
             class="st0"
             d="m145 24.9c-0.1 0-0.2 0-0.3-0.1-0.1 0-0.1-0.1-0.1-0.2l-0.1-0.5c-0.2 0.1-0.3 0.3-0.5 0.4s-0.3 0.2-0.5 0.3-0.3 0.1-0.5 0.2c-0.2 0-0.4 0.1-0.6 0.1s-0.5 0-0.7-0.1-0.4-0.2-0.5-0.3c-0.2-0.1-0.3-0.3-0.4-0.5s-0.1-0.4-0.1-0.7c0-0.2 0.1-0.5 0.2-0.7s0.3-0.4 0.6-0.6 0.7-0.3 1.2-0.4 1.1-0.2 1.8-0.2v-0.5c0-0.5-0.1-0.8-0.3-1s-0.5-0.4-0.9-0.4c-0.3 0-0.5 0-0.7 0.1s-0.3 0.1-0.5 0.2c-0.1 0.1-0.2 0.1-0.3 0.2s-0.2 0.1-0.3 0.1-0.1 0-0.2-0.1c-0.1 0-0.1-0.1-0.1-0.1l-0.2-0.4c0.3-0.3 0.7-0.6 1.1-0.7 0.4-0.2 0.8-0.2 1.3-0.2 0.3 0 0.6 0.1 0.9 0.2s0.5 0.3 0.7 0.5 0.3 0.4 0.4 0.7 0.1 0.6 0.1 0.9v3.9h-0.5zm-2.3-0.7c0.2 0 0.3 0 0.5-0.1 0.2 0 0.3-0.1 0.4-0.2s0.3-0.2 0.4-0.2 0.2-0.2 0.4-0.3v-1.2c-0.5 0-0.9 0.1-1.2 0.1-0.3 0.1-0.6 0.1-0.8 0.2s-0.4 0.2-0.5 0.3-0.1 0.3-0.1 0.4c0 0.2 0 0.3 0.1 0.4 0 0.1 0.1 0.2 0.2 0.3s0.2 0.1 0.3 0.2 0.2 0.1 0.3 0.1z"
             style="fill:#ffffff" /><path
             id="XMLID_79_"
             class="st0"
             d="m151.5 24.9c-0.2 0-0.3-0.1-0.3-0.2l-0.1-0.7c-0.1 0.2-0.3 0.3-0.4 0.4s-0.3 0.2-0.5 0.3-0.3 0.2-0.5 0.2-0.4 0.1-0.6 0.1c-0.3 0-0.7-0.1-0.9-0.2-0.3-0.1-0.5-0.3-0.7-0.6s-0.4-0.6-0.5-1-0.2-0.8-0.2-1.3 0.1-0.9 0.2-1.3 0.3-0.7 0.5-1 0.5-0.5 0.8-0.7 0.7-0.2 1.1-0.2 0.7 0.1 0.9 0.2 0.5 0.3 0.7 0.5v-3.3h1.1v8.9h-0.6zm-2-0.8c0.3 0 0.6-0.1 0.9-0.2 0.3-0.2 0.5-0.4 0.7-0.7v-2.9c-0.2-0.3-0.4-0.4-0.6-0.5s-0.5-0.2-0.8-0.2c-0.5 0-1 0.2-1.3 0.6s-0.4 1-0.4 1.7c0 0.4 0 0.7 0.1 1s0.2 0.5 0.3 0.7 0.3 0.3 0.5 0.4 0.3 0.1 0.6 0.1z"
             style="fill:#ffffff" /><path
             id="XMLID_82_"
             class="st0"
             d="m158.2 24.9c-0.2 0-0.3-0.1-0.3-0.2l-0.1-0.7c-0.1 0.2-0.3 0.3-0.4 0.4s-0.3 0.2-0.5 0.3-0.3 0.2-0.5 0.2-0.4 0.1-0.6 0.1c-0.3 0-0.7-0.1-0.9-0.2-0.3-0.1-0.5-0.3-0.7-0.6s-0.4-0.6-0.5-1-0.2-0.8-0.2-1.3 0.1-0.9 0.2-1.3 0.3-0.7 0.5-1 0.5-0.5 0.8-0.7 0.7-0.2 1.1-0.2 0.7 0.1 0.9 0.2c0.3 0.1 0.5 0.3 0.7 0.5v-3.3h1.1v8.9h-0.6zm-2-0.8c0.3 0 0.6-0.1 0.9-0.2 0.3-0.2 0.5-0.4 0.7-0.7v-2.9c-0.2-0.3-0.4-0.4-0.6-0.5s-0.5-0.2-0.8-0.2c-0.5 0-1 0.2-1.3 0.6s-0.4 1-0.4 1.7c0 0.4 0 0.7 0.1 1s0.2 0.5 0.3 0.7 0.3 0.3 0.5 0.4 0.4 0.1 0.6 0.1z"
             style="fill:#ffffff" /><path
             id="XMLID_85_"
             class="st0"
             d="m162 17c0 0.1 0 0.2-0.1 0.3 0 0.1-0.1 0.2-0.2 0.2-0.1 0.1-0.2 0.1-0.3 0.2s-0.2 0.1-0.3 0.1-0.2 0-0.3-0.1-0.2-0.1-0.2-0.2c-0.1-0.1-0.1-0.2-0.2-0.2 0-0.1-0.1-0.2-0.1-0.3s0-0.2 0.1-0.3c0-0.1 0.1-0.2 0.2-0.3s0.2-0.1 0.2-0.2 0.2-0.1 0.3-0.1 0.2 0 0.3 0.1 0.2 0.1 0.3 0.2 0.1 0.2 0.2 0.3 0.1 0.2 0.1 0.3zm-0.2 1.9v6.1h-1.1v-6.1h1.1z"
             style="fill:#ffffff" /><path
             id="XMLID_88_"
             class="st0"
             d="m163.5 24.9v-6.1h0.7c0.2 0 0.3 0.1 0.3 0.2l0.1 0.6c0.3-0.3 0.6-0.5 0.9-0.7s0.7-0.3 1.1-0.3c0.3 0 0.6 0.1 0.9 0.2s0.5 0.3 0.6 0.5 0.3 0.4 0.4 0.7 0.1 0.6 0.1 0.9v3.9h-1.1v-3.9c0-0.4-0.1-0.8-0.3-1s-0.5-0.4-0.9-0.4c-0.3 0-0.6 0.1-0.9 0.2s-0.5 0.3-0.7 0.6v4.5h-1.2z"
             style="fill:#ffffff" /><path
             id="XMLID_90_"
             class="st0"
             d="m172.3 18.8c0.3 0 0.5 0 0.7 0.1s0.4 0.1 0.6 0.2h1.7v0.4c0 0.1-0.1 0.2-0.3 0.3l-0.7 0.1c0.1 0.3 0.2 0.5 0.2 0.8s-0.1 0.6-0.2 0.8-0.3 0.4-0.5 0.6-0.4 0.3-0.7 0.4-0.6 0.1-0.9 0.1-0.5 0-0.8-0.1c-0.3 0.2-0.4 0.3-0.4 0.5 0 0.1 0.1 0.2 0.2 0.3s0.3 0.1 0.5 0.2c0.2 0 0.4 0.1 0.7 0.1h0.8c0.3 0 0.5 0 0.8 0.1s0.5 0.1 0.7 0.2 0.3 0.2 0.5 0.4c0.1 0.2 0.2 0.4 0.2 0.7s-0.1 0.5-0.2 0.8c-0.1 0.2-0.3 0.5-0.6 0.7-0.2 0.2-0.5 0.3-0.9 0.5-0.4 0.1-0.8 0.2-1.2 0.2s-0.8 0-1.2-0.1-0.6-0.2-0.8-0.4c-0.2-0.1-0.4-0.3-0.5-0.5s-0.2-0.4-0.2-0.6c0-0.3 0.1-0.6 0.3-0.8s0.4-0.4 0.8-0.5c-0.2-0.1-0.3-0.2-0.4-0.3s-0.2-0.3-0.2-0.5v-0.3c0-0.1 0.1-0.2 0.1-0.3 0.1-0.1 0.1-0.2 0.2-0.3s0.2-0.2 0.3-0.2c-0.3-0.2-0.5-0.4-0.7-0.7s-0.3-0.6-0.3-1c0-0.3 0.1-0.6 0.2-0.8s0.3-0.4 0.5-0.6 0.5-0.3 0.7-0.4c0.4-0.1 0.7-0.1 1-0.1zm1.9 6.5c0-0.1 0-0.3-0.1-0.3s-0.2-0.2-0.3-0.2c-0.1-0.1-0.3-0.1-0.5-0.1h-0.6-0.6c-0.2 0-0.4 0-0.6-0.1-0.2 0.1-0.4 0.2-0.5 0.4s-0.2 0.3-0.2 0.5c0 0.1 0 0.3 0.1 0.4l0.3 0.3c0.1 0.1 0.3 0.1 0.5 0.2 0.2 0 0.5 0.1 0.8 0.1s0.5 0 0.8-0.1c0.2-0.1 0.4-0.1 0.6-0.2s0.3-0.2 0.3-0.3v-0.6zm-1.9-3.4c0.2 0 0.4 0 0.6-0.1s0.3-0.1 0.4-0.2 0.2-0.2 0.2-0.4c0.1-0.1 0.1-0.3 0.1-0.5 0-0.4-0.1-0.6-0.3-0.9s-0.5-0.3-1-0.3-0.7 0.1-1 0.3-0.3 0.5-0.3 0.9c0 0.2 0 0.3 0.1 0.5 0.1 0.1 0.1 0.3 0.2 0.4s0.2 0.2 0.4 0.2c0.2 0.1 0.4 0.1 0.6 0.1z"
             style="fill:#ffffff" /><path
             id="XMLID_94_"
             class="st0"
             d="m179.5 24.9v-6.1h0.7c0.2 0 0.3 0.1 0.3 0.2l0.1 0.6c0.2-0.3 0.5-0.5 0.8-0.7s0.6-0.3 1-0.3 0.7 0.1 1 0.3 0.4 0.5 0.5 0.9l0.3-0.6c0.1-0.2 0.3-0.3 0.5-0.4s0.4-0.2 0.5-0.2c0.2 0 0.4-0.1 0.6-0.1 0.7 0 1.2 0.2 1.5 0.6 0.4 0.4 0.5 1 0.5 1.7v3.9h-1.1v-3.9c0-0.5-0.1-0.8-0.3-1s-0.5-0.4-0.9-0.4c-0.2 0-0.3 0-0.5 0.1s-0.3 0.1-0.4 0.3c-0.1 0.1-0.2 0.3-0.3 0.4-0.1 0.2-0.1 0.4-0.1 0.6v3.9h-1.1v-3.9c0-0.5-0.1-0.8-0.3-1.1-0.2-0.2-0.5-0.3-0.8-0.3s-0.5 0.1-0.7 0.2-0.4 0.3-0.6 0.6v4.5h-1.2z"
             style="fill:#ffffff" /><path
             id="XMLID_96_"
             class="st0"
             d="m192 18.8c0.4 0 0.9 0.1 1.2 0.2s0.7 0.4 0.9 0.6 0.4 0.6 0.6 1c0.1 0.4 0.2 0.8 0.2 1.3s-0.1 0.9-0.2 1.3-0.3 0.7-0.6 1-0.6 0.5-0.9 0.6c-0.4 0.1-0.8 0.2-1.2 0.2s-0.9-0.1-1.2-0.2c-0.4-0.1-0.7-0.4-0.9-0.6-0.3-0.3-0.4-0.6-0.6-1-0.1-0.4-0.2-0.8-0.2-1.3s0.1-0.9 0.2-1.3 0.3-0.7 0.6-1 0.6-0.5 0.9-0.6c0.3-0.2 0.7-0.2 1.2-0.2zm0 5.3c0.6 0 1-0.2 1.3-0.6s0.4-0.9 0.4-1.7c0-0.7-0.1-1.3-0.4-1.7s-0.7-0.6-1.3-0.6-1 0.2-1.3 0.6-0.4 0.9-0.4 1.7c0 0.7 0.1 1.3 0.4 1.7s0.7 0.6 1.3 0.6z"
             style="fill:#ffffff" /><path
             id="XMLID_99_"
             class="st0"
             d="m196.2 24.9v-6.1h0.7c0.1 0 0.2 0 0.3 0.1s0.1 0.1 0.1 0.2l0.1 0.9c0.2-0.4 0.4-0.7 0.7-1 0.3-0.2 0.6-0.3 1-0.3h0.4c0.1 0 0.2 0.1 0.3 0.1l-0.1 0.9c0 0.1-0.1 0.2-0.2 0.2h-0.2-0.4c-0.2 0-0.4 0-0.5 0.1s-0.3 0.1-0.4 0.2-0.2 0.2-0.3 0.4-0.2 0.3-0.2 0.5v3.8h-1.3z"
             style="fill:#ffffff" /><path
             id="XMLID_101_"
             class="st0"
             d="m202.9 18.8c0.4 0 0.7 0.1 1 0.2s0.6 0.3 0.8 0.5 0.4 0.5 0.5 0.9c0.1 0.3 0.2 0.7 0.2 1.2 0 0.2 0 0.3-0.1 0.4 0 0.1-0.1 0.1-0.2 0.1h-4c0 0.4 0.1 0.7 0.2 1s0.2 0.5 0.4 0.7 0.4 0.3 0.6 0.4 0.5 0.1 0.8 0.1 0.5 0 0.7-0.1 0.4-0.1 0.5-0.2 0.3-0.1 0.4-0.2 0.2-0.1 0.3-0.1 0.2 0 0.2 0.1l0.3 0.4c-0.1 0.2-0.3 0.3-0.5 0.4l-0.6 0.3c-0.2 0.1-0.4 0.1-0.7 0.2-0.2 0-0.4 0.1-0.7 0.1-0.4 0-0.8-0.1-1.2-0.2s-0.7-0.4-0.9-0.6c-0.3-0.3-0.5-0.6-0.6-1s-0.2-0.9-0.2-1.4c0-0.4 0.1-0.8 0.2-1.2s0.3-0.7 0.6-1 0.5-0.5 0.9-0.6c0.2-0.4 0.6-0.4 1.1-0.4zm0 0.8c-0.5 0-0.9 0.1-1.2 0.4s-0.5 0.7-0.5 1.2h3.2c0-0.2 0-0.5-0.1-0.7s-0.2-0.4-0.3-0.5-0.3-0.3-0.5-0.3-0.4-0.1-0.6-0.1z"
             style="fill:#ffffff" /><path
             id="XMLID_104_"
             class="st0"
             d="m209.7 27v-8.1h0.7c0.2 0 0.3 0.1 0.3 0.2l0.1 0.7c0.3-0.3 0.6-0.6 0.9-0.7s0.7-0.3 1.1-0.3c0.3 0 0.7 0.1 0.9 0.2 0.3 0.1 0.5 0.3 0.7 0.6s0.4 0.6 0.5 1 0.2 0.8 0.2 1.3-0.1 0.9-0.2 1.3-0.3 0.7-0.5 1-0.5 0.5-0.8 0.7-0.7 0.2-1.1 0.2-0.7-0.1-0.9-0.2c-0.3-0.1-0.5-0.3-0.7-0.5v2.6h-1.2zm2.8-7.3c-0.3 0-0.6 0.1-0.9 0.2-0.3 0.2-0.5 0.4-0.7 0.7v2.9c0.2 0.3 0.4 0.4 0.6 0.5s0.5 0.2 0.8 0.2c0.5 0 1-0.2 1.3-0.6s0.4-1 0.4-1.7c0-0.4 0-0.7-0.1-1s-0.2-0.5-0.3-0.7-0.3-0.3-0.5-0.4-0.4-0.1-0.6-0.1z"
             style="fill:#ffffff" /><path
             id="XMLID_107_"
             class="st0"
             d="m219.1 18.8c0.4 0 0.9 0.1 1.2 0.2s0.7 0.4 0.9 0.6 0.4 0.6 0.6 1c0.1 0.4 0.2 0.8 0.2 1.3s-0.1 0.9-0.2 1.3-0.3 0.7-0.6 1-0.6 0.5-0.9 0.6c-0.4 0.1-0.8 0.2-1.2 0.2s-0.9-0.1-1.2-0.2c-0.4-0.1-0.7-0.4-0.9-0.6-0.3-0.3-0.4-0.6-0.6-1-0.1-0.4-0.2-0.8-0.2-1.3s0.1-0.9 0.2-1.3 0.3-0.7 0.6-1 0.6-0.5 0.9-0.6c0.3-0.2 0.7-0.2 1.2-0.2zm0 5.3c0.6 0 1-0.2 1.3-0.6s0.4-0.9 0.4-1.7c0-0.7-0.1-1.3-0.4-1.7s-0.7-0.6-1.3-0.6-1 0.2-1.3 0.6-0.4 0.9-0.4 1.7c0 0.7 0.1 1.3 0.4 1.7 0.2 0.4 0.7 0.6 1.3 0.6z"
             style="fill:#ffffff" /><path
             id="XMLID_110_"
             class="st0"
             d="m224.7 17c0 0.1 0 0.2-0.1 0.3 0 0.1-0.1 0.2-0.2 0.2-0.1 0.1-0.2 0.1-0.3 0.2s-0.2 0.1-0.3 0.1-0.2 0-0.3-0.1c-0.1 0-0.2-0.1-0.2-0.2-0.1-0.1-0.1-0.2-0.2-0.2 0-0.1-0.1-0.2-0.1-0.3s0-0.2 0.1-0.3 0.1-0.2 0.2-0.3 0.2-0.1 0.2-0.2c0.1 0 0.2-0.1 0.3-0.1s0.2 0 0.3 0.1 0.2 0.1 0.3 0.2 0.1 0.2 0.2 0.3 0.1 0.2 0.1 0.3zm-0.2 1.9v6.1h-1.1v-6.1h1.1z"
             style="fill:#ffffff" /><path
             id="XMLID_113_"
             class="st0"
             d="m226.2 24.9v-6.1h0.7c0.2 0 0.3 0.1 0.3 0.2l0.1 0.6c0.3-0.3 0.6-0.5 0.9-0.7s0.7-0.3 1.1-0.3c0.3 0 0.6 0.1 0.9 0.2s0.5 0.3 0.6 0.5 0.3 0.4 0.4 0.7 0.1 0.6 0.1 0.9v3.9h-1.1v-3.9c0-0.4-0.1-0.8-0.3-1s-0.5-0.4-0.9-0.4c-0.3 0-0.6 0.1-0.9 0.2s-0.5 0.3-0.7 0.6v4.5h-1.2z"
             style="fill:#ffffff" /><path
             id="XMLID_115_"
             class="st0"
             d="m234.7 25c-0.5 0-0.9-0.1-1.1-0.4-0.3-0.3-0.4-0.7-0.4-1.2v-3.7h-0.7c-0.1 0-0.1 0-0.2-0.1s-0.1-0.1-0.1-0.2v-0.5l1-0.1 0.3-1.8c0-0.1 0-0.1 0.1-0.2 0 0 0.1-0.1 0.2-0.1h0.6v2.3h1.7v0.8h-1.7v3.6c0 0.2 0.1 0.4 0.2 0.5s0.3 0.2 0.5 0.2h0.3c0.1 0 0.1-0.1 0.2-0.1s0.1-0.1 0.1-0.1h0.1 0.1l0.1 0.1 0.3 0.5c-0.2 0.2-0.4 0.3-0.7 0.4s-0.6 0.1-0.9 0.1z"
             style="fill:#ffffff" /><path
             id="XMLID_117_"
             class="st0"
             d="m240.7 19.9c-0.1 0.1-0.1 0.1-0.2 0.1s-0.1 0-0.2-0.1-0.2-0.1-0.3-0.1c-0.1-0.1-0.2-0.1-0.4-0.1s-0.3-0.1-0.5-0.1-0.3 0-0.5 0.1-0.3 0.1-0.4 0.2-0.2 0.2-0.2 0.3-0.1 0.2-0.1 0.3c0 0.2 0 0.3 0.1 0.4s0.2 0.2 0.4 0.3c0.1 0.1 0.3 0.1 0.5 0.2s0.4 0.1 0.6 0.2 0.4 0.1 0.6 0.2 0.4 0.2 0.5 0.3l0.4 0.4c0.1 0.2 0.1 0.4 0.1 0.6 0 0.3-0.1 0.5-0.2 0.8-0.1 0.2-0.3 0.4-0.5 0.6s-0.4 0.3-0.7 0.4-0.6 0.2-1 0.2-0.8-0.1-1.2-0.2c-0.3-0.1-0.6-0.3-0.9-0.5l0.3-0.4c0-0.1 0.1-0.1 0.1-0.1h0.2c0.1 0 0.2 0 0.2 0.1 0.1 0.1 0.2 0.1 0.3 0.2s0.3 0.1 0.4 0.2c0.2 0.1 0.4 0.1 0.6 0.1s0.4 0 0.5-0.1 0.3-0.1 0.4-0.2 0.2-0.2 0.2-0.3 0.1-0.2 0.1-0.4 0-0.3-0.1-0.4-0.2-0.2-0.4-0.3c-0.1-0.1-0.3-0.1-0.5-0.2s-0.4-0.1-0.6-0.2-0.4-0.1-0.6-0.2-0.4-0.2-0.5-0.3-0.3-0.3-0.4-0.5-0.1-0.4-0.1-0.7c0-0.2 0-0.5 0.1-0.7s0.2-0.4 0.4-0.6 0.4-0.3 0.7-0.4 0.6-0.1 0.9-0.1c0.4 0 0.8 0.1 1.1 0.2s0.6 0.3 0.8 0.5v0.3z"
             style="fill:#ffffff" /><path
             id="XMLID_119_"
             class="st0"
             d="m247.3 25c-0.5 0-0.9-0.1-1.1-0.4-0.3-0.3-0.4-0.7-0.4-1.2v-3.7h-0.7c-0.1 0-0.1 0-0.2-0.1s-0.1-0.1-0.1-0.2v-0.5l1-0.1 0.3-1.8c0-0.1 0-0.1 0.1-0.2 0 0 0.1-0.1 0.2-0.1h0.6v2.3h1.7v0.8h-1.7v3.6c0 0.2 0.1 0.4 0.2 0.5s0.3 0.2 0.5 0.2h0.3c0.1 0 0.1-0.1 0.2-0.1s0.1-0.1 0.1-0.1h0.1 0.1l0.1 0.1 0.3 0.5c-0.2 0.2-0.4 0.3-0.7 0.4s-0.6 0.1-0.9 0.1z"
             style="fill:#ffffff" /><path
             id="XMLID_121_"
             class="st0"
             d="m252.3 18.8c0.4 0 0.9 0.1 1.2 0.2s0.7 0.4 0.9 0.6 0.4 0.6 0.6 1c0.1 0.4 0.2 0.8 0.2 1.3s-0.1 0.9-0.2 1.3-0.3 0.7-0.6 1-0.6 0.5-0.9 0.6c-0.4 0.1-0.8 0.2-1.2 0.2s-0.9-0.1-1.2-0.2c-0.4-0.1-0.7-0.4-0.9-0.6-0.3-0.3-0.4-0.6-0.6-1-0.1-0.4-0.2-0.8-0.2-1.3s0.1-0.9 0.2-1.3 0.3-0.7 0.6-1 0.6-0.5 0.9-0.6c0.4-0.2 0.8-0.2 1.2-0.2zm0 5.3c0.6 0 1-0.2 1.3-0.6s0.4-0.9 0.4-1.7c0-0.7-0.1-1.3-0.4-1.7s-0.7-0.6-1.3-0.6-1 0.2-1.3 0.6-0.4 0.9-0.4 1.7c0 0.7 0.1 1.3 0.4 1.7s0.7 0.6 1.3 0.6z"
             style="fill:#ffffff" /><path
             id="XMLID_124_"
             class="st0"
             d="m261.2 26.7c0 0.1-0.1 0.2-0.1 0.2-0.1 0-0.1 0.1-0.3 0.1h-0.8l1.1-2.4-2.5-5.7h1c0.1 0 0.2 0 0.2 0.1 0.1 0 0.1 0.1 0.1 0.2l1.6 3.7c0.1 0.2 0.1 0.4 0.2 0.5 0-0.1 0.1-0.2 0.1-0.3s0.1-0.2 0.1-0.3l1.5-3.7c0-0.1 0.1-0.1 0.1-0.2 0.1 0 0.1-0.1 0.2-0.1h0.9l-3.4 7.9z"
             style="fill:#ffffff" /><path
             id="XMLID_126_"
             class="st0"
             d="m267.9 18.8c0.4 0 0.9 0.1 1.2 0.2s0.7 0.4 0.9 0.6 0.4 0.6 0.6 1c0.1 0.4 0.2 0.8 0.2 1.3s-0.1 0.9-0.2 1.3-0.3 0.7-0.6 1-0.6 0.5-0.9 0.6c-0.4 0.1-0.8 0.2-1.2 0.2s-0.9-0.1-1.2-0.2c-0.4-0.1-0.7-0.4-0.9-0.6-0.3-0.3-0.4-0.6-0.6-1-0.1-0.4-0.2-0.8-0.2-1.3s0.1-0.9 0.2-1.3 0.3-0.7 0.6-1 0.6-0.5 0.9-0.6c0.4-0.2 0.8-0.2 1.2-0.2zm0 5.3c0.6 0 1-0.2 1.3-0.6s0.4-0.9 0.4-1.7c0-0.7-0.1-1.3-0.4-1.7s-0.7-0.6-1.3-0.6-1 0.2-1.3 0.6-0.4 0.9-0.4 1.7c0 0.7 0.1 1.3 0.4 1.7s0.7 0.6 1.3 0.6z"
             style="fill:#ffffff" /><path
             id="XMLID_129_"
             class="st0"
             d="m273.2 18.9v3.9c0 0.4 0.1 0.8 0.3 1s0.5 0.4 0.9 0.4c0.3 0 0.6-0.1 0.9-0.2s0.5-0.3 0.7-0.6v-4.5h1.1v6.1h-0.7c-0.2 0-0.3-0.1-0.3-0.2l-0.1-0.6c-0.3 0.3-0.6 0.5-0.9 0.7s-0.7 0.3-1.1 0.3c-0.3 0-0.6-0.1-0.9-0.2s-0.5-0.3-0.6-0.5-0.3-0.4-0.4-0.7-0.1-0.6-0.1-0.9v-3.9h1.2z"
             style="fill:#ffffff" /><path
             id="XMLID_131_"
             class="st0"
             d="m278.9 24.9v-6.1h0.7c0.1 0 0.2 0 0.3 0.1s0.1 0.1 0.1 0.2l0.1 0.9c0.2-0.4 0.4-0.7 0.7-1 0.3-0.2 0.6-0.3 1-0.3h0.4c0.1 0 0.2 0.1 0.3 0.1l-0.1 0.9c0 0.1-0.1 0.2-0.2 0.2h-0.2-0.4c-0.2 0-0.4 0-0.5 0.1s-0.3 0.1-0.4 0.2-0.2 0.2-0.3 0.4-0.2 0.3-0.2 0.5v3.8h-1.3z"
             style="fill:#ffffff" /><path
             id="XMLID_133_"
             class="st0"
             d="m285.1 18.9h0.9c0.1 0 0.2 0 0.2 0.1 0.1 0 0.1 0.1 0.1 0.2l1.1 3.8c0 0.2 0.1 0.3 0.1 0.4s0.1 0.3 0.1 0.4c0-0.1 0.1-0.3 0.1-0.4s0.1-0.3 0.1-0.4l1.2-3.8c0-0.1 0.1-0.1 0.1-0.2 0.1 0 0.1-0.1 0.2-0.1h0.5c0.1 0 0.2 0 0.2 0.1s0.1 0.1 0.1 0.2l1.2 3.8c0 0.2 0.1 0.3 0.1 0.4s0.1 0.3 0.1 0.4c0-0.1 0.1-0.3 0.1-0.4s0.1-0.3 0.1-0.4l1.1-3.8c0-0.1 0.1-0.1 0.1-0.2s0.1-0.1 0.2-0.1h0.9l-2 6.1h-0.9c-0.1 0-0.2-0.1-0.2-0.2l-1.3-4c0-0.1-0.1-0.2-0.1-0.3s0-0.2-0.1-0.3c0 0.1 0 0.2-0.1 0.3 0 0.1 0 0.2-0.1 0.3l-1.3 4c0 0.1-0.1 0.2-0.3 0.2h-0.9l-1.6-6.1z"
             style="fill:#ffffff" /><path
             id="XMLID_135_"
             class="st0"
             d="m297.7 18.8c0.4 0 0.9 0.1 1.2 0.2s0.7 0.4 0.9 0.6 0.4 0.6 0.6 1c0.1 0.4 0.2 0.8 0.2 1.3s-0.1 0.9-0.2 1.3-0.3 0.7-0.6 1-0.6 0.5-0.9 0.6c-0.4 0.1-0.8 0.2-1.2 0.2s-0.9-0.1-1.2-0.2c-0.4-0.1-0.7-0.4-0.9-0.6-0.3-0.3-0.4-0.6-0.6-1-0.1-0.4-0.2-0.8-0.2-1.3s0.1-0.9 0.2-1.3 0.3-0.7 0.6-1 0.6-0.5 0.9-0.6c0.4-0.2 0.8-0.2 1.2-0.2zm0 5.3c0.6 0 1-0.2 1.3-0.6s0.4-0.9 0.4-1.7c0-0.7-0.1-1.3-0.4-1.7s-0.7-0.6-1.3-0.6-1 0.2-1.3 0.6-0.4 0.9-0.4 1.7c0 0.7 0.1 1.3 0.4 1.7s0.8 0.6 1.3 0.6z"
             style="fill:#ffffff" /><path
             id="XMLID_138_"
             class="st0"
             d="m302 24.9v-6.1h0.7c0.1 0 0.2 0 0.3 0.1s0.1 0.1 0.1 0.2l-0.1 0.9c0.2-0.4 0.4-0.7 0.7-1 0.3-0.2 0.6-0.3 1-0.3h0.4c0.1 0 0.2 0.1 0.3 0.1l-0.1 0.9c0 0.1-0.1 0.2-0.2 0.2h-0.2-0.4c-0.2 0-0.4 0-0.5 0.1s-0.3 0.1-0.4 0.2-0.2 0.2-0.3 0.4-0.2 0.3-0.2 0.5v3.8h-1.1z"
             style="fill:#ffffff" /><path
             id="XMLID_140_"
             class="st0"
             d="m307.5 16.1v5.2h0.3 0.2c0.1 0 0.1-0.1 0.2-0.1l1.9-2 0.2-0.2c0.1 0 0.2-0.1 0.3-0.1h1l-2.2 2.4c-0.1 0.1-0.2 0.3-0.4 0.3 0.1 0 0.1 0.1 0.2 0.2l0.2 0.2 2.3 3h-1-0.2c-0.1 0-0.1-0.1-0.2-0.2l-1.9-2.5-0.2-0.2h-0.3-0.3v2.9h-1.1v-8.9h1z"
             style="fill:#ffffff" /><path
             id="XMLID_142_"
             class="st0"
             d="m312.3 24.3c0-0.1 0-0.2 0.1-0.3s0.1-0.2 0.2-0.2l0.2-0.2c0.1 0 0.2-0.1 0.3-0.1s0.2 0 0.3 0.1 0.2 0.1 0.2 0.2 0.1 0.2 0.2 0.2 0.1 0.2 0.1 0.3 0 0.2-0.1 0.3c0 0.1-0.1 0.2-0.2 0.2-0.1 0.1-0.2 0.1-0.2 0.2-0.1 0-0.2 0.1-0.3 0.1s-0.2 0-0.3-0.1c-0.1 0-0.2-0.1-0.2-0.2-0.1-0.1-0.1-0.2-0.2-0.2-0.1-0.1-0.1-0.2-0.1-0.3z"
             style="fill:#ffffff" /></g></g></g><g
       id="g4393"
       style="fill:#ffffff"><path
         id="XMLID_40_"
         d="m367.3 475.6 16.3-23.3c7.8 7.5 19.4 13.4 33.4 13.4 5.9 0 11.5-1.6 11.5-5.6 0-9.9-57.8 0.2-57.8-40.7 0-17.6 14.6-34.3 43-34.3 16.9 0 32.2 4.8 44 14.5l-16.8 22.2c-9-6.8-20.7-10.3-30.5-10.3-6.2 0-7.9 2-7.9 4.7 0 9.8 57.7 1.4 57.7 39.9 0 22.8-16.9 36.1-44.8 36.1-22-0.1-37.1-6.7-48.1-16.6z"
         class="st0"
         style="fill:#ffffff" /><path
         id="XMLID_38_"
         d="m565.7 490.2v-43.8c0-4.5-2.3-8.4-8.5-8.4s-9.6 3.7-11.5 5.9v46.3h-28v-43.8c0-4.5-2.2-8.4-8.5-8.4-6.1 0-9.5 3.7-11.3 5.9v46.3h-28v-75.1h28v8.5c3.3-4.2 12.7-10.4 24.9-10.4 10.6 0 18.2 3.9 21.6 13.2 4.4-6.5 14.1-13.2 26.3-13.2 13.8 0 23.2 7 23.2 22.5v54.4h-28.2z"
         class="st0"
         style="fill:#ffffff" /><path
         id="XMLID_35_"
         d="m652.6 490.2v-7.2c-4.2 5.3-13.4 9-22.7 9-11.2 0-25.8-7.6-25.8-24.7 0-18.6 14.6-23.9 25.8-23.9 9.8 0 18.6 3.1 22.7 8.2v-7.8c0-5.3-4.8-9.3-14-9.3-7 0-14.9 2.8-20.8 7.3l-9.5-17.2c10.1-8.1 24.1-11.3 35.4-11.3 18.6 0 36.8 6.5 36.8 31.5v45.4h-27.9zm0-20.4v-4.2c-1.9-2.6-6.7-4-11-4-4.7 0-9.8 1.6-9.8 6.2 0 4.7 5.1 6.1 9.8 6.1 4.3 0 9.1-1.4 11-4.1z"
         class="st0"
         style="fill:#ffffff" /><path
         id="XMLID_33_"
         d="m694.7 490.2v-75.1h28v8.9c4.7-5.4 14.5-8.9 23-8.9v24.2c-2.3-0.4-3.7-0.5-6.4-0.5-5.9 0-13.5 4.2-16.6 7.9v43.3h-28z"
         class="st0"
         style="fill:#ffffff" /><path
         id="XMLID_31_"
         d="m767.3 468.4v-29.1h-12.4v-24.2h12.4v-27.5h28v27.5h15.2v24.2h-15.2v21c0 3.9 2.5 7 6.2 7 2.5 0 5-0.8 5.6-1.4l5 21.1c-3 2.6-9.5 5-19 5-16.6 0.1-25.8-7.9-25.8-23.6z"
         class="st0"
         style="fill:#ffffff" /><path
         id="XMLID_28_"
         d="m871.4 490.2v-7.9c-6.4 7.1-13.5 9.8-21.1 9.8-18.2 0-33.1-13.7-33.1-39.5 0-24.9 14.6-39.3 33.1-39.3 7.6 0 15.2 2.6 21.1 9.8v-35.5h28v102.7h-28zm0-28v-19.3c-2.6-3.3-7.9-5-11.7-5-7.6 0-14 5.3-14 14.6s6.4 14.8 14 14.8c3.8 0 9.1-1.8 11.7-5.1z"
         class="st0"
         style="fill:#ffffff" /><path
         id="XMLID_26_"
         d="m953.3 452.6c0-23.8 18.3-39.3 42.1-39.3 17.1 0 27.7 7.8 31.9 14.1l-18 16.9c-2.3-3.6-6.7-6.4-12.6-6.4-7.9 0-14.8 5-14.8 14.6s6.8 14.8 14.8 14.8c5.9 0 10.3-3.1 12.6-6.5l18 17.1c-4.2 6.2-14.8 14.1-31.9 14.1-23.7 0.1-42.1-15.5-42.1-39.4z"
         class="st0"
         style="fill:#ffffff" /><path
         id="XMLID_23_"
         d="m1031.3 452.6c0-21.8 16.6-39.3 40.9-39.3 22.1 0 39 15.9 39 42.3v5.7h-51c1.6 4.8 7 9.5 16.2 9.5 4.2 0 13.5-2 17.2-5.3l11.5 17.2c-7.5 6.4-20.8 9.3-32 9.3-23.4 0.1-41.8-14.7-41.8-39.4zm40.9-18c-8.5 0-11.3 5.6-12.3 9h24.7c-0.7-3.3-3.4-9-12.4-9z"
         class="st0"
         style="fill:#ffffff" /><g
         id="XMLID_17_"
         style="fill:#ffffff"><rect
           id="XMLID_21_"
           height="75.1"
           width="28"
           y="415.1"
           x="914.9"
           class="st0"
           style="fill:#ffffff" /><path
           id="XMLID_19_"
           d="m915.7 387.6c-1.5 2.4-2.5 4.3-2.5 7.4 0 8.7 7 15.7 15.7 15.7s15.7-7 15.7-15.7c0-3.1-0.9-5-2.5-7.4h-26.4z"
           class="st0"
           style="fill:#ffffff" /></g><path
         id="XMLID_15_"
         d="m267.5 382.5c-1.9-1.1-4.2-1.1-6.1 0l-82.4 48.2-16.1-9.1 74.8-43.8c2.9-1.7 3.8-5.4 2.2-8.3-0.8-1.4-2.1-2.4-3.7-2.8s-3.2-0.2-4.6 0.6l-80.8 47.3-16.8-9.5 76.5-44.8c2.9-1.7 3.8-5.4 2.2-8.3-1.7-2.9-5.4-3.8-8.3-2.2l-82.6 48.4-16.1-9.1 75-43.9c2.9-1.7 3.8-5.4 2.2-8.3-1.7-2.9-5.4-3.8-8.3-2.2l-83.5 48.7-1.2 0.9c-0.7 0.5-1.2 1.1-1.6 1.8-1.6 2.9-0.6 6.6 2.3 8.2l82 46.5v18.7l-76.1-43.1c-2.9-1.6-6.6-0.6-8.2 2.3s-0.6 6.6 2.3 8.2l82 46.5v18.7l-76.1-43.1c-2.9-1.6-6.6-0.6-8.2 2.3s-0.6 6.6 2.3 8.2l82 46.5v18.7l-76.1-43.1c-2.9-1.6-6.6-0.6-8.2 2.3s-0.6 6.6 2.3 8.2l84.2 47.7c0.9 0.5 1.9 0.8 3 0.8 0.3 0 0.6 0 1-0.1 3.3 0 6-2.7 6-6v-93.1l16.7-9.8v87.9c0 3.3 2.7 6 6 6s6-2.7 6-6v-95l17.7-10.4v89.6c0 3.3 2.7 6 6 6s6-2.7 6-6v-96.7l15.1-8.9v90.3c0 3.3 2.7 6 6 6s6-2.7 6-6v-100.8c0.3-2-0.9-4-2.8-5.1z"
         class="st0"
         style="fill:#ffffff" /></g></g><style
     id="style3-0"
     type="text/css">
	.st0{fill:#FFFFFF;}
</style></svg>