<?xml version="1.0" encoding="UTF-8" standalone="no"?>
<svg
   xmlns:dc="http://purl.org/dc/elements/1.1/"
   xmlns:cc="http://creativecommons.org/ns#"
   xmlns:rdf="http://www.w3.org/1999/02/22-rdf-syntax-ns#"
   xmlns:svg="http://www.w3.org/2000/svg"
   xmlns="http://www.w3.org/2000/svg"
   xmlns:sodipodi="http://sodipodi.sourceforge.net/DTD/sodipodi-0.dtd"
   xmlns:inkscape="http://www.inkscape.org/namespaces/inkscape"
   version="1.1"
   id="svg2"
   viewBox="0 0 1665.0716 237.60311"
   height="67.056877mm"
   width="469.9202mm"
   inkscape:version="0.91 r"
   sodipodi:docname="sd_slogan.svg">
  <sodipodi:namedview
     pagecolor="#ffffff"
     bordercolor="#666666"
     borderopacity="1"
     objecttolerance="10"
     gridtolerance="10"
     guidetolerance="10"
     inkscape:pageopacity="0"
     inkscape:pageshadow="2"
     inkscape:window-width="1920"
     inkscape:window-height="1052"
     id="namedview10"
     showgrid="false"
     inkscape:zoom="0.21740807"
     inkscape:cx="241.48137"
     inkscape:cy="118.80155"
     inkscape:window-x="0"
     inkscape:window-y="1"
     inkscape:window-maximized="1"
     inkscape:current-layer="svg2" />
  <defs
     id="defs4" />
  <metadata
     id="metadata7">
    <rdf:RDF>
      <cc:Work
         rdf:about="">
        <dc:format>image/svg+xml</dc:format>
        <dc:type
           rdf:resource="http://purl.org/dc/dcmitype/StillImage" />
        <dc:title />
      </cc:Work>
    </rdf:RDF>
  </metadata>
  <g
     transform="translate(604.25598,-346.67187)"
     id="layer1">
    <g
       style="font-style:normal;font-variant:normal;font-weight:normal;font-stretch:normal;font-size:119.02923584px;line-height:125%;font-family:'Droid Sans';-inkscape-font-specification:'Droid Sans';letter-spacing:0px;word-spacing:0px;fill:#ffffff;fill-opacity:1;stroke:none;stroke-width:1px;stroke-linecap:butt;stroke-linejoin:miter;stroke-opacity:1"
       id="text4136">
      <path
         d="m -574.85576,426.65952 c 36.18489,0 50.82548,-24.28197 50.82548,-45.46917 0,-20.11594 -16.06894,-33.92333 -33.8043,-33.92333 l -28.92411,0 -17.49729,79.3925 29.40022,0 z m -0.59515,-67.13249 15.11672,0 c 12.61709,0 21.90137,9.64136 21.90137,22.61555 0,17.37827 -12.97418,32.25692 -33.92333,32.25692 l -15.23574,0 12.14098,-54.87247 z"
         style="font-style:italic;font-variant:normal;font-weight:600;font-stretch:normal;font-family:'Proxima Nova';-inkscape-font-specification:'Proxima Nova Semi-Bold Italic';fill:#ffffff"
         id="path4139" />
      <path
         d="m -488.68604,428.08787 c 7.26079,0 14.87866,-2.49962 20.354,-6.30855 l -4.04699,-8.80817 c -3.92797,3.21379 -9.99846,4.8802 -15.35477,4.8802 -11.66487,0 -17.37827,-7.26078 -17.37827,-13.92642 0,-0.59514 0,-1.54738 0.11903,-1.90447 l 44.3979,0 c 0.47612,-1.78543 1.1903,-5.83243 1.1903,-8.92719 0,-15.4738 -10.47458,-25.35323 -25.47226,-25.35323 -18.68759,0 -32.85207,15.83089 -32.85207,34.63751 0,15.71186 11.30778,25.71032 29.04313,25.71032 z m 17.73536,-34.9946 -32.73304,0 c 1.42835,-7.97496 8.80816,-15.11671 17.97341,-15.11671 9.99846,0 15.11672,6.07049 15.11672,13.56933 0,0.35709 -0.11903,1.19029 -0.11903,1.54738 l -0.23806,0 z"
         style="font-style:italic;font-variant:normal;font-weight:600;font-stretch:normal;font-family:'Proxima Nova';-inkscape-font-specification:'Proxima Nova Semi-Bold Italic';fill:#ffffff"
         id="path4141" />
      <path
         d="m -423.97692,428.08787 c 9.7604,0 16.6641,-4.28506 21.18721,-9.04623 l -6.78467,-8.33204 c -3.09476,3.6899 -7.7369,6.30855 -13.21224,6.30855 -8.80817,0 -15.83089,-5.47535 -15.83089,-15.4738 0,-12.02196 7.85593,-22.73459 20.23497,-22.73459 5.59437,0 10.47457,2.49962 13.09321,7.14176 l 9.40331,-7.14176 c -3.92796,-6.54661 -11.30777,-11.06972 -22.49652,-11.06972 -18.56856,0 -33.09013,15.4738 -33.09013,34.39945 0,15.83089 11.06972,25.94838 27.49575,25.94838 z"
         style="font-style:italic;font-variant:normal;font-weight:600;font-stretch:normal;font-family:'Proxima Nova';-inkscape-font-specification:'Proxima Nova Semi-Bold Italic';fill:#ffffff"
         id="path4143" />
      <path
         d="m -364.69477,428.08787 c 19.04468,0 32.73304,-16.54507 32.73304,-34.51848 0,-15.11672 -9.99845,-25.82935 -27.49575,-25.82935 -19.04468,0 -32.73304,16.42604 -32.73304,34.39945 0,15.11672 9.99846,25.94838 27.49575,25.94838 z m 0.47612,-11.06972 c -9.40331,0 -14.99768,-5.95146 -14.99768,-15.35477 0,-11.7839 7.97496,-22.85362 19.28273,-22.85362 9.40331,0 14.99769,5.95146 14.99769,15.35477 0,11.66487 -7.97496,22.85362 -19.28274,22.85362 z"
         style="font-style:italic;font-variant:normal;font-weight:600;font-stretch:normal;font-family:'Proxima Nova';-inkscape-font-specification:'Proxima Nova Semi-Bold Italic';fill:#ffffff"
         id="path4145" />
      <path
         d="m -274.68264,426.65952 8.68913,-39.63674 c 0.35709,-1.30932 0.71417,-3.80894 0.71417,-4.8802 0,-9.04622 -7.02272,-14.40254 -17.73535,-14.40254 -8.33205,0 -14.87866,4.64214 -19.63983,9.16525 l 1.78544,-7.7369 -12.49807,0 -12.73612,57.49113 12.49807,0 8.92719,-40.11286 c 3.80893,-3.92796 9.40331,-7.7369 15.23574,-7.7369 6.07049,0 10.71263,2.26156 10.71263,8.09399 0,1.19029 -0.23806,2.49961 -0.47612,3.68991 l -7.97495,36.06586 12.49807,0 z"
         style="font-style:italic;font-variant:normal;font-weight:600;font-stretch:normal;font-family:'Proxima Nova';-inkscape-font-specification:'Proxima Nova Semi-Bold Italic';fill:#ffffff"
         id="path4147" />
      <path
         d="m -234.64603,428.08787 c 15.23574,0 23.92488,-9.04623 23.92488,-19.63983 0,-17.14021 -29.63828,-15.59283 -29.63828,-24.0439 0,-3.80894 3.6899,-6.78467 9.99845,-6.78467 7.26079,0 14.40254,3.80894 17.02118,7.7369 l 6.78467,-8.33205 c -4.8802,-5.35631 -13.68836,-9.28428 -23.44876,-9.28428 -14.6406,0 -22.85361,8.80817 -22.85361,18.68759 0,16.6641 29.75731,14.87866 29.75731,23.92488 0,4.16602 -3.92797,7.7369 -10.47458,7.7369 -8.45107,0 -16.307,-4.76117 -19.63982,-8.92719 l -7.37981,8.5701 c 6.07049,6.78467 15.4738,10.35555 25.94837,10.35555 z"
         style="font-style:italic;font-variant:normal;font-weight:600;font-stretch:normal;font-family:'Proxima Nova';-inkscape-font-specification:'Proxima Nova Semi-Bold Italic';fill:#ffffff"
         id="path4149" />
      <path
         d="m -181.48087,428.08787 c 3.57088,0 6.78466,-0.95224 9.04622,-2.61865 l -0.71418,-9.99845 c -0.95223,0.71417 -2.97573,1.54738 -4.76116,1.54738 -3.80894,0 -5.71341,-2.0235 -5.71341,-5.23729 0,-0.71417 0.11903,-1.42835 0.23806,-2.14253 l 6.54661,-29.63828 11.66486,0 2.49962,-10.83166 -11.66487,0 3.45185,-15.71185 -12.49807,0 -3.45185,15.71185 -9.52234,0 -2.49961,10.83166 9.52234,0 -7.26078,32.73304 c -0.23806,1.42836 -0.35709,3.09476 -0.35709,3.68991 0,7.97496 6.18952,11.66487 15.4738,11.66487 z"
         style="font-style:italic;font-variant:normal;font-weight:600;font-stretch:normal;font-family:'Proxima Nova';-inkscape-font-specification:'Proxima Nova Semi-Bold Italic';fill:#ffffff"
         id="path4151" />
      <path
         d="m -151.79982,426.65952 8.57011,-38.92256 c 3.45185,-4.28506 9.28428,-7.97496 15.35477,-7.97496 2.26156,0 4.16602,0.35708 4.99923,0.59514 l 2.8567,-12.6171 c -9.52234,0 -15.59283,3.57088 -20.83012,9.40331 l 1.78544,-7.97496 -12.49807,0 -12.73613,57.49113 12.49807,0 z"
         style="font-style:italic;font-variant:normal;font-weight:600;font-stretch:normal;font-family:'Proxima Nova';-inkscape-font-specification:'Proxima Nova Semi-Bold Italic';fill:#ffffff"
         id="path4153" />
      <path
         d="m -110.1805,369.16839 -8.80816,39.63674 c -0.23806,1.19029 -0.59515,3.68991 -0.59515,4.76117 0,9.04622 6.9037,14.52157 17.61633,14.52157 8.332043,0 14.878651,-4.76117 19.63982,-9.28428 l -1.785438,7.85593 12.49807,0 12.736128,-57.49113 -12.49807,0 -8.808163,39.99383 c -3.808936,3.92796 -9.522339,7.85593 -15.354772,7.85593 -6.070495,0 -10.712635,-2.38059 -10.712635,-8.21302 0,-1.19029 0.35709,-2.49961 0.59515,-3.68991 l 7.974959,-35.94683 -12.498069,0 z"
         style="font-style:italic;font-variant:normal;font-weight:600;font-stretch:normal;font-family:'Proxima Nova';-inkscape-font-specification:'Proxima Nova Semi-Bold Italic';fill:#ffffff"
         id="path4155" />
      <path
         d="m -25.740405,428.08787 c 9.760397,0 16.6640927,-4.28506 21.1872037,-9.04623 l -6.7846667,-8.33204 c -3.09476,3.6899 -7.7369,6.30855 -13.212245,6.30855 -8.808163,0 -15.830888,-5.47535 -15.830888,-15.4738 0,-12.02196 7.855929,-22.73459 20.23497,-22.73459 5.594374,0 10.4745726,2.49962 13.0932158,7.14176 l 9.4033096,-7.14176 c -3.9279648,-6.54661 -11.3077774,-11.06972 -22.4965254,-11.06972 -18.568561,0 -33.090128,15.4738 -33.090128,34.39945 0,15.83089 11.069719,25.94838 27.495754,25.94838 z"
         style="font-style:italic;font-variant:normal;font-weight:600;font-stretch:normal;font-family:'Proxima Nova';-inkscape-font-specification:'Proxima Nova Semi-Bold Italic';fill:#ffffff"
         id="path4157" />
      <path
         d="m 24.495477,428.08787 c 3.570877,0 6.784667,-0.95224 9.046222,-2.61865 l -0.714175,-9.99845 c -0.952234,0.71417 -2.975731,1.54738 -4.76117,1.54738 -3.808935,0 -5.713403,-2.0235 -5.713403,-5.23729 0,-0.71417 0.119029,-1.42835 0.238059,-2.14253 l 6.546607,-29.63828 11.664866,0 2.499614,-10.83166 -11.664866,0 3.451848,-15.71185 -12.498069,0 -3.451848,15.71185 -9.5223392,0 -2.4996139,10.83166 9.5223391,0 -7.2607837,32.73304 c -0.2380584,1.42836 -0.3570877,3.09476 -0.3570877,3.68991 0,7.97496 6.1895204,11.66487 15.4738004,11.66487 z"
         style="font-style:italic;font-variant:normal;font-weight:600;font-stretch:normal;font-family:'Proxima Nova';-inkscape-font-specification:'Proxima Nova Semi-Bold Italic';fill:#ffffff"
         id="path4159" />
      <path
         d="m 62.984727,362.14567 c 3.927965,0 8.808164,-3.21379 8.808164,-8.80816 0,-3.68991 -2.975731,-6.66564 -7.022725,-6.66564 -3.927965,0 -8.808163,3.21379 -8.808163,8.80816 0,3.57088 2.97573,6.66564 7.022724,6.66564 z m -8.808163,64.51385 12.736128,-57.49113 -12.49807,0 -12.736128,57.49113 12.49807,0 z"
         style="font-style:italic;font-variant:normal;font-weight:600;font-stretch:normal;font-family:'Proxima Nova';-inkscape-font-specification:'Proxima Nova Semi-Bold Italic';fill:#ffffff"
         id="path4161" />
      <path
         d="m 121.69403,426.65952 8.68914,-39.63674 c 0.35709,-1.30932 0.71417,-3.80894 0.71417,-4.8802 0,-9.04622 -7.02272,-14.40254 -17.73535,-14.40254 -8.33205,0 -14.878657,4.64214 -19.639827,9.16525 l 1.785439,-7.7369 -12.49807,0 -12.736128,57.49113 12.49807,0 8.927192,-40.11286 c 3.808936,-3.92796 9.403314,-7.7369 15.235744,-7.7369 6.07049,0 10.71263,2.26156 10.71263,8.09399 0,1.19029 -0.23806,2.49961 -0.47612,3.68991 l -7.97496,36.06586 12.49807,0 z"
         style="font-style:italic;font-variant:normal;font-weight:600;font-stretch:normal;font-family:'Proxima Nova';-inkscape-font-specification:'Proxima Nova Semi-Bold Italic';fill:#ffffff"
         id="path4163" />
      <path
         d="m 161.49256,449.98925 c 12.37904,0 25.35323,-5.71341 29.99537,-26.30547 l 12.14098,-54.51539 -12.49807,0 -1.90447,8.21302 c -4.28505,-5.83243 -11.90292,-9.64137 -19.28273,-9.64137 -18.56857,0 -29.87634,17.4973 -29.87634,35.35169 0,16.42603 10.11748,23.44876 21.78235,23.44876 7.49884,0 14.04545,-3.57088 18.44953,-9.16526 l -1.42835,6.30855 c -2.73767,12.37905 -9.87943,16.06895 -17.61633,16.06895 -7.97496,0 -15.35477,-2.61864 -19.16371,-7.97496 l -7.49884,8.33205 c 6.66564,7.37981 15.83089,9.87943 26.90061,9.87943 z m 5.95146,-34.51848 c -8.5701,0 -14.28351,-5.71341 -14.28351,-14.6406 0,-11.66486 7.26079,-22.02041 18.21148,-22.02041 6.78466,0 12.85515,3.09476 15.71186,8.09399 l -4.64214,20.83012 c -3.57088,4.28505 -9.28429,7.7369 -14.99769,7.7369 z"
         style="font-style:italic;font-variant:normal;font-weight:600;font-stretch:normal;font-family:'Proxima Nova';-inkscape-font-specification:'Proxima Nova Semi-Bold Italic';fill:#ffffff"
         id="path4165" />
      <path
         d="m 258.36932,428.08787 c 3.57087,0 6.78466,-0.95224 9.04622,-2.61865 l -0.71418,-9.99845 c -0.95223,0.71417 -2.97573,1.54738 -4.76117,1.54738 -3.80893,0 -5.7134,-2.0235 -5.7134,-5.23729 0,-0.71417 0.11903,-1.42835 0.23806,-2.14253 l 6.54661,-29.63828 11.66486,0 2.49962,-10.83166 -11.66487,0 3.45185,-15.71185 -12.49807,0 -3.45185,15.71185 -9.52234,0 -2.49961,10.83166 9.52234,0 -7.26079,32.73304 c -0.23805,1.42836 -0.35708,3.09476 -0.35708,3.68991 0,7.97496 6.18952,11.66487 15.4738,11.66487 z"
         style="font-style:italic;font-variant:normal;font-weight:600;font-stretch:normal;font-family:'Proxima Nova';-inkscape-font-specification:'Proxima Nova Semi-Bold Italic';fill:#ffffff"
         id="path4167" />
      <path
         d="m 326.97296,426.65952 8.68914,-39.63674 c 0.35709,-1.19029 0.71417,-3.68991 0.71417,-4.8802 0,-9.04622 -7.02272,-14.40254 -17.73535,-14.40254 -8.33205,0 -14.87866,4.64214 -19.63983,9.16525 l 6.66564,-29.63827 -12.49807,0 -17.4973,79.3925 12.49807,0 8.80817,-40.11286 c 3.80893,-3.80893 9.40331,-7.7369 15.23574,-7.7369 6.07049,0 10.71263,2.26156 10.71263,8.09399 0,0.95223 -0.23806,2.61864 -0.47612,3.57088 l -7.97496,36.18489 12.49807,0 z"
         style="font-style:italic;font-variant:normal;font-weight:600;font-stretch:normal;font-family:'Proxima Nova';-inkscape-font-specification:'Proxima Nova Semi-Bold Italic';fill:#ffffff"
         id="path4169" />
      <path
         d="m 374.50839,428.08787 c 7.26078,0 14.87866,-2.49962 20.354,-6.30855 l -4.04699,-8.80817 c -3.92797,3.21379 -9.99846,4.8802 -15.35478,4.8802 -11.66486,0 -17.37826,-7.26078 -17.37826,-13.92642 0,-0.59514 0,-1.54738 0.11903,-1.90447 l 44.3979,0 c 0.47612,-1.78543 1.19029,-5.83243 1.19029,-8.92719 0,-15.4738 -10.47457,-25.35323 -25.47225,-25.35323 -18.68759,0 -32.85207,15.83089 -32.85207,34.63751 0,15.71186 11.30777,25.71032 29.04313,25.71032 z m 17.73536,-34.9946 -32.73304,0 c 1.42835,-7.97496 8.80816,-15.11671 17.97341,-15.11671 9.99846,0 15.11671,6.07049 15.11671,13.56933 0,0.35709 -0.11902,1.19029 -0.11902,1.54738 l -0.23806,0 z"
         style="font-style:italic;font-variant:normal;font-weight:600;font-stretch:normal;font-family:'Proxima Nova';-inkscape-font-specification:'Proxima Nova Semi-Bold Italic';fill:#ffffff"
         id="path4171" />
      <path
         d="m 473.47561,428.08787 c 19.16371,0 30.23343,-18.68759 30.23343,-36.66101 0,-15.11671 -8.92719,-23.68682 -22.02041,-23.68682 -7.26078,0 -13.21224,3.21379 -17.97341,9.04623 l 1.66641,-7.61788 -12.49807,0 -17.61633,79.3925 12.49807,0 6.66564,-30.11439 c 3.80893,5.95146 10.83166,9.64137 19.04467,9.64137 z m -1.90446,-11.06972 c -7.02273,0 -12.49807,-3.45185 -15.11672,-7.85593 l 4.99923,-22.25847 c 3.33282,-4.52311 8.92719,-8.09399 14.99768,-8.09399 8.33205,0 14.16448,5.83244 14.16448,15.11672 0,12.02195 -7.7369,23.09167 -19.04467,23.09167 z"
         style="font-style:italic;font-variant:normal;font-weight:600;font-stretch:normal;font-family:'Proxima Nova';-inkscape-font-specification:'Proxima Nova Semi-Bold Italic';fill:#ffffff"
         id="path4173" />
      <path
         d="m 541.33722,367.74004 c -19.04468,0 -30.23342,18.68759 -30.23342,36.54198 0,15.11671 9.04622,23.80585 22.02041,23.80585 7.26078,0 13.21224,-3.21379 18.09244,-9.04623 l -1.78544,7.61788 12.49807,0 12.73613,-57.49113 -12.49807,0 -1.78544,8.21302 c -3.80894,-5.95146 -10.71263,-9.64137 -19.04468,-9.64137 z m 1.90447,11.06972 c 7.02272,0 12.49807,3.33282 15.11671,7.7369 l -4.8802,22.25847 c -3.45184,4.52311 -8.92719,8.21302 -15.11671,8.21302 -8.21302,0 -14.16448,-5.95146 -14.16448,-15.23574 0,-11.90293 7.7369,-22.97265 19.04468,-22.97265 z"
         style="font-style:italic;font-variant:normal;font-weight:600;font-stretch:normal;font-family:'Proxima Nova';-inkscape-font-specification:'Proxima Nova Semi-Bold Italic';fill:#ffffff"
         id="path4175" />
      <path
         d="m 601.81326,428.08787 c 15.23574,0 23.92488,-9.04623 23.92488,-19.63983 0,-17.14021 -29.63828,-15.59283 -29.63828,-24.0439 0,-3.80894 3.6899,-6.78467 9.99845,-6.78467 7.26079,0 14.40254,3.80894 17.02118,7.7369 l 6.78467,-8.33205 c -4.8802,-5.35631 -13.68836,-9.28428 -23.44876,-9.28428 -14.6406,0 -22.85361,8.80817 -22.85361,18.68759 0,16.6641 29.75731,14.87866 29.75731,23.92488 0,4.16602 -3.92797,7.7369 -10.47458,7.7369 -8.45107,0 -16.307,-4.76117 -19.63982,-8.92719 l -7.37981,8.5701 c 6.07049,6.78467 15.4738,10.35555 25.94837,10.35555 z"
         style="font-style:italic;font-variant:normal;font-weight:600;font-stretch:normal;font-family:'Proxima Nova';-inkscape-font-specification:'Proxima Nova Semi-Bold Italic';fill:#ffffff"
         id="path4177" />
      <path
         d="m 654.97851,428.08787 c 3.57088,0 6.78467,-0.95224 9.04622,-2.61865 l -0.71417,-9.99845 c -0.95224,0.71417 -2.97573,1.54738 -4.76117,1.54738 -3.80894,0 -5.71341,-2.0235 -5.71341,-5.23729 0,-0.71417 0.11903,-1.42835 0.23806,-2.14253 l 6.54661,-29.63828 11.66486,0 2.49962,-10.83166 -11.66487,0 3.45185,-15.71185 -12.49807,0 -3.45185,15.71185 -9.52233,0 -2.49962,10.83166 9.52234,0 -7.26078,32.73304 c -0.23806,1.42836 -0.35709,3.09476 -0.35709,3.68991 0,7.97496 6.18952,11.66487 15.4738,11.66487 z"
         style="font-style:italic;font-variant:normal;font-weight:600;font-stretch:normal;font-family:'Proxima Nova';-inkscape-font-specification:'Proxima Nova Semi-Bold Italic';fill:#ffffff"
         id="path4179" />
      <path
         d="m 688.94459,419.75582 c 0,-5.59437 -3.80894,-8.45108 -7.97496,-8.45108 -4.64214,0 -9.16525,3.92797 -9.16525,8.80817 0,4.28505 2.97573,6.78466 6.42758,6.78466 0.23805,0 0.95223,0 1.07126,0 -1.66641,4.047 -6.66564,7.97496 -10.95069,9.99846 l 4.64214,4.8802 c 8.80816,-4.40408 15.94992,-13.56933 15.94992,-22.02041 z"
         style="font-style:italic;font-variant:normal;font-weight:600;font-stretch:normal;font-family:'Proxima Nova';-inkscape-font-specification:'Proxima Nova Semi-Bold Italic';fill:#ffffff"
         id="path4181" />
    </g>
    <g
       style="font-style:normal;font-variant:normal;font-weight:normal;font-stretch:normal;font-size:119.02923584px;line-height:125%;font-family:'Droid Sans';-inkscape-font-specification:'Droid Sans';letter-spacing:0px;word-spacing:0px;fill:#ffffff;fill-opacity:1;stroke:none;stroke-width:1px;stroke-linecap:butt;stroke-linejoin:miter;stroke-opacity:1"
       id="text4140">
      <path
         d="m 100.14367,562.3736 c 19.1637,0 30.23342,-18.68759 30.23342,-36.661 0,-15.11672 -8.92719,-23.68682 -22.02041,-23.68682 -7.26078,0 -13.212242,3.21379 -17.973411,9.04622 l 6.427578,-29.51925 -12.498069,0 -17.497298,79.3925 12.49807,0 1.785438,-8.21302 c 3.808936,5.95147 10.831661,9.64137 19.044682,9.64137 z m -1.904472,-11.06972 c -7.022725,0 -12.498069,-3.45184 -15.116713,-7.85593 l 4.999228,-22.25846 c 3.332819,-4.52311 8.927193,-8.09399 14.997687,-8.09399 8.33204,0 14.16448,5.83243 14.16448,15.11671 0,12.02195 -7.7369,23.09167 -19.044682,23.09167 z"
         style="font-style:italic;font-variant:normal;font-weight:600;font-stretch:normal;font-family:'Proxima Nova';-inkscape-font-specification:'Proxima Nova Semi-Bold Italic';fill:#ffffff"
         id="path4184" />
      <path
         d="m 148.59787,503.45413 -8.80817,39.63674 c -0.23806,1.19029 -0.59514,3.6899 -0.59514,4.76117 0,9.04622 6.90369,14.52156 17.61632,14.52156 8.33205,0 14.87866,-4.76117 19.63983,-9.28428 l -1.78544,7.85593 12.49807,0 12.73613,-57.49112 -12.49807,0 -8.80817,39.99382 c -3.80893,3.92797 -9.52234,7.85593 -15.35477,7.85593 -6.07049,0 -10.71263,-2.38058 -10.71263,-8.21301 0,-1.1903 0.35709,-2.49962 0.59515,-3.68991 l 7.97496,-35.94683 -12.49807,0 z"
         style="font-style:italic;font-variant:normal;font-weight:600;font-stretch:normal;font-family:'Proxima Nova';-inkscape-font-specification:'Proxima Nova Semi-Bold Italic';fill:#ffffff"
         id="path4186" />
      <path
         d="m 224.58686,496.43141 c 3.92797,0 8.80817,-3.21379 8.80817,-8.80817 0,-3.6899 -2.97574,-6.66564 -7.02273,-6.66564 -3.92796,0 -8.80816,3.21379 -8.80816,8.80817 0,3.57088 2.97573,6.66564 7.02272,6.66564 z m -8.80816,64.51384 12.73613,-57.49112 -12.49807,0 -12.73613,57.49112 12.49807,0 z"
         style="font-style:italic;font-variant:normal;font-weight:600;font-stretch:normal;font-family:'Proxima Nova';-inkscape-font-specification:'Proxima Nova Semi-Bold Italic';fill:#ffffff"
         id="path4188" />
      <path
         d="m 244.37362,560.94525 17.4973,-79.3925 -12.49807,0 -17.4973,79.3925 12.49807,0 z"
         style="font-style:italic;font-variant:normal;font-weight:600;font-stretch:normal;font-family:'Proxima Nova';-inkscape-font-specification:'Proxima Nova Semi-Bold Italic';fill:#ffffff"
         id="path4190" />
      <path
         d="m 292.84642,502.02578 c -19.04468,0 -30.23343,18.68759 -30.23343,36.54198 0,15.11671 9.04622,23.80584 22.02041,23.80584 7.26078,0 13.21224,-3.21379 18.09244,-9.04622 l -1.78544,7.61787 12.49807,0 17.61633,-79.3925 -12.49807,0 -6.66564,30.1144 c -3.80893,-5.95146 -10.71263,-9.64137 -19.04467,-9.64137 z m 1.90446,11.06972 c 7.02273,0 12.49807,3.33282 15.11672,7.7369 l -4.8802,22.25847 c -3.45185,4.52311 -8.92719,8.21301 -15.11672,8.21301 -8.21301,0 -14.16447,-5.95146 -14.16447,-15.23574 0,-11.90292 7.7369,-22.97264 19.04467,-22.97264 z"
         style="font-style:italic;font-variant:normal;font-weight:600;font-stretch:normal;font-family:'Proxima Nova';-inkscape-font-specification:'Proxima Nova Semi-Bold Italic';fill:#ffffff"
         id="path4192" />
      <path
         d="m 350.82295,496.43141 c 3.92796,0 8.80816,-3.21379 8.80816,-8.80817 0,-3.6899 -2.97573,-6.66564 -7.02273,-6.66564 -3.92796,0 -8.80816,3.21379 -8.80816,8.80817 0,3.57088 2.97573,6.66564 7.02273,6.66564 z m -8.80817,64.51384 12.73613,-57.49112 -12.49807,0 -12.73613,57.49112 12.49807,0 z"
         style="font-style:italic;font-variant:normal;font-weight:600;font-stretch:normal;font-family:'Proxima Nova';-inkscape-font-specification:'Proxima Nova Semi-Bold Italic';fill:#ffffff"
         id="path4194" />
      <path
         d="m 409.53225,560.94525 8.68914,-39.63673 c 0.35708,-1.30933 0.71417,-3.80894 0.71417,-4.8802 0,-9.04622 -7.02272,-14.40254 -17.73535,-14.40254 -8.33205,0 -14.87866,4.64214 -19.63983,9.16525 l 1.78544,-7.7369 -12.49807,0 -12.73613,57.49112 12.49807,0 8.9272,-40.11285 c 3.80893,-3.92797 9.4033,-7.7369 15.23574,-7.7369 6.07049,0 10.71263,2.26155 10.71263,8.09399 0,1.19029 -0.23806,2.49961 -0.47612,3.6899 l -7.97496,36.06586 12.49807,0 z"
         style="font-style:italic;font-variant:normal;font-weight:600;font-stretch:normal;font-family:'Proxima Nova';-inkscape-font-specification:'Proxima Nova Semi-Bold Italic';fill:#ffffff"
         id="path4196" />
      <path
         d="m 449.33081,584.27498 c 12.37904,0 25.35323,-5.7134 29.99537,-26.30546 l 12.14098,-54.51539 -12.49807,0 -1.90447,8.21302 c -4.28505,-5.83243 -11.90292,-9.64137 -19.28274,-9.64137 -18.56856,0 -29.87633,17.4973 -29.87633,35.35168 0,16.42604 10.11748,23.44876 21.78235,23.44876 7.49884,0 14.04545,-3.57087 18.44953,-9.16525 l -1.42835,6.30855 c -2.73767,12.37904 -9.87943,16.06895 -17.61633,16.06895 -7.97496,0 -15.35477,-2.61865 -19.16371,-7.97496 l -7.49884,8.33205 c 6.66564,7.37981 15.83089,9.87942 26.90061,9.87942 z m 5.95146,-34.51848 c -8.5701,0 -14.28351,-5.7134 -14.28351,-14.64059 0,-11.66487 7.26079,-22.02041 18.21148,-22.02041 6.78466,0 12.85515,3.09476 15.71185,8.09399 l -4.64214,20.83011 c -3.57087,4.28506 -9.28428,7.7369 -14.99768,7.7369 z"
         style="font-style:italic;font-variant:normal;font-weight:600;font-stretch:normal;font-family:'Proxima Nova';-inkscape-font-specification:'Proxima Nova Semi-Bold Italic';fill:#ffffff"
         id="path4198" />
      <path
         d="m 546.2076,562.3736 c 3.57087,0 6.78466,-0.95223 9.04622,-2.61864 l -0.71418,-9.99846 c -0.95223,0.71418 -2.97573,1.54738 -4.76117,1.54738 -3.80893,0 -5.7134,-2.02349 -5.7134,-5.23728 0,-0.71418 0.11903,-1.42835 0.23806,-2.14253 l 6.54661,-29.63828 11.66486,0 2.49962,-10.83166 -11.66487,0 3.45185,-15.71186 -12.49807,0 -3.45185,15.71186 -9.52234,0 -2.49961,10.83166 9.52234,0 -7.26079,32.73304 c -0.23805,1.42835 -0.35708,3.09476 -0.35708,3.68991 0,7.97496 6.18952,11.66486 15.4738,11.66486 z"
         style="font-style:italic;font-variant:normal;font-weight:600;font-stretch:normal;font-family:'Proxima Nova';-inkscape-font-specification:'Proxima Nova Semi-Bold Italic';fill:#ffffff"
         id="path4200" />
      <path
         d="m 614.81121,560.94525 8.68914,-39.63673 c 0.35709,-1.1903 0.71417,-3.68991 0.71417,-4.8802 0,-9.04622 -7.02272,-14.40254 -17.73535,-14.40254 -8.33205,0 -14.87866,4.64214 -19.63983,9.16525 l 6.66564,-29.63828 -12.49807,0 -17.4973,79.3925 12.49807,0 8.80817,-40.11285 c 3.80893,-3.80894 9.40331,-7.7369 15.23574,-7.7369 6.07049,0 10.71263,2.26155 10.71263,8.09399 0,0.95223 -0.23806,2.61864 -0.47612,3.57087 l -7.97496,36.18489 12.49807,0 z"
         style="font-style:italic;font-variant:normal;font-weight:600;font-stretch:normal;font-family:'Proxima Nova';-inkscape-font-specification:'Proxima Nova Semi-Bold Italic';fill:#ffffff"
         id="path4202" />
      <path
         d="m 662.34667,562.3736 c 7.26078,0 14.87866,-2.49961 20.354,-6.30855 l -4.04699,-8.80816 c -3.92797,3.21379 -9.99846,4.8802 -15.35478,4.8802 -11.66486,0 -17.37826,-7.26079 -17.37826,-13.92642 0,-0.59515 0,-1.54738 0.11903,-1.90447 l 44.3979,0 c 0.47612,-1.78544 1.19029,-5.83243 1.19029,-8.92719 0,-15.4738 -10.47457,-25.35323 -25.47225,-25.35323 -18.68759,0 -32.85207,15.83089 -32.85207,34.63751 0,15.71186 11.30777,25.71031 29.04313,25.71031 z m 17.73536,-34.99459 -32.73304,0 c 1.42835,-7.97496 8.80816,-15.11672 17.97341,-15.11672 9.99846,0 15.11671,6.0705 15.11671,13.56934 0,0.35708 -0.11902,1.19029 -0.11902,1.54738 l -0.23806,0 z"
         style="font-style:italic;font-variant:normal;font-weight:600;font-stretch:normal;font-family:'Proxima Nova';-inkscape-font-specification:'Proxima Nova Semi-Bold Italic';fill:#ffffff"
         id="path4204" />
      <path
         d="m 743.57854,560.94525 10.23651,-46.65946 11.66487,0 2.49961,-10.83166 -11.78389,0 0.71417,-3.21379 c 1.42835,-6.42758 4.047,-9.64137 9.28428,-9.64137 3.21379,0 5.11826,0.95224 6.78467,2.61865 l 6.42758,-7.49885 c -3.68991,-3.6899 -8.57011,-5.35631 -14.52157,-5.35631 -12.37904,0 -17.85439,8.92719 -20.47303,19.75885 l -0.71417,3.33282 -9.40331,0 -2.49962,10.83166 9.52234,0 -10.23651,46.65946 12.49807,0 z"
         style="font-style:italic;font-variant:normal;font-weight:600;font-stretch:normal;font-family:'Proxima Nova';-inkscape-font-specification:'Proxima Nova Semi-Bold Italic';fill:#ffffff"
         id="path4206" />
      <path
         d="m 777.45346,503.45413 -8.80816,39.63674 c -0.23806,1.19029 -0.59515,3.6899 -0.59515,4.76117 0,9.04622 6.9037,14.52156 17.61633,14.52156 8.33205,0 14.87866,-4.76117 19.63982,-9.28428 l -1.78543,7.85593 12.49807,0 12.73612,-57.49112 -12.49807,0 -8.80816,39.99382 c -3.80893,3.92797 -9.52234,7.85593 -15.35477,7.85593 -6.07049,0 -10.71263,-2.38058 -10.71263,-8.21301 0,-1.1903 0.35709,-2.49962 0.59514,-3.68991 l 7.97496,-35.94683 -12.49807,0 z"
         style="font-style:italic;font-variant:normal;font-weight:600;font-stretch:normal;font-family:'Proxima Nova';-inkscape-font-specification:'Proxima Nova Semi-Bold Italic';fill:#ffffff"
         id="path4208" />
      <path
         d="m 852.84737,562.3736 c 3.57087,0 6.78466,-0.95223 9.04622,-2.61864 l -0.71418,-9.99846 c -0.95223,0.71418 -2.97573,1.54738 -4.76117,1.54738 -3.80893,0 -5.7134,-2.02349 -5.7134,-5.23728 0,-0.71418 0.11903,-1.42835 0.23806,-2.14253 l 6.54661,-29.63828 11.66486,0 2.49962,-10.83166 -11.66487,0 3.45185,-15.71186 -12.49807,0 -3.45185,15.71186 -9.52234,0 -2.49961,10.83166 9.52234,0 -7.26079,32.73304 c -0.23805,1.42835 -0.35708,3.09476 -0.35708,3.68991 0,7.97496 6.18952,11.66486 15.4738,11.66486 z"
         style="font-style:italic;font-variant:normal;font-weight:600;font-stretch:normal;font-family:'Proxima Nova';-inkscape-font-specification:'Proxima Nova Semi-Bold Italic';fill:#ffffff"
         id="path4210" />
      <path
         d="m 882.76645,503.45413 -8.80816,39.63674 c -0.23806,1.19029 -0.59515,3.6899 -0.59515,4.76117 0,9.04622 6.9037,14.52156 17.61633,14.52156 8.33205,0 14.87865,-4.76117 19.63982,-9.28428 l -1.78544,7.85593 12.49807,0 12.73613,-57.49112 -12.49807,0 -8.80816,39.99382 c -3.80894,3.92797 -9.52234,7.85593 -15.35477,7.85593 -6.07049,0 -10.71263,-2.38058 -10.71263,-8.21301 0,-1.1903 0.35708,-2.49962 0.59514,-3.68991 l 7.97496,-35.94683 -12.49807,0 z"
         style="font-style:italic;font-variant:normal;font-weight:600;font-stretch:normal;font-family:'Proxima Nova';-inkscape-font-specification:'Proxima Nova Semi-Bold Italic';fill:#ffffff"
         id="path4212" />
      <path
         d="m 949.94734,560.94525 8.5701,-38.92256 c 3.45185,-4.28505 9.28428,-7.97496 15.35478,-7.97496 2.26155,0 4.16602,0.35709 4.99922,0.59515 l 2.8567,-12.6171 c -9.52233,0 -15.59283,3.57088 -20.83011,9.40331 l 1.78544,-7.97496 -12.49807,0 -12.73613,57.49112 12.49807,0 z"
         style="font-style:italic;font-variant:normal;font-weight:600;font-stretch:normal;font-family:'Proxima Nova';-inkscape-font-specification:'Proxima Nova Semi-Bold Italic';fill:#ffffff"
         id="path4214" />
      <path
         d="m 1010.1352,562.3736 c 7.2608,0 14.8786,-2.49961 20.354,-6.30855 l -4.047,-8.80816 c -3.928,3.21379 -9.9985,4.8802 -15.3548,4.8802 -11.66485,0 -17.37825,-7.26079 -17.37825,-13.92642 0,-0.59515 0,-1.54738 0.11903,-1.90447 l 44.39792,0 c 0.4761,-1.78544 1.1903,-5.83243 1.1903,-8.92719 0,-15.4738 -10.4746,-25.35323 -25.4723,-25.35323 -18.68757,0 -32.85205,15.83089 -32.85205,34.63751 0,15.71186 11.30778,25.71031 29.04315,25.71031 z m 17.7353,-34.99459 -32.733,0 c 1.42835,-7.97496 8.8082,-15.11672 17.9734,-15.11672 9.9985,0 15.1167,6.0705 15.1167,13.56934 0,0.35708 -0.119,1.19029 -0.119,1.54738 l -0.2381,0 z"
         style="font-style:italic;font-variant:normal;font-weight:600;font-stretch:normal;font-family:'Proxima Nova';-inkscape-font-specification:'Proxima Nova Semi-Bold Italic';fill:#ffffff"
         id="path4216" />
      <path
         d="m 1051.6504,562.25457 c 4.9992,0 9.1652,-4.04699 9.1652,-9.04622 0,-4.16602 -3.3328,-7.61787 -7.6179,-7.61787 -4.8802,0 -9.0462,4.04699 -9.0462,8.92719 0,4.28506 3.3328,7.7369 7.4989,7.7369 z"
         style="font-style:italic;font-variant:normal;font-weight:600;font-stretch:normal;font-family:'Proxima Nova';-inkscape-font-specification:'Proxima Nova Semi-Bold Italic';fill:#ffffff"
         id="path4218" />
    </g>
  </g>
</svg>
