<?xml version="1.0" encoding="utf-8"?>
<!-- Generator: Adobe Illustrator 18.0.0, SVG Export Plug-In . SVG Version: 6.00 Build 0)  -->
<!DOCTYPE svg PUBLIC "-//W3C//DTD SVG 1.1//EN" "http://www.w3.org/Graphics/SVG/1.1/DTD/svg11.dtd">
<svg version="1.1" id="Layer_1" xmlns="http://www.w3.org/2000/svg" xmlns:xlink="http://www.w3.org/1999/xlink" x="0px" y="0px"
	 viewBox="0 0 730 516.2" style="enable-background:new 0 0 730 516.2;" xml:space="preserve">
<style type="text/css">
	.st0{fill:#5D5E5E;}
</style>
<path id="XMLID_15_" class="st0" d="M453.5,203.2L453.5,203.2c-1.9-1.1-4.2-1.1-6.1,0L365,251.5l-16.1-9.1l74.8-43.8
	c2.9-1.7,3.8-5.4,2.2-8.3c-0.8-1.4-2.1-2.4-3.7-2.8c-1.6-0.4-3.2-0.2-4.6,0.6l-80.8,47.3L320,226l76.5-44.8c2.9-1.7,3.8-5.4,2.2-8.3
	c-1.7-2.9-5.4-3.8-8.3-2.2l-82.6,48.4l-16.1-9.1l75-43.9c2.9-1.7,3.8-5.4,2.2-8.3c-1.7-2.9-5.4-3.8-8.3-2.2l-83.5,48.7
	c-0.4,0.3-0.8,0.6-1.2,0.9c-0.7,0.5-1.2,1.1-1.6,1.8c-1.6,2.9-0.6,6.6,2.3,8.2l82,46.5v18.7l-76.1-43.1c-2.9-1.6-6.6-0.6-8.2,2.3
	c-1.6,2.9-0.6,6.6,2.3,8.2l82,46.5V313l-76.1-43.1c-2.9-1.6-6.6-0.6-8.2,2.3c-1.6,2.9-0.6,6.6,2.3,8.2l82,46.5v18.7l-76.1-43.1
	c-2.9-1.6-6.6-0.6-8.2,2.3c-1.6,2.9-0.6,6.6,2.3,8.2l84.2,47.7c0.9,0.5,1.9,0.8,3,0.8c0.3,0,0.6,0,1-0.1c3.3,0,6-2.7,6-6v-93.1
	l16.7-9.8v87.9c0,3.3,2.7,6,6,6s6-2.7,6-6v-95l17.7-10.4v89.6c0,3.3,2.7,6,6,6s6-2.7,6-6v-96.7l15.1-8.9l0,90.3c0,3.3,2.7,6,6,6
	c3.3,0,6-2.7,6-6l0-100.8C456.5,206.3,455.3,204.3,453.5,203.2z"/>
</svg>
