<svg id="svg5547" xmlns:rdf="http://www.w3.org/1999/02/22-rdf-syntax-ns#" xmlns="http://www.w3.org/2000/svg" height="39.878mm" width="30.955mm" version="1.1" xmlns:cc="http://creativecommons.org/ns#" xmlns:dc="http://purl.org/dc/elements/1.1/" viewBox="0 0 109.68437 141.30025">
<defs id="defs5549">
<clipPath id="clipPath5352-0" clipPathUnits="userSpaceOnUse">
<path id="path5354-9" d="m0 0h595.28v841.89h-595.28v-841.89z"/>
</clipPath>
<clipPath id="clipPath5328" clipPathUnits="userSpaceOnUse">
<path id="path5330" d="m0 0h595.28v841.89h-595.28v-841.89z"/>
</clipPath>
<clipPath id="clipPath5302" clipPathUnits="userSpaceOnUse">
<path id="path5304" d="m0 0h595.28v841.89h-595.28v-841.89z"/>
</clipPath>
</defs>
<g id="layer1" transform="translate(-235.07 -452.39)">
<g id="g6353">
<g id="g6308" transform="translate(-48.487 283.85)">
<g fill="#fff">
<g id="g5298" transform="matrix(1.25 0 0 -1.25 -34.258 1085.3)">
<g id="g5300" fill="#fff" clip-path="url(#clipPath5302)">
<g id="g5306" fill="#fff" transform="translate(257.83 632.54)">
<path id="path5308" d="m0 0c0.684 0.144 1.763 0.252 2.86 0.252 1.565 0 2.573-0.27 3.328-0.882 0.63-0.467 1.008-1.187 1.008-2.14 0-1.17-0.774-2.195-2.051-2.663v-0.036c1.151-0.288 2.501-1.241 2.501-3.04 0-1.044-0.414-1.835-1.026-2.429-0.845-0.773-2.213-1.133-4.191-1.133-1.08 0-1.907 0.072-2.429 0.144v11.927zm1.565-4.965h1.421c1.655 0 2.627 0.863 2.627 2.033 0 1.421-1.08 1.979-2.663 1.979-0.719 0-1.133-0.054-1.385-0.108v-3.904zm0-5.811c0.306-0.054 0.756-0.072 1.313-0.072 1.619 0 3.113 0.594 3.113 2.357 0 1.655-1.422 2.339-3.131 2.339h-1.295v-4.624z" fill="#fff"/>
</g>
</g>
</g>
<path id="path5310" d="m302.17 309.59h-1.9562v-15.156h1.9562v15.156z"/>
<g id="g5312" transform="matrix(1.25 0 0 -1.25 308.47 296.1)">
<path id="path5314" d="m0 0h-3.688v1.331h8.977v-1.331h-3.706v-10.794h-1.583v10.794z" fill="#fff"/>
</g>
<g id="g5316" transform="matrix(1.25 0 0 -1.25 316.77 294.44)">
<path id="path5318" d="m0 0h1.565v-10.811h5.181v-1.314h-6.746v12.125z" fill="#fff"/>
</g>
<g id="g5320" transform="matrix(1.25 0 0 -1.25 335.23 302.49)">
<path id="path5322" d="m0 0h-4.713v-4.371h5.253v-1.314h-6.818v12.125h6.548v-1.313h-4.983v-3.832h4.713v-1.295z" fill="#fff"/>
</g>
<g id="g5324" transform="matrix(1.25 0 0 -1.25 -34.258 1085.3)">
<g id="g5326" fill="#fff" clip-path="url(#clipPath5328)">
<g id="g5332" transform="translate(300.12 624.39)">
<path id="path5334" d="m0 0-1.259-3.814h-1.619l4.119 12.125h1.889l4.138-12.125h-1.673l-1.296 3.814h-4.299zm3.975 1.223-1.187 3.49c-0.27 0.792-0.45 1.512-0.629 2.213h-0.036c-0.18-0.719-0.378-1.457-0.612-2.195l-1.187-3.508h3.651z" fill="#fff"/>
</g>
<g id="g5336" transform="translate(318.13 621.11)">
<path id="path5338" d="m0 0c-0.702-0.252-2.087-0.665-3.724-0.665-1.835 0-3.346 0.467-4.533 1.6-1.044 1.008-1.691 2.627-1.691 4.516 0.018 3.616 2.5 6.26 6.566 6.26 1.403 0 2.501-0.306 3.022-0.557l-0.378-1.278c-0.647 0.288-1.457 0.522-2.68 0.522-2.95 0-4.875-1.835-4.875-4.875 0-3.076 1.853-4.893 4.677-4.893 1.025 0 1.727 0.144 2.087 0.323v3.617h-2.465v1.259h3.994v-5.829z" fill="#fff"/>
</g>
<g id="g5340" transform="translate(322.08 632.7)">
<path id="path5342" d="m0 0v-7.178c0-2.716 1.205-3.868 2.824-3.868 1.799 0 2.951 1.188 2.951 3.868v7.178h1.583v-7.07c0-3.724-1.961-5.253-4.588-5.253-2.482 0-4.353 1.421-4.353 5.181v7.142h1.583z" fill="#fff"/>
</g>
</g>
</g>
<g id="g5344" transform="matrix(1.25 0 0 -1.25 388.79 302.49)">
<path id="path5346" d="m0 0h-4.713v-4.371h5.253v-1.314h-6.818v12.125h6.548v-1.313h-4.983v-3.832h4.713v-1.295z" fill="#fff"/>
</g>
</g>
<g id="g5348" fill="#f9f9f9" transform="matrix(1.25 0 0 -1.25 -34.258 1085.3)">
<g id="g5350" fill="#f9f9f9" clip-path="url(#clipPath5352-0)">
<g id="g5356" transform="translate(299.41 733.41)">
<path id="path5358" d="m0 0v-2.687c22.048-0.745 39.694-18.85 39.694-41.08 0-22.229-17.646-40.334-39.694-41.08v-2.864c23.636 0.682 42.587 20.055 42.587 43.856 0 23.8-18.951 43.173-42.587 43.855" fill="#f9f9f9"/>
</g>
<g id="g5360" transform="translate(254.86 682.27)">
<path id="path5362" d="m0 0h2.702c-0.294 1.62-0.492 3.274-0.59 4.954h-2.655c0.088-1.678 0.271-3.331 0.543-4.954" fill="#f9f9f9"/>
</g>
<g id="g5364" transform="translate(256.84 674.67)">
<path id="path5366" d="m0 0h2.869c-0.629 1.605-1.16 3.259-1.585 4.954h-2.745c0.392-1.69 0.88-3.344 1.461-4.954" fill="#f9f9f9"/>
</g>
<g id="g5368" transform="translate(260.45 667.07)">
<path id="path5370" d="m0 0h3.2c-1.04 1.579-1.974 3.234-2.792 4.954h-2.958c0.747-1.711 1.599-3.365 2.55-4.954" fill="#f9f9f9"/>
</g>
<g id="g5372" transform="translate(254.25 689.87)">
<path id="path5374" d="m0 0h2.644c0.009 1.677 0.116 3.331 0.321 4.954h-2.654c-0.194-1.625-0.299-3.278-0.311-4.954" fill="#f9f9f9"/>
</g>
<g id="g5376" transform="translate(265.55 664.42)">
<path id="path5378" d="m0 0h-3.384c7.691-10.978 20.28-18.274 34.596-18.711v2.855c-12.686 0.376-23.927 6.5-31.212 15.856" fill="#f9f9f9"/>
</g>
<g id="g5380" transform="translate(260.83 712.68)">
<path id="path5382" d="m0 0h3.12c7.176 10.586 19.156 17.651 32.81 18.055v2.677c-15.177-0.464-28.414-8.635-35.93-20.732" fill="#f9f9f9"/>
</g>
<g id="g5384" transform="translate(254.96 697.47)">
<path id="path5386" d="m0 0h2.677c0.326 1.691 0.754 3.344 1.281 4.954h-2.754c-0.495-1.613-0.897-3.267-1.204-4.954" fill="#f9f9f9"/>
</g>
<g id="g5388" transform="translate(257.08 705.08)">
<path id="path5390" d="m0 0h2.815c0.694 1.712 1.5 3.366 2.408 4.954h-2.989c-0.843-1.595-1.589-3.25-2.234-4.954" fill="#f9f9f9"/>
</g>
<g id="g5392" transform="translate(321.29 680.08)">
<path id="path5394" d="m0 0c0.698-0.774 2.078-1.161 4.14-1.161h9.88c0.968 3.378 1.487 6.946 1.487 10.636 0 21.293-17.262 38.554-38.555 38.554-12.619 0-23.821-6.063-30.854-15.434h11.235v-2.647h-13.053c-0.992-1.579-1.871-3.234-2.629-4.955h15.682v-2.648h-16.732c-0.568-1.605-1.034-3.259-1.388-4.954h18.12v-2.648h-18.575c-0.222-1.622-0.343-3.275-0.356-4.955h18.931v-2.647h-18.863c0.101-1.683 0.309-3.337 0.619-4.955h18.244v-2.648h-17.64c0.452-1.7 1.017-3.355 1.687-4.954h15.953v-2.648h-14.724c0.886-1.732 1.901-3.387 3.029-4.955h11.695v-2.648h-9.609c7.07-8.212 17.541-13.412 29.228-13.412 11.648 0 22.089 5.165 29.159 13.33h-4.96c-4.654 0-8.365 1.335-11.138 4 3.077 2.668 4.617 6.159 4.617 10.478 0 5.991-2.956 10.155-8.867 12.488 4.345 1.94 6.563 6.312 6.563 10.536 0 5.287-2.78 9.581-7.323 10.94v0.006h13.949v-28.039c0-2.334 0.348-3.887 1.048-4.66m-21.886-3.033c-0.675-0.434-1.836-0.65-3.481-0.65h-1.669v5.702h2.033c2.753 0 4.129-0.922 4.129-2.767 0-1.09-0.338-1.852-1.012-2.285m0 20.938c-0.675-0.425-1.836-0.638-3.481-0.638h-1.669v5.59h2.033c2.753 0 4.129-0.904 4.129-2.713 0-1.068-0.338-1.815-1.012-2.239" fill="#f9f9f9"/>
</g>
</g>
</g>
</g>
</g>
</g>
</svg>
