<svg id="svg8299" xmlns:rdf="http://www.w3.org/1999/02/22-rdf-syntax-ns#" xmlns="http://www.w3.org/2000/svg" height="25.457mm" width="75.914mm" version="1.1" xmlns:cc="http://creativecommons.org/ns#" xmlns:dc="http://purl.org/dc/elements/1.1/" viewBox="0 0 268.98538 90.202498">
<defs id="defs8301">
<clipPath id="clipPath8047" clipPathUnits="userSpaceOnUse">
<path id="path8049" d="m0 0h595.28v841.89h-595.28v-841.89z"/>
</clipPath>
<clipPath id="clipPath8081" clipPathUnits="userSpaceOnUse">
<path id="path8083" d="m0 0h595.28v841.89h-595.28v-841.89z"/>
</clipPath>
<clipPath id="clipPath8109" clipPathUnits="userSpaceOnUse">
<path id="path8111" d="m0 0h595.28v841.89h-595.28v-841.89z"/>
</clipPath>
</defs>
<g id="layer1" transform="translate(-188.36 -538.69)">
<g id="g8216" fill="#f9f9f9" transform="matrix(1.25 0 0 -1.25 576.64 1569.5)">
<g id="g8043" transform="translate(-505.88 117.99)">
<g id="g8045" fill="#f9f9f9" clip-path="url(#clipPath8047)">
<g id="g8051" transform="translate(243.85 683.01)">
<path id="path8053" d="m0 0h21.375c-3.633 9.903-11.484 17.769-21.375 21.425v-21.425z" fill="#f9f9f9"/>
</g>
<g id="g8055" transform="translate(243.85 678.2)">
<path id="path8057" d="m0 0v-7.617c0-6.908-5.6-12.528-12.508-12.528s-12.508 5.58-12.508 12.488 5.6 12.468 12.508 12.468h7.697v22.827c-2.48 0.539-5.055 0.826-7.697 0.826-19.927 0-36.081-16.154-36.081-36.081s16.154-36.081 36.081-36.081 36.081 16.154 36.081 36.081c0 2.613-0.28 5.161-0.808 7.617h-22.765z" fill="#f9f9f9"/>
</g>
<g id="g8059" transform="translate(238.68 670.59)">
<path id="path8061" d="m0 0c0-4.052-3.285-7.336-7.336-7.336-4.052 0-7.337 3.284-7.337 7.336s3.285 7.336 7.337 7.336c4.051 0 7.336-3.284 7.336-7.336" fill="#f9f9f9"/>
</g>
<g id="g8063" transform="translate(290.95 704.18)">
<path id="path8065" d="m0 0c2.168 0 4.097-0.443 5.788-1.328 1.69-0.885 3.003-2.128 3.937-3.729 0.935-1.601 1.403-3.401 1.403-5.399 0-2.039-0.47-3.847-1.41-5.423s-2.275-2.796-4.005-3.662c-1.73-0.865-3.714-1.297-5.952-1.297h-8.487v20.838h8.726zm-0.418-17.691c2.228 0 4.015 0.669 5.363 2.006 1.347 1.338 2.021 3.09 2.021 5.258 0 2.248-0.679 4.023-2.036 5.325-1.357 1.303-3.185 1.955-5.482 1.955h-4.146v-14.544h4.28z" fill="#f9f9f9"/>
</g>
</g>
</g>
<g id="g8067" transform="translate(-190.09 822.17)">
<path id="path8069" d="m0 0 9.203-20.838h-4.251l-2.163 5.071h-9.263l-2.013-5.071h-4.222l8.592 20.838h4.117zm-5.251-12.709h6.728l-3.52 8.249-3.208-8.249z" fill="#f9f9f9"/>
</g>
<g id="g8071" transform="translate(-174.42 822.17)">
<path id="path8073" d="m0 0v-17.691h10.113v-3.147h-14.14v20.838h4.027z" fill="#f9f9f9"/>
</g>
<path id="path8075" d="m-157.43 801.33h-4.027v20.838h4.027v-20.838z"/>
<g id="g8077" transform="translate(-505.88 117.99)">
<g id="g8079" fill="#f9f9f9" clip-path="url(#clipPath8081)">
<g id="g8085" transform="translate(290.28 678.44)">
<path id="path8087" d="m0 0c1.949 0 3.533-0.565 4.751-1.693 1.218-1.129 1.827-2.583 1.827-4.363 0-1.8-0.617-3.257-1.85-4.371s-2.859-1.67-4.877-1.67h-3.878v-8.741h-4.028v20.838h8.055zm-1-8.95c1.074 0 1.912 0.246 2.514 0.738 0.602 0.493 0.903 1.221 0.903 2.186 0 1.919-1.234 2.879-3.7 2.879h-2.744v-5.803h3.027z" fill="#f9f9f9"/>
</g>
<g id="g8089" transform="translate(307.57 678.44)">
<path id="path8091" d="m0 0c1.959 0 3.555-0.542 4.788-1.626s1.85-2.496 1.85-4.236c0-1.184-0.306-2.215-0.918-3.095-0.611-0.881-1.519-1.574-2.722-2.081 0.666-0.358 1.258-0.846 1.775-1.462 0.517-0.617 1.159-1.656 1.924-3.118 1.273-2.525 2.218-4.266 2.834-5.22h-4.489c-0.309 0.457-0.726 1.188-1.253 2.192-1.154 2.218-1.999 3.712-2.536 4.483-0.537 0.77-1.054 1.317-1.551 1.641-0.498 0.323-1.07 0.484-1.716 0.484h-1.462v-8.8h-4.027v20.838h7.503zm-0.91-8.89c1.054 0 1.882 0.263 2.484 0.79 0.601 0.527 0.902 1.248 0.902 2.163 0 0.955-0.298 1.668-0.895 2.141-0.597 0.472-1.447 0.708-2.551 0.708h-2.506v-5.802h2.566z" fill="#f9f9f9"/>
</g>
<g id="g8093" transform="translate(329.51 678.71)">
<path id="path8095" d="m0 0c2.158 0 4.099-0.445 5.825-1.335 1.725-0.89 3.1-2.173 4.124-3.848 1.024-1.676 1.537-3.513 1.537-5.512 0-1.949-0.5-3.756-1.5-5.422-0.999-1.666-2.371-2.959-4.116-3.878-1.746-0.92-3.712-1.38-5.9-1.38-2.158 0-4.119 0.467-5.884 1.402-1.766 0.935-3.14 2.22-4.125 3.856-0.984 1.636-1.476 3.443-1.476 5.422 0 1.909 0.492 3.704 1.476 5.385 0.985 1.68 2.342 2.985 4.072 3.915 1.731 0.93 3.719 1.395 5.967 1.395m-7.354-10.695c0-1.382 0.313-2.625 0.94-3.729 0.626-1.104 1.499-1.959 2.618-2.566 1.119-0.606 2.384-0.91 3.796-0.91 2.138 0 3.895 0.672 5.273 2.014 1.377 1.343 2.066 3.073 2.066 5.191 0 1.382-0.311 2.628-0.933 3.737-0.621 1.108-1.496 1.966-2.625 2.573-1.128 0.606-2.399 0.91-3.811 0.91s-2.682-0.306-3.811-0.918c-1.129-0.611-1.996-1.467-2.603-2.565-0.607-1.099-0.91-2.345-0.91-3.737" fill="#f9f9f9"/>
</g>
<g id="g8097" transform="translate(348.89 678.44)">
<path id="path8099" d="m0 0v-20.048c0-2.227-0.597-4.01-1.79-5.347s-2.774-2.006-4.743-2.006h-0.396c-0.124 0-0.255 0.01-0.395 0.029l-0.283 3.476c2.386 0 3.58 1.397 3.58 4.191v19.705h4.027z" fill="#f9f9f9"/>
</g>
</g>
</g>
<g id="g8101" transform="translate(-138.84 796.43)">
<path id="path8103" d="m0 0v-3.147h-9.442v-5.475h9.039v-3.147h-9.039v-5.922h9.651v-3.147h-13.679v20.838h13.47z" fill="#f9f9f9"/>
</g>
<g id="g8105" transform="translate(-505.88 117.99)">
<g id="g8107" fill="#f9f9f9" clip-path="url(#clipPath8109)">
<g id="g8113" fill="#f9f9f9" transform="translate(381.94 678.71)">
<path id="path8115" d="m0 0c1.183 0 2.342-0.134 3.476-0.403 1.133-0.268 2.356-0.726 3.669-1.372v-3.789c-1.283 0.736-2.468 1.268-3.557 1.596s-2.226 0.493-3.409 0.493c-1.482 0-2.819-0.306-4.012-0.918-1.194-0.611-2.121-1.474-2.782-2.588-0.662-1.114-0.992-2.352-0.992-3.714 0-1.392 0.328-2.64 0.984-3.744s1.581-1.957 2.775-2.558c1.193-0.602 2.535-0.903 4.027-0.903 1.144 0 2.235 0.165 3.274 0.493s2.35 0.919 3.931 1.775v-3.789c-1.353-0.706-2.596-1.208-3.729-1.507-1.134-0.298-2.457-0.447-3.968-0.447-2.198 0-4.162 0.437-5.892 1.313-1.73 0.875-3.09 2.135-4.08 3.781-0.989 1.646-1.484 3.448-1.484 5.407 0 2.098 0.51 3.983 1.529 5.654 1.019 1.67 2.422 2.958 4.207 3.863 1.784 0.905 3.796 1.357 6.033 1.357" fill="#f9f9f9"/>
</g>
</g>
</g>
<g id="g8117" transform="translate(-95.435 796.43)">
<path id="path8119" d="m0 0v-3.147h-7.399v-17.691h-4.027v17.691h-7.399v3.147h18.825z" fill="#f9f9f9"/>
</g>
</g>
</g>
</svg>
