<?xml version="1.0" encoding="UTF-8" standalone="no"?>
<svg
   xmlns:dc="http://purl.org/dc/elements/1.1/"
   xmlns:cc="http://creativecommons.org/ns#"
   xmlns:rdf="http://www.w3.org/1999/02/22-rdf-syntax-ns#"
   xmlns:svg="http://www.w3.org/2000/svg"
   xmlns="http://www.w3.org/2000/svg"
   xmlns:sodipodi="http://sodipodi.sourceforge.net/DTD/sodipodi-0.dtd"
   xmlns:inkscape="http://www.inkscape.org/namespaces/inkscape"
   id="svg4385"
   height="20.929775mm"
   viewBox="0 0 398.05568 74.159877"
   width="112.34057mm"
   version="1.1"
   inkscape:version="0.91 r"
   sodipodi:docname="pinbuster_full.svg">
  <metadata
     id="metadata68">
    <rdf:RDF>
      <cc:Work
         rdf:about="">
        <dc:format>image/svg+xml</dc:format>
        <dc:type
           rdf:resource="http://purl.org/dc/dcmitype/StillImage" />
        <dc:title></dc:title>
      </cc:Work>
    </rdf:RDF>
  </metadata>
  <sodipodi:namedview
     pagecolor="#ffffff"
     bordercolor="#666666"
     borderopacity="1"
     objecttolerance="10"
     gridtolerance="10"
     guidetolerance="10"
     inkscape:pageopacity="0"
     inkscape:pageshadow="2"
     inkscape:window-width="1920"
     inkscape:window-height="1052"
     id="namedview66"
     showgrid="false"
     inkscape:zoom="2.6245812"
     inkscape:cx="245.26172"
     inkscape:cy="-38.178627"
     inkscape:window-x="0"
     inkscape:window-y="1"
     inkscape:window-maximized="1"
     inkscape:current-layer="g4515"
     fit-margin-top="0"
     fit-margin-left="0"
     fit-margin-right="0"
     fit-margin-bottom="0" />
  <defs
     id="defs4387">
    <clipPath
       id="clipPath144"
       clipPathUnits="userSpaceOnUse">
      <path
         id="path146"
         d="m 0,0 595.28,0 0,841.89 L 0,841.89 0,0 Z"
         inkscape:connector-curvature="0" />
    </clipPath>
    <clipPath
       id="clipPath196"
       clipPathUnits="userSpaceOnUse">
      <path
         id="path198"
         d="m 0,0 595.28,0 0,841.89 L 0,841.89 0,0 Z"
         inkscape:connector-curvature="0" />
    </clipPath>
    <clipPath
       id="clipPath4356-3"
       clipPathUnits="userSpaceOnUse">
      <path
         id="path4358-2"
         d="m 0,0 595.28,0 0,841.89 L 0,841.89 0,0 Z"
         inkscape:connector-curvature="0" />
    </clipPath>
  </defs>
  <g
     id="g9821"
     transform="translate(372.91216,-124.26249)">
    <g
       id="layer1"
       transform="translate(-362.89,-58.981)">
      <g
         id="g4346"
         transform="matrix(1.25,0,0,-1.25,-40.619,1059)">
        <g
           id="g5073"
           transform="translate(-65.054,-4.0406)">
          <path
             id="path138"
             d="m 189.11,702.83 217.05,0 0,-55.694 -217.05,0 0,55.694 z"
             stroke-miterlimit="10"
             inkscape:connector-curvature="0"
             style="fill:#ffffff;stroke:#1c424c;stroke-width:3.63199997;stroke-linecap:round;stroke-linejoin:round;stroke-miterlimit:10" />
          <g
             id="g140">
            <g
               id="g142"
               clip-path="url(#clipPath144)">
              <g
                 id="g148"
                 transform="translate(228.09,680.51)">
                <path
                   id="path150"
                   d="m 0,0 0,-16.083 2.682,0 c 0.429,0 0.734,-0.08 0.913,-0.237 0.18,-0.158 0.27,-0.367 0.27,-0.628 0,-0.246 -0.09,-0.452 -0.27,-0.616 -0.179,-0.166 -0.484,-0.248 -0.913,-0.248 l -7.108,0 c -0.415,0 -0.713,0.082 -0.893,0.248 -0.179,0.164 -0.27,0.37 -0.27,0.616 0,0.261 0.091,0.47 0.27,0.628 0.18,0.157 0.478,0.237 0.893,0.237 l 2.683,0 0,14.335 -0.919,0 c -0.415,0 -0.716,0.082 -0.902,0.247 -0.188,0.165 -0.281,0.369 -0.281,0.616 0,0.261 0.09,0.474 0.27,0.638 C -3.396,-0.082 -3.09,0 -2.662,0 L 0,0 Z"
                   inkscape:connector-curvature="0"
                   style="fill:#1c454c" />
              </g>
              <g
                 id="g152"
                 transform="translate(228.09,680.51)">
                <path
                   id="path154"
                   d="m 0,0 0,-16.083 2.682,0 c 0.429,0 0.734,-0.08 0.913,-0.237 0.18,-0.158 0.27,-0.367 0.27,-0.628 0,-0.246 -0.09,-0.452 -0.27,-0.616 -0.179,-0.166 -0.484,-0.248 -0.913,-0.248 l -7.108,0 c -0.415,0 -0.713,0.082 -0.893,0.248 -0.179,0.164 -0.27,0.37 -0.27,0.616 0,0.261 0.091,0.47 0.27,0.628 0.18,0.157 0.478,0.237 0.893,0.237 l 2.683,0 0,14.335 -0.919,0 c -0.415,0 -0.716,0.082 -0.902,0.247 -0.188,0.165 -0.281,0.369 -0.281,0.616 0,0.261 0.09,0.474 0.27,0.638 C -3.396,-0.082 -3.09,0 -2.662,0 L 0,0 Z"
                   stroke-miterlimit="10"
                   inkscape:connector-curvature="0"
                   style="fill:none;stroke:#1c454c;stroke-width:1.45299995;stroke-miterlimit:10" />
              </g>
              <g
                 id="g156"
                 transform="translate(239.25,680.5)">
                <path
                   id="path158"
                   d="m 0,0 0,-2.612 c 1.204,1.221 2.293,2.063 3.266,2.53 0.971,0.465 2.066,0.699 3.286,0.699 1.314,0 2.512,-0.281 3.594,-0.844 0.766,-0.411 1.461,-1.092 2.084,-2.045 0.623,-0.952 0.935,-1.93 0.935,-2.929 l 0,-10.877 1.458,0 c 0.411,0 0.705,-0.079 0.884,-0.236 0.177,-0.158 0.266,-0.367 0.266,-0.628 0,-0.247 -0.089,-0.452 -0.266,-0.616 -0.179,-0.166 -0.473,-0.247 -0.884,-0.247 l -4.621,0 c -0.425,0 -0.726,0.081 -0.903,0.247 -0.179,0.164 -0.268,0.369 -0.268,0.616 0,0.261 0.089,0.47 0.268,0.628 0.177,0.157 0.478,0.236 0.903,0.236 l 1.437,0 0,10.588 c 0,1.22 -0.445,2.252 -1.334,3.095 C 9.214,-1.552 8.023,-1.131 6.531,-1.131 5.393,-1.131 4.408,-1.36 3.573,-1.82 2.738,-2.28 1.547,-3.42 0,-5.244 l 0,-10.834 1.951,0 c 0.411,0 0.705,-0.079 0.883,-0.236 0.177,-0.158 0.268,-0.367 0.268,-0.628 0,-0.246 -0.091,-0.452 -0.268,-0.616 -0.178,-0.165 -0.472,-0.247 -0.883,-0.247 l -5.628,0 c -0.411,0 -0.706,0.082 -0.883,0.247 -0.178,0.164 -0.267,0.37 -0.267,0.616 0,0.261 0.089,0.47 0.267,0.628 0.177,0.157 0.472,0.236 0.883,0.236 l 1.951,0 0,14.331 -1.458,0 c -0.411,0 -0.706,0.082 -0.883,0.247 -0.178,0.164 -0.268,0.376 -0.268,0.637 0,0.246 0.09,0.452 0.268,0.616 C -3.89,-0.082 -3.595,0 -3.184,0 L 0,0 Z"
                   inkscape:connector-curvature="0"
                   style="fill:#1c454c" />
              </g>
              <g
                 id="g160"
                 transform="translate(239.25,680.5)">
                <path
                   id="path162"
                   d="m 0,0 0,-2.612 c 1.204,1.221 2.293,2.063 3.266,2.53 0.971,0.465 2.066,0.699 3.286,0.699 1.314,0 2.512,-0.281 3.594,-0.844 0.766,-0.411 1.461,-1.092 2.084,-2.045 0.623,-0.952 0.935,-1.93 0.935,-2.929 l 0,-10.877 1.458,0 c 0.411,0 0.705,-0.079 0.884,-0.236 0.177,-0.158 0.266,-0.367 0.266,-0.628 0,-0.247 -0.089,-0.452 -0.266,-0.616 -0.179,-0.166 -0.473,-0.247 -0.884,-0.247 l -4.621,0 c -0.425,0 -0.726,0.081 -0.903,0.247 -0.179,0.164 -0.268,0.369 -0.268,0.616 0,0.261 0.089,0.47 0.268,0.628 0.177,0.157 0.478,0.236 0.903,0.236 l 1.437,0 0,10.588 c 0,1.22 -0.445,2.252 -1.334,3.095 C 9.214,-1.552 8.023,-1.131 6.531,-1.131 5.393,-1.131 4.408,-1.36 3.573,-1.82 2.738,-2.28 1.547,-3.42 0,-5.244 l 0,-10.834 1.951,0 c 0.411,0 0.705,-0.079 0.883,-0.236 0.177,-0.158 0.268,-0.367 0.268,-0.628 0,-0.246 -0.091,-0.452 -0.268,-0.616 -0.178,-0.165 -0.472,-0.247 -0.883,-0.247 l -5.628,0 c -0.411,0 -0.706,0.082 -0.883,0.247 -0.178,0.164 -0.267,0.37 -0.267,0.616 0,0.261 0.089,0.47 0.267,0.628 0.177,0.157 0.472,0.236 0.883,0.236 l 1.951,0 0,14.331 -1.458,0 c -0.411,0 -0.706,0.082 -0.883,0.247 -0.178,0.164 -0.268,0.376 -0.268,0.637 0,0.246 0.09,0.452 0.268,0.616 C -3.89,-0.082 -3.595,0 -3.184,0 L 0,0 Z"
                   stroke-miterlimit="10"
                   inkscape:connector-curvature="0"
                   style="fill:none;stroke:#1c454c;stroke-width:1.45299995;stroke-miterlimit:10" />
              </g>
              <g
                 id="g164"
                 transform="translate(263.72,687.52)">
                <path
                   id="path166"
                   d="m 0,0 0,-10.613 c 2.189,2.745 4.83,4.117 7.927,4.117 2.649,0 4.917,-0.925 6.803,-2.775 1.886,-1.852 2.829,-4.121 2.829,-6.812 0,-2.717 -0.954,-5.018 -2.861,-6.904 -1.909,-1.885 -4.165,-2.828 -6.771,-2.828 -3.168,0 -5.81,1.373 -7.927,4.119 l 0,-3.786 -4.255,0 c -0.431,0 -0.742,0.083 -0.929,0.249 -0.187,0.165 -0.28,0.374 -0.28,0.623 0,0.264 0.093,0.476 0.28,0.635 0.187,0.159 0.498,0.239 0.929,0.239 l 2.441,0 0,21.969 -2.441,0 c -0.431,0 -0.742,0.083 -0.929,0.249 -0.187,0.166 -0.28,0.381 -0.28,0.644 0,0.25 0.093,0.458 0.28,0.624 C -4.997,-0.084 -4.686,0 -4.255,0 L 0,0 Z m 15.745,-16.166 c 0,2.206 -0.784,4.073 -2.354,5.605 -1.57,1.532 -3.405,2.298 -5.508,2.298 -2.102,0 -3.939,-0.766 -5.507,-2.298 -1.569,-1.533 -2.355,-3.399 -2.355,-5.605 0,-2.204 0.786,-4.072 2.355,-5.604 1.568,-1.531 3.405,-2.297 5.507,-2.297 2.103,0 3.938,0.766 5.508,2.297 1.57,1.532 2.354,3.4 2.354,5.604"
                   inkscape:connector-curvature="0"
                   style="fill:#8c8c8c" />
              </g>
              <g
                 id="g168"
                 transform="translate(299.84,662.02)">
                <path
                   id="path170"
                   d="m 0,0 0,2.656 c -2.476,-2.246 -5.155,-3.37 -8.035,-3.37 -1.77,0 -3.117,0.483 -4.038,1.448 -1.196,1.266 -1.792,2.743 -1.792,4.428 l 0,11.706 -2.441,0 c -0.432,0 -0.743,0.087 -0.929,0.259 -0.188,0.172 -0.281,0.396 -0.281,0.67 0,0.259 0.093,0.475 0.281,0.647 0.186,0.174 0.497,0.26 0.929,0.26 l 4.255,0 0,-13.542 c 0,-1.182 0.374,-2.153 1.123,-2.916 0.748,-0.764 1.684,-1.145 2.807,-1.145 2.951,0 5.659,1.353 8.121,4.061 l 0,11.706 -3.348,0 c -0.431,0 -0.742,0.087 -0.928,0.259 -0.188,0.172 -0.281,0.396 -0.281,0.67 0,0.259 0.093,0.475 0.281,0.647 0.186,0.174 0.497,0.26 0.928,0.26 l 5.162,0 0,-16.891 1.535,0 C 3.781,1.813 4.089,1.73 4.278,1.566 4.463,1.399 4.558,1.179 4.558,0.907 4.558,0.647 4.464,0.431 4.278,0.259 4.089,0.086 3.781,0 3.349,0 L 0,0 Z"
                   inkscape:connector-curvature="0"
                   style="fill:#8c8c8c" />
              </g>
              <g
                 id="g172"
                 transform="translate(321.83,679.54)">
                <path
                   id="path174"
                   d="M 0,0 C 0,0.417 0.087,0.719 0.259,0.907 0.432,1.094 0.648,1.188 0.907,1.188 1.181,1.188 1.405,1.094 1.578,0.907 1.75,0.719 1.837,0.402 1.837,-0.044 l 0,-3.11 c 0,-0.432 -0.087,-0.741 -0.259,-0.928 -0.173,-0.187 -0.397,-0.281 -0.671,-0.281 -0.244,0 -0.45,0.079 -0.615,0.237 C 0.126,-3.968 0.028,-3.708 0,-3.348 -0.086,-2.484 -0.533,-1.772 -1.339,-1.21 -2.52,-0.404 -4.083,0 -6.026,0 c -2.031,0 -3.606,-0.41 -4.73,-1.231 -0.849,-0.619 -1.275,-1.31 -1.275,-2.074 0,-0.863 0.505,-1.585 1.513,-2.16 0.691,-0.403 2.001,-0.712 3.93,-0.928 2.519,-0.274 4.27,-0.584 5.249,-0.929 1.396,-0.505 2.437,-1.202 3.122,-2.095 0.683,-0.894 1.025,-1.859 1.025,-2.894 0,-1.542 -0.743,-2.913 -2.226,-4.115 -1.482,-1.202 -3.656,-1.804 -6.521,-1.804 -2.867,0 -5.214,0.727 -7.042,2.182 0,-0.49 -0.029,-0.808 -0.086,-0.951 -0.057,-0.143 -0.162,-0.267 -0.313,-0.367 -0.151,-0.1 -0.321,-0.15 -0.508,-0.15 -0.259,0 -0.476,0.093 -0.648,0.28 -0.173,0.187 -0.26,0.498 -0.26,0.928 l 0,3.738 c 0,0.431 0.084,0.741 0.25,0.928 0.165,0.187 0.384,0.281 0.658,0.281 0.26,0 0.478,-0.09 0.659,-0.269 0.18,-0.181 0.271,-0.422 0.271,-0.724 0,-0.663 0.164,-1.218 0.495,-1.664 0.504,-0.691 1.307,-1.263 2.409,-1.716 1.101,-0.455 2.451,-0.681 4.05,-0.681 2.361,0 4.118,0.44 5.269,1.318 1.153,0.878 1.729,1.806 1.729,2.786 0,1.122 -0.584,2.023 -1.749,2.7 -1.182,0.677 -2.899,1.13 -5.152,1.361 -2.254,0.229 -3.87,0.532 -4.849,0.906 -0.979,0.375 -1.743,0.936 -2.29,1.685 -0.546,0.748 -0.82,1.555 -0.82,2.419 0,1.555 0.763,2.79 2.289,3.704 1.527,0.915 3.348,1.372 5.465,1.372 C -3.606,1.835 -1.569,1.223 0,0"
                   inkscape:connector-curvature="0"
                   style="fill:#8c8c8c" />
              </g>
              <g
                 id="g176"
                 transform="translate(332.58,680.73)">
                <path
                   id="path178"
                   d="m 0,0 9.849,0 c 0.432,0 0.741,-0.087 0.929,-0.261 0.187,-0.172 0.281,-0.395 0.281,-0.668 0,-0.259 -0.094,-0.476 -0.281,-0.649 C 10.59,-1.75 10.281,-1.836 9.849,-1.836 L 0,-1.836 0,-13.91 c 0,-1.051 0.421,-1.93 1.264,-2.634 0.841,-0.707 2.077,-1.059 3.704,-1.059 1.224,0 2.548,0.183 3.974,0.551 1.425,0.366 2.534,0.78 3.326,1.242 0.288,0.185 0.525,0.279 0.713,0.279 0.23,0 0.431,-0.089 0.604,-0.269 0.173,-0.181 0.259,-0.392 0.259,-0.637 0,-0.215 -0.093,-0.418 -0.28,-0.605 -0.461,-0.475 -1.58,-0.991 -3.358,-1.544 -1.779,-0.554 -3.481,-0.832 -5.108,-0.832 -2.118,0 -3.802,0.497 -5.055,1.492 -1.252,0.992 -1.878,2.332 -1.878,4.016 l 0,12.074 -3.348,0 c -0.433,0 -0.743,0.086 -0.93,0.258 -0.186,0.173 -0.28,0.397 -0.28,0.67 0,0.26 0.094,0.475 0.28,0.647 C -5.926,-0.087 -5.616,0 -5.183,0 l 3.348,0 0,5.356 c 0,0.432 0.086,0.741 0.259,0.928 0.173,0.187 0.388,0.282 0.647,0.282 0.274,0 0.497,-0.095 0.67,-0.282 C -0.086,6.097 0,5.788 0,5.356 L 0,0 Z"
                   inkscape:connector-curvature="0"
                   style="fill:#8c8c8c" />
              </g>
              <g
                 id="g180"
                 transform="translate(367.47,670.94)">
                <path
                   id="path182"
                   d="m 0,0 -18.489,0 c 0.316,-2.347 1.299,-4.236 2.948,-5.669 1.649,-1.433 3.689,-2.149 6.124,-2.149 1.352,0 2.772,0.222 4.255,0.669 1.483,0.446 2.692,1.037 3.627,1.771 0.275,0.216 0.511,0.324 0.714,0.324 0.23,0 0.431,-0.09 0.604,-0.27 0.173,-0.18 0.259,-0.392 0.259,-0.637 0,-0.245 -0.115,-0.482 -0.346,-0.713 -0.691,-0.72 -1.918,-1.393 -3.681,-2.019 -1.765,-0.627 -3.575,-0.94 -5.432,-0.94 -3.11,0 -5.706,1.018 -7.787,3.057 -2.08,2.037 -3.121,4.503 -3.121,7.398 0,2.634 0.975,4.894 2.926,6.78 1.952,1.887 4.367,2.83 7.247,2.83 2.966,0 5.406,-0.968 7.323,-2.904 C -0.915,5.59 0.028,3.081 0,0 m -1.836,1.836 c -0.36,2.002 -1.307,3.629 -2.84,4.882 -1.534,1.252 -3.358,1.879 -5.476,1.879 -2.116,0 -3.938,-0.619 -5.465,-1.858 -1.526,-1.238 -2.475,-2.872 -2.851,-4.903 l 16.632,0 z"
                   inkscape:connector-curvature="0"
                   style="fill:#8c8c8c" />
              </g>
              <g
                 id="g184"
                 transform="translate(376.82,680.73)">
                <path
                   id="path186"
                   d="m 0,0 0,-4.579 c 2.361,2.13 4.128,3.502 5.302,4.114 1.174,0.612 2.257,0.919 3.25,0.919 1.081,0 2.085,-0.365 3.013,-1.091 0.929,-0.728 1.394,-1.279 1.394,-1.652 0,-0.275 -0.089,-0.502 -0.27,-0.681 -0.18,-0.18 -0.407,-0.27 -0.68,-0.27 -0.145,0 -0.266,0.024 -0.367,0.076 -0.102,0.049 -0.289,0.212 -0.563,0.485 -0.504,0.504 -0.942,0.85 -1.316,1.037 C 9.388,-1.456 9.02,-1.36 8.661,-1.36 7.869,-1.36 6.914,-1.678 5.8,-2.312 4.683,-2.945 2.75,-4.492 0,-6.954 l 0,-9.936 8.035,0 c 0.445,0 0.763,-0.083 0.949,-0.248 0.187,-0.167 0.281,-0.386 0.281,-0.659 0,-0.259 -0.094,-0.476 -0.281,-0.648 -0.186,-0.173 -0.504,-0.259 -0.949,-0.259 l -14.234,0 c -0.433,0 -0.742,0.083 -0.93,0.248 -0.186,0.166 -0.281,0.378 -0.281,0.637 0,0.245 0.09,0.45 0.27,0.616 0.181,0.165 0.493,0.248 0.941,0.248 l 4.384,0 0,15.119 -3.348,0 c -0.432,0 -0.741,0.087 -0.928,0.259 -0.188,0.172 -0.281,0.396 -0.281,0.67 0,0.259 0.09,0.475 0.27,0.647 C -5.921,-0.086 -5.609,0 -5.163,0 L 0,0 Z"
                   inkscape:connector-curvature="0"
                   style="fill:#8c8c8c" />
              </g>
            </g>
          </g>
          <g
             id="g188"
             transform="translate(393.82,693.85)">
            <path
               id="path190"
               d="m 0,0 0,-40.153 0.588,0 0,40.171 L 0,0 Z"
               inkscape:connector-curvature="0"
               style="fill:#1c424c" />
          </g>
          <g
             id="g192">
            <g
               id="g194"
               clip-path="url(#clipPath196)">
              <g
                 id="g200"
                 transform="translate(227.93,686.74)">
                <path
                   id="path202"
                   d="m 0,0 c 0,-0.824 -0.667,-1.492 -1.491,-1.492 -0.824,0 -1.49,0.668 -1.49,1.492 0,0.823 0.666,1.49 1.49,1.49 C -0.667,1.49 0,0.823 0,0"
                   inkscape:connector-curvature="0"
                   style="fill:#1c454c" />
              </g>
              <g
                 id="g204"
                 transform="translate(227.93,686.74)">
                <path
                   id="path206"
                   d="m 0,0 c 0,-0.824 -0.667,-1.492 -1.491,-1.492 -0.824,0 -1.49,0.668 -1.49,1.492 0,0.823 0.666,1.49 1.49,1.49 C -0.667,1.49 0,0.823 0,0 Z"
                   stroke-miterlimit="10"
                   inkscape:connector-curvature="0"
                   style="fill:none;stroke:#1c454c;stroke-width:1.29999995;stroke-miterlimit:10" />
              </g>
              <g
                 id="g208"
                 transform="translate(200.46,662.72)">
                <path
                   id="path210"
                   d="m 0,0 -0.521,0.012 c -0.429,0 -0.734,0.083 -0.912,0.247 -0.18,0.166 -0.27,0.374 -0.27,0.623 0,0.262 0.09,0.472 0.27,0.632 0.178,0.158 0.483,0.238 0.912,0.238 L 0,1.755 l 1.681,0 0,20.634 -2.305,0 c -0.407,0 -0.701,0.076 -0.878,0.226 -0.176,0.15 -0.264,0.35 -0.264,0.598 0,0.236 0.088,0.431 0.264,0.588 0.177,0.158 0.471,0.236 0.878,0.236 l 4.018,0 0,-3.571 c 1.998,2.59 4.493,3.885 7.484,3.885 2.46,0 4.591,-0.891 6.393,-2.669 1.8,-1.778 2.701,-3.949 2.701,-6.512 0,-2.538 -0.89,-4.678 -2.671,-6.425 C 15.52,6.999 13.379,6.127 10.878,6.127 7.954,6.127 5.459,7.421 3.394,10.01 l 0,-8.255 3.965,0 1.954,-0.003 c 0.429,0 0.734,-0.08 0.913,-0.238 0.179,-0.16 0.27,-0.37 0.27,-0.632 0,-0.249 -0.091,-0.457 -0.27,-0.623 C 10.047,0.095 9.742,0.012 9.313,0.012 L 7.359,0 0,0 Z m 16.037,20.536 c -1.482,1.443 -3.216,2.166 -5.201,2.166 -1.985,0 -3.719,-0.723 -5.199,-2.166 -1.482,-1.446 -2.223,-3.208 -2.223,-5.287 0,-2.081 0.741,-3.842 2.223,-5.289 1.48,-1.443 3.214,-2.167 5.199,-2.167 1.985,0 3.719,0.724 5.201,2.167 1.482,1.447 2.222,3.208 2.222,5.289 0,2.078 -0.74,3.841 -2.222,5.287"
                   inkscape:connector-curvature="0"
                   style="fill:#1c454c" />
              </g>
              <g
                 id="g212"
                 transform="translate(200.46,662.72)">
                <path
                   id="path214"
                   d="m 0,0 -0.521,0.012 c -0.429,0 -0.734,0.083 -0.912,0.247 -0.18,0.166 -0.27,0.374 -0.27,0.623 0,0.262 0.09,0.472 0.27,0.632 0.178,0.158 0.483,0.238 0.912,0.238 L 0,1.755 l 1.681,0 0,20.634 -2.305,0 c -0.407,0 -0.701,0.076 -0.878,0.226 -0.176,0.15 -0.264,0.35 -0.264,0.598 0,0.236 0.088,0.431 0.264,0.588 0.177,0.158 0.471,0.236 0.878,0.236 l 4.018,0 0,-3.571 c 1.998,2.59 4.493,3.885 7.484,3.885 2.46,0 4.591,-0.891 6.393,-2.669 1.8,-1.778 2.701,-3.949 2.701,-6.512 0,-2.538 -0.89,-4.678 -2.671,-6.425 C 15.52,6.999 13.379,6.127 10.878,6.127 7.954,6.127 5.459,7.421 3.394,10.01 l 0,-8.255 3.965,0 1.954,-0.003 c 0.429,0 0.734,-0.08 0.913,-0.238 0.179,-0.16 0.27,-0.37 0.27,-0.632 0,-0.249 -0.091,-0.457 -0.27,-0.623 C 10.047,0.095 9.742,0.012 9.313,0.012 L 7.359,0 0,0 Z m 16.037,20.536 c -1.482,1.443 -3.216,2.166 -5.201,2.166 -1.985,0 -3.719,-0.723 -5.199,-2.166 -1.482,-1.446 -2.223,-3.208 -2.223,-5.287 0,-2.081 0.741,-3.842 2.223,-5.289 1.48,-1.443 3.214,-2.167 5.199,-2.167 1.985,0 3.719,0.724 5.201,2.167 1.482,1.447 2.222,3.208 2.222,5.289 0,2.078 -0.74,3.841 -2.222,5.287 z"
                   stroke-miterlimit="10"
                   inkscape:connector-curvature="0"
                   style="fill:none;stroke:#1c454c;stroke-width:1.46800005;stroke-miterlimit:10" />
              </g>
              <g
                 id="g216"
                 transform="translate(216.03,677.96)">
                <path
                   id="path218"
                   d="m 0,0 c 0,2.621 -2.119,4.739 -4.74,4.739 -2.618,0 -4.739,-2.118 -4.739,-4.739 0,-2.619 2.121,-4.741 4.739,-4.741 C -2.119,-4.741 0,-2.619 0,0"
                   inkscape:connector-curvature="0"
                   style="fill:#8a8c8c" />
              </g>
            </g>
          </g>
        </g>
      </g>
    </g>
  </g>
  <g
     id="g4529"
     transform="translate(116.65906,-0.00248653)">
    <g
       id="g4501"
       transform="matrix(1.0979,0,0,1.0979,5.1242,-1.2679)">
      <g
         id="g4515"
         transform="translate(-19.632,-0.70365)">
        <rect
           style="opacity:1;fill:#ffffff;fill-opacity:1;stroke:none;stroke-width:16.12162971;stroke-linecap:round;stroke-linejoin:round;stroke-miterlimit:4;stroke-dasharray:none;stroke-dashoffset:10;stroke-opacity:1"
           id="rect4198"
           width="57.955162"
           height="57.955162"
           x="-86.520073"
           y="6.594317" />
        <g
           id="g4344"
           transform="matrix(0.32422,0,0,-0.32422,-26.145,69.408)"
           style="fill:#1c424c">
          <path
             id="path4346"
             d="m 0,0 -193.62,0 c -4.04,0 -7.314,3.274 -7.314,7.314 l 0,193.71 c 0,4.04 3.274,7.314 7.314,7.314 l 193.62,0 c 4.039,0 7.314,-3.274 7.314,-7.314 l 0,-193.71 C 7.314,3.278 4.039,0.004 0,0.004 m -186.31,14.628 178.99,0 0,179.08 -178.99,0 0,-179.08 z"
             inkscape:connector-curvature="0"
             style="fill:#1c424c" />
        </g>
        <g
           id="g4348"
           transform="matrix(0.32422,0,0,-0.32422,-38.979,10.151)"
           style="fill:#1c424c">
          <path
             id="path4350"
             d="m 0,0 0,-156.35 -2.479,0 0,156.28 L 0,0 Z"
             inkscape:connector-curvature="0"
             style="fill:#1c424c" />
        </g>
        <g
           id="g4352"
           transform="matrix(0.32422,0,0,-0.32422,-154.03,172.11)"
           style="fill:#1c454c">
          <g
             id="g4354"
             clip-path="url(#clipPath4356-3)">
            <g
               id="g4360"
               transform="translate(248.08,371.28)"
               style="fill:#1c454c">
              <path
                 id="path4362"
                 d="m 0,0 -2.281,0.049 c -1.88,0 -3.217,0.367 -3.998,1.087 -0.789,0.726 -1.184,1.642 -1.184,2.731 0,1.151 0.395,2.07 1.184,2.774 0.781,0.692 2.118,1.043 3.998,1.043 L 0,7.701 l 7.367,0 0,90.518 -10.1,0 c -1.787,0 -3.074,0.334 -3.846,0.99 -0.774,0.663 -1.161,1.539 -1.161,2.625 0,1.033 0.387,1.893 1.161,2.579 0.772,0.692 2.059,1.036 3.846,1.036 l 17.607,0 0,-15.667 c 8.759,11.36 19.695,17.041 32.806,17.041 10.779,0 20.119,-3.906 28.016,-11.704 C 83.589,87.315 87.537,77.792 87.537,66.549 87.537,55.412 83.634,46.024 75.831,38.36 68.023,30.703 58.638,26.874 47.68,26.874 c -12.818,0 -23.751,5.679 -32.806,17.037 l 0,-36.211 17.384,0 8.564,-0.016 c 1.879,0 3.217,-0.352 3.998,-1.043 0.789,-0.704 1.186,-1.624 1.186,-2.775 0,-1.088 -0.397,-2.005 -1.186,-2.731 C 44.039,0.416 42.701,0.049 40.822,0.049 l -8.564,-0.05 -32.258,0 z m 70.291,90.091 c -6.497,6.33 -14.096,9.502 -22.797,9.502 -8.698,0 -16.3,-3.173 -22.789,-9.502 -6.494,-6.345 -9.743,-14.078 -9.743,-23.198 0,-9.127 3.25,-16.854 9.743,-23.199 6.489,-6.332 14.091,-9.507 22.789,-9.507 8.701,0 16.299,3.175 22.797,9.507 6.493,6.345 9.737,14.072 9.737,23.199 0,9.12 -3.244,16.853 -9.737,23.198"
                 inkscape:connector-curvature="0"
                 style="fill:#1c454c" />
            </g>
            <g
               id="g4364"
               transform="translate(248.08,367.63)"
               style="fill:#1c454c">
              <path
                 id="path4366"
                 d="m 0,0 -0.079,0 -2.243,0.049 c -2.834,0.007 -4.937,0.677 -6.429,2.05 -1.546,1.424 -2.362,3.297 -2.362,5.417 0,2.193 0.83,4.094 2.402,5.498 1.503,1.329 3.602,1.97 6.43,1.97 l 2.255,0.017 3.742,0 0,83.218 -6.449,0 c -2.707,0 -4.738,0.607 -6.209,1.858 -1.605,1.374 -2.448,3.24 -2.448,5.407 0,2.089 0.827,3.926 2.391,5.311 1.46,1.309 3.515,1.954 6.266,1.954 l 21.257,0 0,-9.938 c 8.249,7.515 18.02,11.312 29.156,11.312 11.72,0 22.009,-4.292 30.581,-12.757 8.578,-8.474 12.926,-18.959 12.926,-31.16 0,-12.092 -4.306,-22.452 -12.798,-30.793 C 69.909,31.096 59.577,26.88 47.68,26.88 c -10.967,0 -20.74,3.844 -29.156,11.447 l 0,-23.32 13.734,0 8.571,-0.016 c 2.821,0 4.92,-0.641 6.41,-1.96 1.585,-1.413 2.417,-3.315 2.417,-5.508 0,-2.121 -0.817,-3.994 -2.364,-5.417 -1.498,-1.38 -3.615,-2.051 -6.47,-2.051 L 32.279,0.006 0,0.006 Z M -3.813,7.518 C -3.62,7.457 -3.16,7.349 -2.281,7.349 l 0.08,0 2.24,-0.049 32.219,0 8.543,0.05 c 0.897,0 1.362,0.108 1.555,0.17 l 0,0.008 c -0.223,0.063 -0.693,0.157 -1.534,0.157 l -8.571,0.016 -21.027,0 0,50.295 6.504,-8.159 c 0.103,-0.129 0.206,-0.256 0.309,-0.384 -4.468,6.079 -6.725,13.147 -6.725,21.09 0,7.527 2.027,14.269 6.041,20.125 l -6.129,-7.949 0,22.73 -0.207,0 0,-97.749 -13.272,-0.016 c -0.857,0 -1.333,-0.093 -1.558,-0.156 l 0,-0.01 z m 48.594,26.763 c 0.953,-0.071 1.919,-0.107 2.899,-0.107 10.058,0 18.431,3.416 25.595,10.443 7.14,7.012 10.612,15.381 10.612,25.583 0,10.321 -3.519,18.817 -10.757,25.973 -5.307,5.24 -11.185,8.512 -17.821,9.892 6.484,-1.423 12.358,-4.672 17.529,-9.71 l 0.004,-0.004 c 7.191,-7.027 10.836,-15.71 10.836,-25.808 0,-10.099 -3.645,-18.782 -10.836,-25.81 -7.183,-7 -15.71,-10.547 -25.348,-10.547 -0.914,0 -1.818,0.031 -2.713,0.095 m 2.713,65.311 c -7.78,0 -14.401,-2.769 -20.24,-8.465 -5.814,-5.681 -8.642,-12.415 -8.642,-20.584 0,-8.17 2.828,-14.905 8.644,-20.589 5.839,-5.697 12.46,-8.468 20.238,-8.468 7.776,0 14.399,2.772 20.25,8.472 5.809,5.677 8.634,12.412 8.634,20.585 0,8.17 -2.825,14.904 -8.634,20.583 -5.848,5.697 -12.471,8.466 -20.25,8.466"
                 inkscape:connector-curvature="0"
                 style="fill:#1c454c" />
            </g>
            <g
               id="g4368"
               transform="translate(316.58,438.23)"
               style="fill:#8a8c8c">
              <path
                 id="path4370"
                 d="m 0,0 c 0,11.588 -9.362,20.95 -20.951,20.95 -11.574,0 -20.947,-9.362 -20.947,-20.95 0,-11.574 9.373,-20.953 20.947,-20.953 C -9.362,-20.953 0,-11.574 0,0"
                 inkscape:connector-curvature="0"
                 style="fill:#8a8c8c" />
            </g>
          </g>
        </g>
      </g>
    </g>
  </g>
</svg>
