<?xml version="1.0" encoding="UTF-8" standalone="no"?>
<svg
   xmlns:dc="http://purl.org/dc/elements/1.1/"
   xmlns:cc="http://creativecommons.org/ns#"
   xmlns:rdf="http://www.w3.org/1999/02/22-rdf-syntax-ns#"
   xmlns:svg="http://www.w3.org/2000/svg"
   xmlns="http://www.w3.org/2000/svg"
   xmlns:sodipodi="http://sodipodi.sourceforge.net/DTD/sodipodi-0.dtd"
   xmlns:inkscape="http://www.inkscape.org/namespaces/inkscape"
   id="svg4385"
   height="20.929mm"
   viewBox="0 0 275.85253 74.157133"
   width="77.852mm"
   version="1.1"
   inkscape:version="0.91 r"
   sodipodi:docname="pinbuster.svg">
  <metadata
     id="metadata51">
    <rdf:RDF>
      <cc:Work
         rdf:about="">
        <dc:format>image/svg+xml</dc:format>
        <dc:type
           rdf:resource="http://purl.org/dc/dcmitype/StillImage" />
      </cc:Work>
    </rdf:RDF>
  </metadata>
  <sodipodi:namedview
     pagecolor="#ffffff"
     bordercolor="#666666"
     borderopacity="1"
     objecttolerance="10"
     gridtolerance="10"
     guidetolerance="10"
     inkscape:pageopacity="0"
     inkscape:pageshadow="2"
     inkscape:window-width="1920"
     inkscape:window-height="1052"
     id="namedview49"
     showgrid="false"
     inkscape:zoom="1.8558592"
     inkscape:cx="25.680779"
     inkscape:cy="115.55146"
     inkscape:window-x="0"
     inkscape:window-y="1"
     inkscape:window-maximized="1"
     inkscape:current-layer="svg4385" />
  <defs
     id="defs4387">
    <clipPath
       id="clipPath144"
       clipPathUnits="userSpaceOnUse">
      <path
         id="path146"
         d="m0 0h595.28v841.89h-595.28v-841.89z" />
    </clipPath>
    <clipPath
       id="clipPath196"
       clipPathUnits="userSpaceOnUse">
      <path
         id="path198"
         d="m0 0h595.28v841.89h-595.28v-841.89z" />
    </clipPath>
  </defs>
  <g
     id="g9821"
     transform="translate(250.71 -124.26)">
    <g
       id="layer1"
       transform="translate(-362.89 -58.981)">
      <g
         id="g4346"
         transform="matrix(1.25,0,0,-1.25,-40.619,1059)">
        <g
           id="g5073"
           transform="translate(-65.054,-4.0406)">
          <path
             id="path138"
             stroke-linejoin="round"
             d="m189.11 702.83h217.05v-55.694h-217.05v55.694z"
             stroke="#1c424c"
             stroke-linecap="round"
             stroke-miterlimit="10"
             stroke-width="3.632"
             fill="#fff" />
          <g
             id="g140">
            <g
               id="g142"
               clip-path="url(#clipPath144)">
              <g
                 id="g148"
                 transform="translate(228.09,680.51)">
                <path
                   id="path150"
                   d="m0 0v-16.083h2.682c0.429 0 0.734-0.08 0.913-0.237 0.18-0.158 0.27-0.367 0.27-0.628 0-0.246-0.09-0.452-0.27-0.616-0.179-0.166-0.484-0.248-0.913-0.248h-7.108c-0.415 0-0.713 0.082-0.893 0.248-0.179 0.164-0.27 0.37-0.27 0.616 0 0.261 0.091 0.47 0.27 0.628 0.18 0.157 0.478 0.237 0.893 0.237h2.683v14.335h-0.919c-0.415 0-0.716 0.082-0.902 0.247-0.188 0.165-0.281 0.369-0.281 0.616 0 0.261 0.09 0.474 0.27 0.638 0.179 0.165 0.485 0.247 0.913 0.247h2.662z"
                   fill="#1c454c" />
              </g>
              <g
                 id="g152"
                 transform="translate(228.09,680.51)">
                <path
                   id="path154"
                   d="m0 0v-16.083h2.682c0.429 0 0.734-0.08 0.913-0.237 0.18-0.158 0.27-0.367 0.27-0.628 0-0.246-0.09-0.452-0.27-0.616-0.179-0.166-0.484-0.248-0.913-0.248h-7.108c-0.415 0-0.713 0.082-0.893 0.248-0.179 0.164-0.27 0.37-0.27 0.616 0 0.261 0.091 0.47 0.27 0.628 0.18 0.157 0.478 0.237 0.893 0.237h2.683v14.335h-0.919c-0.415 0-0.716 0.082-0.902 0.247-0.188 0.165-0.281 0.369-0.281 0.616 0 0.261 0.09 0.474 0.27 0.638 0.179 0.165 0.485 0.247 0.913 0.247h2.662z"
                   stroke="#1c454c"
                   stroke-miterlimit="10"
                   stroke-width="1.453"
                   fill="none" />
              </g>
              <g
                 id="g156"
                 transform="translate(239.25,680.5)">
                <path
                   id="path158"
                   d="m0 0v-2.612c1.204 1.221 2.293 2.063 3.266 2.53 0.971 0.465 2.066 0.699 3.286 0.699 1.314 0 2.512-0.281 3.594-0.844 0.766-0.411 1.461-1.092 2.084-2.045 0.623-0.952 0.935-1.93 0.935-2.929v-10.877h1.458c0.411 0 0.705-0.079 0.884-0.236 0.177-0.158 0.266-0.367 0.266-0.628 0-0.247-0.089-0.452-0.266-0.616-0.179-0.166-0.473-0.247-0.884-0.247h-4.621c-0.425 0-0.726 0.081-0.903 0.247-0.179 0.164-0.268 0.369-0.268 0.616 0 0.261 0.089 0.47 0.268 0.628 0.177 0.157 0.478 0.236 0.903 0.236h1.437v10.588c0 1.22-0.445 2.252-1.334 3.095-0.891 0.843-2.082 1.264-3.574 1.264-1.138 0-2.123-0.229-2.958-0.689s-2.026-1.6-3.573-3.424v-10.834h1.951c0.411 0 0.705-0.079 0.883-0.236 0.177-0.158 0.268-0.367 0.268-0.628 0-0.246-0.091-0.452-0.268-0.616-0.178-0.165-0.472-0.247-0.883-0.247h-5.628c-0.411 0-0.706 0.082-0.883 0.247-0.178 0.164-0.267 0.37-0.267 0.616 0 0.261 0.089 0.47 0.267 0.628 0.177 0.157 0.472 0.236 0.883 0.236h1.951v14.331h-1.458c-0.411 0-0.706 0.082-0.883 0.247-0.178 0.164-0.268 0.376-0.268 0.637 0 0.246 0.09 0.452 0.268 0.616 0.177 0.165 0.472 0.247 0.883 0.247h3.184z"
                   fill="#1c454c" />
              </g>
              <g
                 id="g160"
                 transform="translate(239.25,680.5)">
                <path
                   id="path162"
                   d="m0 0v-2.612c1.204 1.221 2.293 2.063 3.266 2.53 0.971 0.465 2.066 0.699 3.286 0.699 1.314 0 2.512-0.281 3.594-0.844 0.766-0.411 1.461-1.092 2.084-2.045 0.623-0.952 0.935-1.93 0.935-2.929v-10.877h1.458c0.411 0 0.705-0.079 0.884-0.236 0.177-0.158 0.266-0.367 0.266-0.628 0-0.247-0.089-0.452-0.266-0.616-0.179-0.166-0.473-0.247-0.884-0.247h-4.621c-0.425 0-0.726 0.081-0.903 0.247-0.179 0.164-0.268 0.369-0.268 0.616 0 0.261 0.089 0.47 0.268 0.628 0.177 0.157 0.478 0.236 0.903 0.236h1.437v10.588c0 1.22-0.445 2.252-1.334 3.095-0.891 0.843-2.082 1.264-3.574 1.264-1.138 0-2.123-0.229-2.958-0.689s-2.026-1.6-3.573-3.424v-10.834h1.951c0.411 0 0.705-0.079 0.883-0.236 0.177-0.158 0.268-0.367 0.268-0.628 0-0.246-0.091-0.452-0.268-0.616-0.178-0.165-0.472-0.247-0.883-0.247h-5.628c-0.411 0-0.706 0.082-0.883 0.247-0.178 0.164-0.267 0.37-0.267 0.616 0 0.261 0.089 0.47 0.267 0.628 0.177 0.157 0.472 0.236 0.883 0.236h1.951v14.331h-1.458c-0.411 0-0.706 0.082-0.883 0.247-0.178 0.164-0.268 0.376-0.268 0.637 0 0.246 0.09 0.452 0.268 0.616 0.177 0.165 0.472 0.247 0.883 0.247h3.184z"
                   stroke="#1c454c"
                   stroke-miterlimit="10"
                   stroke-width="1.453"
                   fill="none" />
              </g>
              <g
                 id="g164"
                 transform="translate(263.72,687.52)">
                <path
                   id="path166"
                   d="m0 0v-10.613c2.189 2.745 4.83 4.117 7.927 4.117 2.649 0 4.917-0.925 6.803-2.775 1.886-1.852 2.829-4.121 2.829-6.812 0-2.717-0.954-5.018-2.861-6.904-1.909-1.885-4.165-2.828-6.771-2.828-3.168 0-5.81 1.373-7.927 4.119v-3.786h-4.255c-0.431 0-0.742 0.083-0.929 0.249-0.187 0.165-0.28 0.374-0.28 0.623 0 0.264 0.093 0.476 0.28 0.635s0.498 0.239 0.929 0.239h2.441v21.969h-2.441c-0.431 0-0.742 0.083-0.929 0.249s-0.28 0.381-0.28 0.644c0 0.25 0.093 0.458 0.28 0.624s0.498 0.25 0.929 0.25h4.255zm15.745-16.166c0 2.206-0.784 4.073-2.354 5.605s-3.405 2.298-5.508 2.298c-2.102 0-3.939-0.766-5.507-2.298-1.569-1.533-2.355-3.399-2.355-5.605 0-2.204 0.786-4.072 2.355-5.604 1.568-1.531 3.405-2.297 5.507-2.297 2.103 0 3.938 0.766 5.508 2.297 1.57 1.532 2.354 3.4 2.354 5.604"
                   fill="#8c8c8c" />
              </g>
              <g
                 id="g168"
                 transform="translate(299.84,662.02)">
                <path
                   id="path170"
                   d="m0 0v2.656c-2.476-2.246-5.155-3.37-8.035-3.37-1.77 0-3.117 0.483-4.038 1.448-1.196 1.266-1.792 2.743-1.792 4.428v11.706h-2.441c-0.432 0-0.743 0.087-0.929 0.259-0.188 0.172-0.281 0.396-0.281 0.67 0 0.259 0.093 0.475 0.281 0.647 0.186 0.174 0.497 0.26 0.929 0.26h4.255v-13.542c0-1.182 0.374-2.153 1.123-2.916 0.748-0.764 1.684-1.145 2.807-1.145 2.951 0 5.659 1.353 8.121 4.061v11.706h-3.348c-0.431 0-0.742 0.087-0.928 0.259-0.188 0.172-0.281 0.396-0.281 0.67 0 0.259 0.093 0.475 0.281 0.647 0.186 0.174 0.497 0.26 0.928 0.26h5.162v-16.891h1.535c0.432 0 0.74-0.083 0.929-0.247 0.185-0.167 0.28-0.387 0.28-0.659 0-0.26-0.094-0.476-0.28-0.648-0.189-0.173-0.497-0.259-0.929-0.259h-3.349z"
                   fill="#8c8c8c" />
              </g>
              <g
                 id="g172"
                 transform="translate(321.83,679.54)">
                <path
                   id="path174"
                   d="m0 0c0 0.417 0.087 0.719 0.259 0.907 0.173 0.187 0.389 0.281 0.648 0.281 0.274 0 0.498-0.094 0.671-0.281 0.172-0.188 0.259-0.505 0.259-0.951v-3.11c0-0.432-0.087-0.741-0.259-0.928-0.173-0.187-0.397-0.281-0.671-0.281-0.244 0-0.45 0.079-0.615 0.237-0.166 0.158-0.264 0.418-0.292 0.778-0.086 0.864-0.533 1.576-1.339 2.138-1.181 0.806-2.744 1.21-4.687 1.21-2.031 0-3.606-0.41-4.73-1.231-0.849-0.619-1.275-1.31-1.275-2.074 0-0.863 0.505-1.585 1.513-2.16 0.691-0.403 2.001-0.712 3.93-0.928 2.519-0.274 4.27-0.584 5.249-0.929 1.396-0.505 2.437-1.202 3.122-2.095 0.683-0.894 1.025-1.859 1.025-2.894 0-1.542-0.743-2.913-2.226-4.115-1.482-1.202-3.656-1.804-6.521-1.804-2.867 0-5.214 0.727-7.042 2.182 0-0.49-0.029-0.808-0.086-0.951s-0.162-0.267-0.313-0.367-0.321-0.15-0.508-0.15c-0.259 0-0.476 0.093-0.648 0.28-0.173 0.187-0.26 0.498-0.26 0.928v3.738c0 0.431 0.084 0.741 0.25 0.928 0.165 0.187 0.384 0.281 0.658 0.281 0.26 0 0.478-0.09 0.659-0.269 0.18-0.181 0.271-0.422 0.271-0.724 0-0.663 0.164-1.218 0.495-1.664 0.504-0.691 1.307-1.263 2.409-1.716 1.101-0.455 2.451-0.681 4.05-0.681 2.361 0 4.118 0.44 5.269 1.318 1.153 0.878 1.729 1.806 1.729 2.786 0 1.122-0.584 2.023-1.749 2.7-1.182 0.677-2.899 1.13-5.152 1.361-2.254 0.229-3.87 0.532-4.849 0.906-0.979 0.375-1.743 0.936-2.29 1.685-0.546 0.748-0.82 1.555-0.82 2.419 0 1.555 0.763 2.79 2.289 3.704 1.527 0.915 3.348 1.372 5.465 1.372 2.506-0.001 4.543-0.613 6.112-1.836"
                   fill="#8c8c8c" />
              </g>
              <g
                 id="g176"
                 transform="translate(332.58,680.73)">
                <path
                   id="path178"
                   d="m0 0h9.849c0.432 0 0.741-0.087 0.929-0.261 0.187-0.172 0.281-0.395 0.281-0.668 0-0.259-0.094-0.476-0.281-0.649-0.188-0.172-0.497-0.258-0.929-0.258h-9.849v-12.074c0-1.051 0.421-1.93 1.264-2.634 0.841-0.707 2.077-1.059 3.704-1.059 1.224 0 2.548 0.183 3.974 0.551 1.425 0.366 2.534 0.78 3.326 1.242 0.288 0.185 0.525 0.279 0.713 0.279 0.23 0 0.431-0.089 0.604-0.269 0.173-0.181 0.259-0.392 0.259-0.637 0-0.215-0.093-0.418-0.28-0.605-0.461-0.475-1.58-0.991-3.358-1.544-1.779-0.554-3.481-0.832-5.108-0.832-2.118 0-3.802 0.497-5.055 1.492-1.252 0.992-1.878 2.332-1.878 4.016v12.074h-3.348c-0.433 0-0.743 0.086-0.93 0.258-0.186 0.173-0.28 0.397-0.28 0.67 0 0.26 0.094 0.475 0.28 0.647 0.187 0.174 0.497 0.261 0.93 0.261h3.348v5.356c0 0.432 0.086 0.741 0.259 0.928s0.388 0.282 0.647 0.282c0.274 0 0.497-0.095 0.67-0.282s0.259-0.496 0.259-0.928v-5.356z"
                   fill="#8c8c8c" />
              </g>
              <g
                 id="g180"
                 transform="translate(367.47,670.94)">
                <path
                   id="path182"
                   d="m0 0h-18.489c0.316-2.347 1.299-4.236 2.948-5.669s3.689-2.149 6.124-2.149c1.352 0 2.772 0.222 4.255 0.669 1.483 0.446 2.692 1.037 3.627 1.771 0.275 0.216 0.511 0.324 0.714 0.324 0.23 0 0.431-0.09 0.604-0.27s0.259-0.392 0.259-0.637-0.115-0.482-0.346-0.713c-0.691-0.72-1.918-1.393-3.681-2.019-1.765-0.627-3.575-0.94-5.432-0.94-3.11 0-5.706 1.018-7.787 3.057-2.08 2.037-3.121 4.503-3.121 7.398 0 2.634 0.975 4.894 2.926 6.78 1.952 1.887 4.367 2.83 7.247 2.83 2.966 0 5.406-0.968 7.323-2.904 1.914-1.938 2.857-4.447 2.829-7.528m-1.836 1.836c-0.36 2.002-1.307 3.629-2.84 4.882-1.534 1.252-3.358 1.879-5.476 1.879-2.116 0-3.938-0.619-5.465-1.858-1.526-1.238-2.475-2.872-2.851-4.903h16.632z"
                   fill="#8c8c8c" />
              </g>
              <g
                 id="g184"
                 transform="translate(376.82,680.73)">
                <path
                   id="path186"
                   d="m0 0v-4.579c2.361 2.13 4.128 3.502 5.302 4.114s2.257 0.919 3.25 0.919c1.081 0 2.085-0.365 3.013-1.091 0.929-0.728 1.394-1.279 1.394-1.652 0-0.275-0.089-0.502-0.27-0.681-0.18-0.18-0.407-0.27-0.68-0.27-0.145 0-0.266 0.024-0.367 0.076-0.102 0.049-0.289 0.212-0.563 0.485-0.504 0.504-0.942 0.85-1.316 1.037-0.375 0.186-0.743 0.282-1.102 0.282-0.792 0-1.747-0.318-2.861-0.952-1.117-0.633-3.05-2.18-5.8-4.642v-9.936h8.035c0.445 0 0.763-0.083 0.949-0.248 0.187-0.167 0.281-0.386 0.281-0.659 0-0.259-0.094-0.476-0.281-0.648-0.186-0.173-0.504-0.259-0.949-0.259h-14.234c-0.433 0-0.742 0.083-0.93 0.248-0.186 0.166-0.281 0.378-0.281 0.637 0 0.245 0.09 0.45 0.27 0.616 0.181 0.165 0.493 0.248 0.941 0.248h4.384v15.119h-3.348c-0.432 0-0.741 0.087-0.928 0.259-0.188 0.172-0.281 0.396-0.281 0.67 0 0.259 0.09 0.475 0.27 0.647 0.181 0.174 0.493 0.26 0.939 0.26h5.163z"
                   fill="#8c8c8c" />
              </g>
            </g>
          </g>
          <g
             id="g188"
             transform="translate(393.82,693.85)">
            <path
               id="path190"
               d="m0 0v-40.153h0.588v40.171l-0.588-0.018z"
               fill="#1c424c" />
          </g>
          <g
             id="g192">
            <g
               id="g194"
               clip-path="url(#clipPath196)">
              <g
                 id="g200"
                 transform="translate(227.93,686.74)">
                <path
                   id="path202"
                   d="m0 0c0-0.824-0.667-1.492-1.491-1.492s-1.49 0.668-1.49 1.492c0 0.823 0.666 1.49 1.49 1.49s1.491-0.667 1.491-1.49"
                   fill="#1c454c" />
              </g>
              <g
                 id="g204"
                 transform="translate(227.93,686.74)">
                <path
                   id="path206"
                   d="m0 0c0-0.824-0.667-1.492-1.491-1.492s-1.49 0.668-1.49 1.492c0 0.823 0.666 1.49 1.49 1.49s1.491-0.667 1.491-1.49z"
                   stroke="#1c454c"
                   stroke-miterlimit="10"
                   stroke-width="1.3"
                   fill="none" />
              </g>
              <g
                 id="g208"
                 transform="translate(200.46,662.72)">
                <path
                   id="path210"
                   d="m0 0-0.521 0.012c-0.429 0-0.734 0.083-0.912 0.247-0.18 0.166-0.27 0.374-0.27 0.623 0 0.262 0.09 0.472 0.27 0.632 0.178 0.158 0.483 0.238 0.912 0.238l0.521 0.003h1.681v20.634h-2.305c-0.407 0-0.701 0.076-0.878 0.226-0.176 0.15-0.264 0.35-0.264 0.598 0 0.236 0.088 0.431 0.264 0.588 0.177 0.158 0.471 0.236 0.878 0.236h4.018v-3.571c1.998 2.59 4.493 3.885 7.484 3.885 2.46 0 4.591-0.891 6.393-2.669 1.8-1.778 2.701-3.949 2.701-6.512 0-2.538-0.89-4.678-2.671-6.425-1.781-1.746-3.922-2.618-6.423-2.618-2.924 0-5.419 1.294-7.484 3.883v-8.255h3.965l1.954-0.003c0.429 0 0.734-0.08 0.913-0.238 0.179-0.16 0.27-0.37 0.27-0.632 0-0.249-0.091-0.457-0.27-0.623-0.179-0.164-0.484-0.247-0.913-0.247l-1.954-0.012h-7.359zm16.037 20.536c-1.482 1.443-3.216 2.166-5.201 2.166s-3.719-0.723-5.199-2.166c-1.482-1.446-2.223-3.208-2.223-5.287 0-2.081 0.741-3.842 2.223-5.289 1.48-1.443 3.214-2.167 5.199-2.167s3.719 0.724 5.201 2.167c1.482 1.447 2.222 3.208 2.222 5.289 0 2.078-0.74 3.841-2.222 5.287"
                   fill="#1c454c" />
              </g>
              <g
                 id="g212"
                 transform="translate(200.46,662.72)">
                <path
                   id="path214"
                   d="m0 0-0.521 0.012c-0.429 0-0.734 0.083-0.912 0.247-0.18 0.166-0.27 0.374-0.27 0.623 0 0.262 0.09 0.472 0.27 0.632 0.178 0.158 0.483 0.238 0.912 0.238l0.521 0.003h1.681v20.634h-2.305c-0.407 0-0.701 0.076-0.878 0.226-0.176 0.15-0.264 0.35-0.264 0.598 0 0.236 0.088 0.431 0.264 0.588 0.177 0.158 0.471 0.236 0.878 0.236h4.018v-3.571c1.998 2.59 4.493 3.885 7.484 3.885 2.46 0 4.591-0.891 6.393-2.669 1.8-1.778 2.701-3.949 2.701-6.512 0-2.538-0.89-4.678-2.671-6.425-1.781-1.746-3.922-2.618-6.423-2.618-2.924 0-5.419 1.294-7.484 3.883v-8.255h3.965l1.954-0.003c0.429 0 0.734-0.08 0.913-0.238 0.179-0.16 0.27-0.37 0.27-0.632 0-0.249-0.091-0.457-0.27-0.623-0.179-0.164-0.484-0.247-0.913-0.247l-1.954-0.012h-7.359zm16.037 20.536c-1.482 1.443-3.216 2.166-5.201 2.166s-3.719-0.723-5.199-2.166c-1.482-1.446-2.223-3.208-2.223-5.287 0-2.081 0.741-3.842 2.223-5.289 1.48-1.443 3.214-2.167 5.199-2.167s3.719 0.724 5.201 2.167c1.482 1.447 2.222 3.208 2.222 5.289 0 2.078-0.74 3.841-2.222 5.287z"
                   stroke="#1c454c"
                   stroke-miterlimit="10"
                   stroke-width="1.468"
                   fill="none" />
              </g>
              <g
                 id="g216"
                 transform="translate(216.03,677.96)">
                <path
                   id="path218"
                   d="m0 0c0 2.621-2.119 4.739-4.74 4.739-2.618 0-4.739-2.118-4.739-4.739 0-2.619 2.121-4.741 4.739-4.741 2.621 0 4.74 2.122 4.74 4.741"
                   fill="#8a8c8c" />
              </g>
            </g>
          </g>
        </g>
      </g>
    </g>
  </g>
</svg>
