<svg id="svg7275" xmlns:rdf="http://www.w3.org/1999/02/22-rdf-syntax-ns#" xmlns="http://www.w3.org/2000/svg" height="36.557mm" width="26.662mm" version="1.1" xmlns:cc="http://creativecommons.org/ns#" xmlns:dc="http://purl.org/dc/elements/1.1/" viewBox="0 0 94.469905 129.53362">
<defs id="defs7277">
<clipPath id="clipPath7105" clipPathUnits="userSpaceOnUse">
<path id="path7107" d="m0 0h595.28v841.89h-595.28v-841.89z"/>
</clipPath>
</defs>
<g id="layer1" transform="translate(-251.56 -255.86)">
<g id="g7101" transform="matrix(1.25 0 0 -1.25 -72.741 1163.2)">
<g id="g7103" fill="#f9f9f9" clip-path="url(#clipPath7105)">
<g id="g7109" transform="translate(322.51 650.36)">
<path id="path7111" d="m0 0h-50.373c-0.884 0-1.711 0.371-2.282 1.027l-9.669 10.981c-0.885 1.027-0.999 2.511-0.286 3.652l34.828 41.245c0.57 0.884 1.512 1.398 2.567 1.398 1.027 0 1.997-0.542 2.567-1.427l34.685-41.701c0.713-1.141 0.599-2.653-0.314-3.651l-9.47-10.526c-0.57-0.627-1.397-0.998-2.253-0.998m-49.004 6.076h47.663l7.046 7.815-30.92 35.74-31.034-35.312 7.245-8.243z" fill="#f9f9f9"/>
</g>
<g id="g7113" transform="translate(285.86 723.01)">
<path id="path7115" d="m0 0 10.326-9.983 0.028-0.029c0.628-0.485 1.512-0.485 2.139 0l0.114 0.086 10.241 9.955c0.142 0.142 0.171 0.399 0.028 0.541l-1.854 2.168c-0.086 0.086-0.2 0.143-0.314 0.143h-18.369c-0.114 0-0.2-0.057-0.285-0.114l-2.083-2.168c-0.142-0.2-0.142-0.456 0.029-0.599" fill="#f9f9f9"/>
</g>
<g id="g7117" transform="translate(295.39 679.82)">
<path id="path7119" d="m0 0c1.284 0.342 2.111 0.57 3.451 0.77l-1.54 1.255-4.763-3.252c1.026 0.4 1.768 0.942 2.852 1.227" fill="#f9f9f9"/>
</g>
<g id="g7121" transform="translate(293.36 672.09)">
<path id="path7123" d="m0 0c5.22 1.512 9.698 2.225 15.061 2.396l-8.158 5.505c-1.769-0.2-3.566-0.513-5.277-1.027-1.74-0.513-3.337-1.397-5.134-1.768l-13.207-8.643c5.962 0.314 10.982 1.883 16.715 3.537" fill="#f9f9f9"/>
</g>
<g id="g7125" transform="translate(272.65 663.65)">
<path id="path7127" d="m0 0c4.136-0.029 8.3-0.143 12.436 0.171 3.965 0.285 7.93 0.913 11.895 1.227 7.359 0.599 13.72 2.909 21.079 3.451l-7.844 5.305c-3.052-0.028-6.133-0.171-9.128-0.599-2.995-0.456-5.876-1.312-8.785-2.139-5.733-1.654-11.581-3.109-17.571-3.223l-2.966-1.854c-0.343-0.342-0.371-0.856-0.057-1.227l0.941-1.112z" fill="#f9f9f9"/>
</g>
<g id="g7129" transform="translate(313.73 661.8)">
<path id="path7131" d="m0 0c-2.539-0.2-5.049-0.513-7.559-0.97-1.683-0.314-3.337-0.798-5.02-1.198h16.401c0.257 0 0.485 0.086 0.656 0.285l1.826 1.912c-1.997 0.656-4.25 0.142-6.304-0.029" fill="#f9f9f9"/>
</g>
<g id="g7133" transform="translate(322.8 665.99)">
<path id="path7135" d="m0 0-3.024 1.883c-7.729-0.371-15.089-2.881-22.819-3.509-4.078-0.342-8.157-0.97-12.236-1.255-3.822-0.257-7.645-0.171-11.495-0.142l2.595-3.024c0.172-0.2 0.428-0.314 0.685-0.314h21.336c3.594 0.485 7.131 1.797 10.668 2.311 2.339 0.342 4.706 0.513 7.045 0.741 1.768 0.171 3.366 0.343 4.963-0.313l2.282 2.395c0.371 0.314 0.371 0.885 0 1.227" fill="#f9f9f9"/>
</g>
<g id="g7137" transform="translate(285.38 622.26)">
<path id="path7139" d="m0 0c-2.482 0-3.794 1.284-3.794 3.651v6.988h-4.906c-0.827 0-1.512 0.685-1.512 1.569 0 0.799 0.685 1.483 1.512 1.483h4.906v2.083c0 0.969 0.77 1.74 1.797 1.74 0.97 0 1.74-0.771 1.74-1.74v-2.083h1.398c0.799 0 1.483-0.684 1.483-1.54 0-0.827-0.684-1.512-1.483-1.512h-1.398v-6.047c0-1.055 0.656-1.483 1.227-1.483h0.314c0.998 0 1.54-0.656 1.54-1.512 0-0.884-0.514-1.597-2.824-1.597" fill="#f9f9f9"/>
</g>
<g id="g7141" transform="translate(296.47 622.26)">
<path id="path7143" d="m0 0c-4.421 0-7.074 3.223-7.074 7.045 0 3.794 2.653 7.017 7.074 7.017 4.45 0 7.102-3.223 7.102-7.017 0-3.822-2.681-7.045-7.102-7.045m0 10.925c-2.196 0-3.423-1.797-3.423-3.88 0-2.11 1.227-3.907 3.423-3.907s3.451 1.797 3.451 3.907c-0.028 2.083-1.255 3.88-3.451 3.88" fill="#f9f9f9"/>
</g>
<g id="g7145" transform="translate(317.92 633.76)">
<path id="path7147" d="m0 0-3.908-9.67c-0.428-0.998-1.397-1.654-2.453-1.654h-0.057c-1.084 0-2.082 0.656-2.481 1.654l-3.908 9.67c-0.086 0.2-0.143 0.428-0.143 0.628 0 0.827 0.713 1.711 1.797 1.711 0.685 0 1.341-0.428 1.569-1.084l3.138-8.386 3.137 8.358c0.257 0.684 0.913 1.112 1.598 1.112 1.083 0 1.768-0.856 1.768-1.74 0.057-0.171 0.029-0.399-0.057-0.599" fill="#f9f9f9"/>
</g>
<g id="g7149" transform="translate(324.25 639.52)">
<path id="path7151" d="m0 0c0-1.169-0.941-2.111-2.111-2.111-1.141 0-2.111 0.942-2.111 2.111s0.97 2.082 2.111 2.082c1.17 0 2.111-0.913 2.111-2.082m-2.111-17.086c-0.97 0-1.74 0.77-1.74 1.74v10.269c0 0.941 0.77 1.711 1.797 1.711 0.942 0 1.712-0.77 1.712-1.711v-10.269c0-0.97-0.77-1.74-1.769-1.74" fill="#f9f9f9"/>
</g>
<g id="g7153" transform="translate(276.9 622.26)">
<path id="path7155" d="m0 0c-2.482 0-3.794 1.284-3.794 3.651v6.988h-0.855c-0.828 0-1.512 0.685-1.512 1.569 0 0.799 0.684 1.483 1.512 1.483h0.855v2.083c0 0.969 0.77 1.74 1.797 1.74 0.97 0 1.74-0.771 1.74-1.74v-2.083h1.398c0.799 0 1.483-0.684 1.483-1.54 0-0.827-0.684-1.512-1.483-1.512h-1.398v-6.047c0-1.055 0.656-1.483 1.227-1.483h0.314c0.998 0 1.54-0.656 1.54-1.512 0-0.884-0.514-1.597-2.824-1.597" fill="#f9f9f9"/>
</g>
</g>
</g>
</g>
</svg>
